{
.appVersion = "1272";
DisplayStrings = (
"/Umacron",
X,
Z
);
copyright = "Copyright (c) 2019, Fredrick Brennan <copypaste @ kittens . ph>\012\012This font is licensed under the SIL Open Font License, v 1.1.";
customParameters = (
{
name = vendorID;
value = QQQQ;
},
{
name = panose;
value = (
2,
0,
5,
3,
0,
0,
0,
0,
0,
0
);
},
{
name = unicodeRanges;
value = (
0,
1,
2,
3,
6,
31,
32,
33,
34,
60,
62
);
},
{
name = fsType;
value = (
);
},
{
name = blueScale;
value = 0.01667;
},
{
name = blueShift;
value = 0;
}
);
date = "2019-03-21 08:15:04 +0000";
disablesAutomaticAlignment = 1;
disablesNiceNames = 1;
familyName = Chomsky;
features = (
{
code = "sub n d by nd.dlig;\012sub r d by rd.dlig;\012sub s t by st.dlig;\012sub t h by th.dlig;\012";
name = dlig;
},
{
code = "sub f f l by f_f_l;\012sub f f i by f_f_i;\012sub f l by f_l;\012sub f i by f_i;\012sub f f by f_f;\012";
name = liga;
}
);
fontMaster = (
{
alignmentZones = (
"{768, 23}",
"{715, 11}",
"{508, 12}",
"{4, -56}",
"{-174, -5}"
);
ascender = 800;
capHeight = 777;
customParameters = (
{
name = typoAscender;
value = 800;
},
{
name = typoDescender;
value = -200;
},
{
name = typoLineGap;
value = 90;
},
{
name = winAscent;
value = 1135;
},
{
name = winDescent;
value = 414;
},
{
name = hheaAscender;
value = 1135;
},
{
name = hheaDescender;
value = -414;
},
{
name = strikeoutPosition;
value = 258;
},
{
name = strikeoutSize;
value = 49;
}
);
descender = -200;
horizontalStems = (
20,
28,
34,
71,
88,
94,
105,
110,
122,
127
);
id = "350E41D6-91B0-4895-AA67-C01AEB764728";
verticalStems = (
20,
28,
105,
116,
124,
128,
134,
140
);
visible = 1;
weightValue = 400;
widthValue = 5;
xHeight = 513;
}
);
glyphs = (
{
color = 5;
glyphname = A;
lastChange = "2019-11-11 16:22:31 +0000";
layers = (
{
layerId = "350E41D6-91B0-4895-AA67-C01AEB764728";
paths = (
{
closed = 1;
nodes = (
"665 754 CURVE",
"643.25 772.08 LINE",
"581.4 712.82 LINE",
"528 751 OFFCURVE",
"460 770 OFFCURVE",
"408 770 CURVE SMOOTH",
"247 770 OFFCURVE",
"129 653 OFFCURVE",
"129 513 CURVE SMOOTH",
"129 432 OFFCURVE",
"188 345 OFFCURVE",
"254.57 321.96 CURVE",
"144.5 139.52 LINE",
"86 107 OFFCURVE",
"38 53 OFFCURVE",
"15 -10 CURVE",
"34 -10 LINE",
"78.41 36.91 OFFCURVE",
"142 65 OFFCURVE",
"207 65 CURVE SMOOTH",
"264 65 OFFCURVE",
"321.57 44.22 OFFCURVE",
"365 6.77 CURVE",
"476.83 103.37 LINE",
"508 67 OFFCURVE",
"552 26 OFFCURVE",
"597 -3.24 CURVE",
"730 103.82 LINE",
"701 136.82 LINE",
"667 108.99 LINE",
"623 143 OFFCURVE",
"624 189 OFFCURVE",
"624 251.66 CURVE",
"624 643.99 LINE SMOOTH",
"624 692 OFFCURVE",
"629 709 OFFCURVE"
);
},
{
closed = 1;
nodes = (
"479.88 639.9 LINE",
"485.05 636.89 OFFCURVE",
"490.09 633.68 OFFCURVE",
"495 630.26 CURVE",
"495 373.99 LINE",
"319.45 373.99 LINE"
);
},
{
closed = 1;
nodes = (
"263.78 337.19 LINE",
"192 391 OFFCURVE",
"187 446 OFFCURVE",
"187 518 CURVE SMOOTH",
"187 589 OFFCURVE",
"270 669 OFFCURVE",
"365 669 CURVE SMOOTH",
"392 669 OFFCURVE",
"429 664 OFFCURVE",
"454.14 652.7 CURVE"
);
},
{
closed = 1;
nodes = (
"257.31 270.98 LINE",
"495 270.98 LINE",
"495 177.58 LINE",
"435 126.98 LINE",
"378 165 OFFCURVE",
"323 174 OFFCURVE",
"270 174 CURVE SMOOTH",
"245 174 OFFCURVE",
"207 167 OFFCURVE",
"189.91 159.28 CURVE"
);
}
);
width = 745;
},
{
associatedMasterId = "350E41D6-91B0-4895-AA67-C01AEB764728";
layerId = "AE10DB57-9B08-45B1-A87F-AD575A1AE543";
name = "Nov 11 19, 11:14";
paths = (
{
closed = 1;
nodes = (
"665 754 LINE",
"643.25 772.08 LINE",
"581.4 712.82 LINE",
"521.64 752.97 OFFCURVE",
"448.22 772.92 OFFCURVE",
"376.5 766.5 CURVE SMOOTH",
"303.72 759.99 OFFCURVE",
"232.85 725.88 OFFCURVE",
"186.03 669.78 CURVE SMOOTH",
"162.62 641.73 OFFCURVE",
"145.36 608.48 OFFCURVE",
"136.58 573.01 CURVE SMOOTH",
"127.8 537.55 OFFCURVE",
"127.6 499.93 OFFCURVE",
"136.5 464.5 CURVE SMOOTH",
"145.55 428.47 OFFCURVE",
"164.03 394.83 OFFCURVE",
"189.74 368.02 CURVE SMOOTH",
"208.2 348.77 OFFCURVE",
"230.34 333.09 OFFCURVE",
"254.57 321.96 CURVE",
"144.5 139.52 LINE",
"129.56 131.4 OFFCURVE",
"115.36 121.95 OFFCURVE",
"102.14 111.26 CURVE SMOOTH",
"62.96 79.6 OFFCURVE",
"32.51 37.23 OFFCURVE",
"15 -10 CURVE",
"34 -10 LINE",
"78.41 36.91 OFFCURVE",
"142.41 64.65 OFFCURVE",
"207 65 CURVE SMOOTH",
"264.35 65.31 OFFCURVE",
"321.57 44.22 OFFCURVE",
"365 6.77 CURVE",
"476.83 103.37 LINE",
"496.47 80.26 OFFCURVE",
"517.95 58.7 OFFCURVE",
"541 38.99 CURVE SMOOTH",
"558.78 23.79 OFFCURVE",
"577.49 9.68 OFFCURVE",
"597 -3.24 CURVE",
"730 103.82 LINE",
"701 136.82 LINE",
"667 108.99 LINE",
"647.11 124.4 OFFCURVE",
"633.78 147.43 OFFCURVE",
"628.33 171.99 CURVE SMOOTH",
"622.56 198.01 OFFCURVE",
"624 225.01 OFFCURVE",
"624 251.66 CURVE SMOOTH",
"624 276.49 LINE",
"624 612.99 LINE",
"624 643.99 LINE SMOOTH",
"624 659.91 OFFCURVE",
"624.35 675.96 OFFCURVE",
"627.92 691.48 CURVE SMOOTH",
"631.49 707 OFFCURVE",
"638.13 721.83 OFFCURVE",
"647.62 734.62 CURVE SMOOTH"
);
},
{
closed = 1;
nodes = (
"479.88 639.9 LINE",
"485.05 636.89 OFFCURVE",
"490.09 633.68 OFFCURVE",
"495 630.26 CURVE",
"495 373.99 LINE",
"319.45 373.99 LINE"
);
},
{
closed = 1;
nodes = (
"263.78 337.19 LINE",
"226.99 364.27 OFFCURVE",
"199.77 404.44 OFFCURVE",
"189.5 448.98 CURVE SMOOTH",
"179.26 493.42 OFFCURVE",
"186.15 541.8 OFFCURVE",
"209.5 580.98 CURVE SMOOTH",
"226.45 609.42 OFFCURVE",
"251.69 632.75 OFFCURVE",
"281.1 647.96 CURVE SMOOTH",
"310.51 663.17 OFFCURVE",
"343.9 670.34 OFFCURVE",
"377 669.48 CURVE SMOOTH",
"403.47 668.8 OFFCURVE",
"429.72 662.94 OFFCURVE",
"454.14 652.7 CURVE"
);
},
{
closed = 1;
nodes = (
"257.31 270.98 LINE",
"495 270.98 LINE",
"495 177.58 LINE",
"435 126.98 LINE",
"377.93 164.79 OFFCURVE",
"306.76 180.77 OFFCURVE",
"239 170.98 CURVE SMOOTH",
"222.33 168.57 OFFCURVE",
"205.88 164.63 OFFCURVE",
"189.91 159.28 CURVE"
);
}
);
visible = 1;
width = 745;
}
);
note = A;
rightKerningGroup = A;
unicode = 0041;
},
{
glyphname = Aacute;
layers = (
{
layerId = "350E41D6-91B0-4895-AA67-C01AEB764728";
paths = (
{
closed = 1;
nodes = (
"556.67 983 LINE",
"505.34 1022.67 LINE",
"419.67 847 LINE",
"428.34 840.33 LINE"
);
},
{
closed = 1;
nodes = (
"665.01 754 LINE",
"643.26 772.08 LINE",
"581.41 712.82 LINE",
"521.65 752.97 OFFCURVE",
"448.23 772.92 OFFCURVE",
"376.51 766.5 CURVE SMOOTH",
"303.73 759.99 OFFCURVE",
"232.86 725.88 OFFCURVE",
"186.04 669.78 CURVE SMOOTH",
"162.63 641.73 OFFCURVE",
"145.37 608.48 OFFCURVE",
"136.59 573.01 CURVE SMOOTH",
"127.81 537.55 OFFCURVE",
"127.61 499.93 OFFCURVE",
"136.51 464.5 CURVE SMOOTH",
"145.56 428.47 OFFCURVE",
"164.04 394.83 OFFCURVE",
"189.75 368.02 CURVE SMOOTH",
"208.21 348.77 OFFCURVE",
"230.35 333.09 OFFCURVE",
"254.58 321.96 CURVE",
"144.51 139.52 LINE",
"129.57 131.4 OFFCURVE",
"115.37 121.95 OFFCURVE",
"102.15 111.26 CURVE SMOOTH",
"62.97 79.6 OFFCURVE",
"32.52 37.23 OFFCURVE",
"15.01 -10 CURVE",
"34.01 -10 LINE",
"78.42 36.91 OFFCURVE",
"142.42 64.65 OFFCURVE",
"207.01 65 CURVE SMOOTH",
"264.36 65.31 OFFCURVE",
"321.58 44.22 OFFCURVE",
"365.01 6.77 CURVE",
"476.84 103.37 LINE",
"496.48 80.26 OFFCURVE",
"517.96 58.7 OFFCURVE",
"541.01 38.99 CURVE SMOOTH",
"558.79 23.79 OFFCURVE",
"577.5 9.68 OFFCURVE",
"597.01 -3.24 CURVE",
"730.01 103.82 LINE",
"701.01 136.82 LINE",
"667.01 108.99 LINE",
"647.12 124.4 OFFCURVE",
"633.79 147.43 OFFCURVE",
"628.34 171.99 CURVE SMOOTH",
"622.57 198.01 OFFCURVE",
"624.01 225.01 OFFCURVE",
"624.01 251.66 CURVE SMOOTH",
"624.01 276.49 LINE",
"624.01 612.99 LINE",
"624.01 643.99 LINE SMOOTH",
"624.01 659.91 OFFCURVE",
"624.36 675.96 OFFCURVE",
"627.93 691.48 CURVE SMOOTH",
"631.5 707 OFFCURVE",
"638.14 721.83 OFFCURVE",
"647.63 734.62 CURVE SMOOTH"
);
},
{
closed = 1;
nodes = (
"479.89 639.9 LINE",
"485.06 636.89 OFFCURVE",
"490.1 633.68 OFFCURVE",
"495.01 630.26 CURVE",
"495.01 373.99 LINE",
"319.46 373.99 LINE"
);
},
{
closed = 1;
nodes = (
"263.79 337.19 LINE",
"227 364.27 OFFCURVE",
"199.78 404.44 OFFCURVE",
"189.51 448.98 CURVE SMOOTH",
"179.27 493.42 OFFCURVE",
"186.16 541.8 OFFCURVE",
"209.51 580.98 CURVE SMOOTH",
"226.46 609.42 OFFCURVE",
"251.7 632.75 OFFCURVE",
"281.11 647.96 CURVE SMOOTH",
"310.52 663.17 OFFCURVE",
"343.91 670.34 OFFCURVE",
"377.01 669.48 CURVE SMOOTH",
"403.48 668.8 OFFCURVE",
"429.73 662.94 OFFCURVE",
"454.15 652.7 CURVE"
);
},
{
closed = 1;
nodes = (
"257.32 270.98 LINE",
"495.01 270.98 LINE",
"495.01 177.58 LINE",
"435.01 126.98 LINE",
"377.94 164.79 OFFCURVE",
"306.77 180.77 OFFCURVE",
"239.01 170.98 CURVE SMOOTH",
"222.34 168.57 OFFCURVE",
"205.89 164.63 OFFCURVE",
"189.92 159.28 CURVE"
);
}
);
width = 745;
}
);
note = Aacute;
rightKerningGroup = A;
unicode = 00C1;
},
{
glyphname = Abreve;
layers = (
{
layerId = "350E41D6-91B0-4895-AA67-C01AEB764728";
paths = (
{
closed = 1;
nodes = (
"382.34 867.24 OFFCURVE",
"349.81 891.7 OFFCURVE",
"326.82 923 CURVE",
"394.82 983 LINE",
"404.26 969.75 OFFCURVE",
"416.45 958.49 OFFCURVE",
"430.34 950.02 CURVE SMOOTH",
"446.62 940.09 OFFCURVE",
"465.07 933.95 OFFCURVE",
"483.92 931.09 CURVE SMOOTH",
"502.77 928.22 OFFCURVE",
"522.24 928.27 OFFCURVE",
"540.73 932.93 CURVE SMOOTH",
"550.51 935.39 OFFCURVE",
"559.99 939.29 OFFCURVE",
"568.25 945.08 CURVE SMOOTH",
"577.41 951.5 OFFCURVE",
"584.93 960.25 OFFCURVE",
"589.71 970.36 CURVE",
"615.4 957.96 LINE",
"607.78 940.94 OFFCURVE",
"598.23 924.77 OFFCURVE",
"586.81 910.02 CURVE SMOOTH",
"572.07 890.98 OFFCURVE",
"553.99 874.26 OFFCURVE",
"532.72 863 CURVE SMOOTH",
"515.49 853.88 OFFCURVE",
"496.3 848.51 OFFCURVE",
"476.84 847.33 CURVE SMOOTH",
"457.38 846.15 OFFCURVE",
"437.75 849.04 OFFCURVE",
"419.23 855.12 CURVE SMOOTH"
);
},
{
closed = 1;
nodes = (
"664.99 754 LINE",
"643.24 772.08 LINE",
"581.39 712.82 LINE",
"521.63 752.97 OFFCURVE",
"448.21 772.92 OFFCURVE",
"376.49 766.5 CURVE SMOOTH",
"303.71 759.99 OFFCURVE",
"232.84 725.88 OFFCURVE",
"186.02 669.78 CURVE SMOOTH",
"162.61 641.73 OFFCURVE",
"145.35 608.48 OFFCURVE",
"136.57 573.01 CURVE SMOOTH",
"127.79 537.55 OFFCURVE",
"127.59 499.93 OFFCURVE",
"136.49 464.5 CURVE SMOOTH",
"145.54 428.47 OFFCURVE",
"164.02 394.83 OFFCURVE",
"189.73 368.02 CURVE SMOOTH",
"208.19 348.77 OFFCURVE",
"230.33 333.09 OFFCURVE",
"254.56 321.96 CURVE",
"144.49 139.52 LINE",
"129.55 131.4 OFFCURVE",
"115.35 121.95 OFFCURVE",
"102.13 111.26 CURVE SMOOTH",
"62.95 79.6 OFFCURVE",
"32.5 37.23 OFFCURVE",
"14.99 -10 CURVE",
"33.99 -10 LINE",
"78.4 36.91 OFFCURVE",
"142.4 64.65 OFFCURVE",
"206.99 65 CURVE SMOOTH",
"264.34 65.31 OFFCURVE",
"321.56 44.22 OFFCURVE",
"364.99 6.77 CURVE",
"476.82 103.37 LINE",
"496.46 80.26 OFFCURVE",
"517.94 58.7 OFFCURVE",
"540.99 38.99 CURVE SMOOTH",
"558.77 23.79 OFFCURVE",
"577.48 9.68 OFFCURVE",
"596.99 -3.24 CURVE",
"729.99 103.82 LINE",
"700.99 136.82 LINE",
"666.99 108.99 LINE",
"647.1 124.4 OFFCURVE",
"633.77 147.43 OFFCURVE",
"628.32 171.99 CURVE SMOOTH",
"622.55 198.01 OFFCURVE",
"623.99 225.01 OFFCURVE",
"623.99 251.66 CURVE SMOOTH",
"623.99 276.49 LINE",
"623.99 612.99 LINE",
"623.99 643.99 LINE SMOOTH",
"623.99 659.91 OFFCURVE",
"624.34 675.96 OFFCURVE",
"627.91 691.48 CURVE SMOOTH",
"631.48 707 OFFCURVE",
"638.12 721.83 OFFCURVE",
"647.61 734.62 CURVE SMOOTH"
);
},
{
closed = 1;
nodes = (
"479.87 639.9 LINE",
"485.04 636.89 OFFCURVE",
"490.08 633.68 OFFCURVE",
"494.99 630.26 CURVE",
"494.99 373.99 LINE",
"319.44 373.99 LINE"
);
},
{
closed = 1;
nodes = (
"263.77 337.19 LINE",
"226.98 364.27 OFFCURVE",
"199.76 404.44 OFFCURVE",
"189.49 448.98 CURVE SMOOTH",
"179.25 493.42 OFFCURVE",
"186.14 541.8 OFFCURVE",
"209.49 580.98 CURVE SMOOTH",
"226.44 609.42 OFFCURVE",
"251.68 632.75 OFFCURVE",
"281.09 647.96 CURVE SMOOTH",
"310.5 663.17 OFFCURVE",
"343.89 670.34 OFFCURVE",
"376.99 669.48 CURVE SMOOTH",
"403.46 668.8 OFFCURVE",
"429.71 662.94 OFFCURVE",
"454.13 652.7 CURVE"
);
},
{
closed = 1;
nodes = (
"257.3 270.98 LINE",
"494.99 270.98 LINE",
"494.99 177.58 LINE",
"434.99 126.98 LINE",
"377.92 164.79 OFFCURVE",
"306.75 180.77 OFFCURVE",
"238.99 170.98 CURVE SMOOTH",
"222.32 168.57 OFFCURVE",
"205.87 164.63 OFFCURVE",
"189.9 159.28 CURVE"
);
}
);
width = 745;
}
);
note = Abreve;
rightKerningGroup = A;
unicode = 0102;
},
{
glyphname = Acircumflex;
layers = (
{
layerId = "350E41D6-91B0-4895-AA67-C01AEB764728";
paths = (
{
closed = 1;
nodes = (
"280.1 842.45 LINE",
"281.4 881.23 LINE",
"480.64 1083.37 LINE",
"486.23 1079.07 LINE",
"487.37 1078.02 LINE",
"656.86 921.71 LINE",
"606.36 842.46 LINE",
"600.77 846.76 LINE",
"435.27 999.4 LINE"
);
},
{
closed = 1;
nodes = (
"665.01 754.01 LINE",
"643.26 772.09 LINE",
"581.41 712.83 LINE",
"521.65 752.98 OFFCURVE",
"448.23 772.93 OFFCURVE",
"376.51 766.51 CURVE SMOOTH",
"303.73 760 OFFCURVE",
"232.86 725.89 OFFCURVE",
"186.04 669.79 CURVE SMOOTH",
"162.63 641.74 OFFCURVE",
"145.37 608.49 OFFCURVE",
"136.59 573.02 CURVE SMOOTH",
"127.81 537.56 OFFCURVE",
"127.61 499.94 OFFCURVE",
"136.51 464.51 CURVE SMOOTH",
"145.56 428.48 OFFCURVE",
"164.04 394.84 OFFCURVE",
"189.75 368.03 CURVE SMOOTH",
"208.21 348.78 OFFCURVE",
"230.35 333.1 OFFCURVE",
"254.58 321.97 CURVE",
"144.51 139.53 LINE",
"129.57 131.41 OFFCURVE",
"115.37 121.96 OFFCURVE",
"102.15 111.27 CURVE SMOOTH",
"62.97 79.61 OFFCURVE",
"32.52 37.24 OFFCURVE",
"15.01 -9.99 CURVE",
"34.01 -9.99 LINE",
"78.42 36.92 OFFCURVE",
"142.42 64.66 OFFCURVE",
"207.01 65.01 CURVE SMOOTH",
"264.36 65.32 OFFCURVE",
"321.58 44.23 OFFCURVE",
"365.01 6.78 CURVE",
"476.84 103.38 LINE",
"496.48 80.27 OFFCURVE",
"517.96 58.71 OFFCURVE",
"541.01 39 CURVE SMOOTH",
"558.79 23.8 OFFCURVE",
"577.5 9.69 OFFCURVE",
"597.01 -3.23 CURVE",
"730.01 103.83 LINE",
"701.01 136.83 LINE",
"667.01 109 LINE",
"647.12 124.41 OFFCURVE",
"633.79 147.44 OFFCURVE",
"628.34 172 CURVE SMOOTH",
"622.57 198.02 OFFCURVE",
"624.01 225.02 OFFCURVE",
"624.01 251.67 CURVE SMOOTH",
"624.01 276.5 LINE",
"624.01 613 LINE",
"624.01 644 LINE SMOOTH",
"624.01 659.92 OFFCURVE",
"624.36 675.97 OFFCURVE",
"627.93 691.49 CURVE SMOOTH",
"631.5 707.01 OFFCURVE",
"638.14 721.84 OFFCURVE",
"647.63 734.63 CURVE SMOOTH"
);
},
{
closed = 1;
nodes = (
"479.89 639.91 LINE",
"485.06 636.9 OFFCURVE",
"490.1 633.69 OFFCURVE",
"495.01 630.27 CURVE",
"495.01 374 LINE",
"319.46 374 LINE"
);
},
{
closed = 1;
nodes = (
"263.79 337.2 LINE",
"227 364.28 OFFCURVE",
"199.78 404.45 OFFCURVE",
"189.51 448.99 CURVE SMOOTH",
"179.27 493.43 OFFCURVE",
"186.16 541.81 OFFCURVE",
"209.51 580.99 CURVE SMOOTH",
"226.46 609.43 OFFCURVE",
"251.7 632.76 OFFCURVE",
"281.11 647.97 CURVE SMOOTH",
"310.52 663.18 OFFCURVE",
"343.91 670.35 OFFCURVE",
"377.01 669.49 CURVE SMOOTH",
"403.48 668.81 OFFCURVE",
"429.73 662.95 OFFCURVE",
"454.15 652.71 CURVE"
);
},
{
closed = 1;
nodes = (
"257.32 270.99 LINE",
"495.01 270.99 LINE",
"495.01 177.59 LINE",
"435.01 126.99 LINE",
"377.94 164.8 OFFCURVE",
"306.77 180.78 OFFCURVE",
"239.01 170.99 CURVE SMOOTH",
"222.34 168.58 OFFCURVE",
"205.89 164.64 OFFCURVE",
"189.92 159.29 CURVE"
);
}
);
width = 745;
}
);
note = Acircumflex;
rightKerningGroup = A;
unicode = 00C2;
},
{
glyphname = Adieresis;
layers = (
{
layerId = "350E41D6-91B0-4895-AA67-C01AEB764728";
paths = (
{
closed = 1;
nodes = (
"266.88 953.47 LINE",
"358.23 862.12 LINE",
"448.11 952 LINE",
"356.76 1043.35 LINE"
);
},
{
closed = 1;
nodes = (
"496.88 953.47 LINE",
"588.23 862.12 LINE",
"678.11 952 LINE",
"586.76 1043.35 LINE"
);
},
{
closed = 1;
nodes = (
"665 754 LINE",
"643.25 772.08 LINE",
"581.4 712.82 LINE",
"521.64 752.97 OFFCURVE",
"448.22 772.92 OFFCURVE",
"376.5 766.5 CURVE SMOOTH",
"303.72 759.99 OFFCURVE",
"232.85 725.88 OFFCURVE",
"186.03 669.78 CURVE SMOOTH",
"162.62 641.73 OFFCURVE",
"145.36 608.48 OFFCURVE",
"136.58 573.01 CURVE SMOOTH",
"127.8 537.55 OFFCURVE",
"127.6 499.93 OFFCURVE",
"136.5 464.5 CURVE SMOOTH",
"145.55 428.47 OFFCURVE",
"164.03 394.83 OFFCURVE",
"189.74 368.02 CURVE SMOOTH",
"208.2 348.77 OFFCURVE",
"230.34 333.09 OFFCURVE",
"254.57 321.96 CURVE",
"144.5 139.52 LINE",
"129.56 131.4 OFFCURVE",
"115.36 121.95 OFFCURVE",
"102.14 111.26 CURVE SMOOTH",
"62.96 79.6 OFFCURVE",
"32.51 37.23 OFFCURVE",
"15 -10 CURVE",
"34 -10 LINE",
"78.41 36.91 OFFCURVE",
"142.41 64.65 OFFCURVE",
"207 65 CURVE SMOOTH",
"264.35 65.31 OFFCURVE",
"321.57 44.22 OFFCURVE",
"365 6.77 CURVE",
"476.83 103.37 LINE",
"496.47 80.26 OFFCURVE",
"517.95 58.7 OFFCURVE",
"541 38.99 CURVE SMOOTH",
"558.78 23.79 OFFCURVE",
"577.49 9.68 OFFCURVE",
"597 -3.24 CURVE",
"730 103.82 LINE",
"701 136.82 LINE",
"667 108.99 LINE",
"647.11 124.4 OFFCURVE",
"633.78 147.43 OFFCURVE",
"628.33 171.99 CURVE SMOOTH",
"622.56 198.01 OFFCURVE",
"624 225.01 OFFCURVE",
"624 251.66 CURVE SMOOTH",
"624 276.49 LINE",
"624 612.99 LINE",
"624 643.99 LINE SMOOTH",
"624 659.91 OFFCURVE",
"624.35 675.96 OFFCURVE",
"627.92 691.48 CURVE SMOOTH",
"631.49 707 OFFCURVE",
"638.13 721.83 OFFCURVE",
"647.62 734.62 CURVE SMOOTH"
);
},
{
closed = 1;
nodes = (
"479.88 639.9 LINE",
"485.05 636.89 OFFCURVE",
"490.09 633.68 OFFCURVE",
"495 630.26 CURVE",
"495 373.99 LINE",
"319.45 373.99 LINE"
);
},
{
closed = 1;
nodes = (
"263.78 337.19 LINE",
"226.99 364.27 OFFCURVE",
"199.77 404.44 OFFCURVE",
"189.5 448.98 CURVE SMOOTH",
"179.26 493.42 OFFCURVE",
"186.15 541.8 OFFCURVE",
"209.5 580.98 CURVE SMOOTH",
"226.45 609.42 OFFCURVE",
"251.69 632.75 OFFCURVE",
"281.1 647.96 CURVE SMOOTH",
"310.51 663.17 OFFCURVE",
"343.9 670.34 OFFCURVE",
"377 669.48 CURVE SMOOTH",
"403.47 668.8 OFFCURVE",
"429.72 662.94 OFFCURVE",
"454.14 652.7 CURVE"
);
},
{
closed = 1;
nodes = (
"257.31 270.98 LINE",
"495 270.98 LINE",
"495 177.58 LINE",
"435 126.98 LINE",
"377.93 164.79 OFFCURVE",
"306.76 180.77 OFFCURVE",
"239 170.98 CURVE SMOOTH",
"222.33 168.57 OFFCURVE",
"205.88 164.63 OFFCURVE",
"189.91 159.28 CURVE"
);
}
);
width = 745;
}
);
note = Adieresis;
rightKerningGroup = A;
unicode = 00C4;
},
{
glyphname = Agrave;
layers = (
{
layerId = "350E41D6-91B0-4895-AA67-C01AEB764728";
paths = (
{
closed = 1;
nodes = (
"419.67 983 LINE",
"471 1022.67 LINE",
"556.67 847 LINE",
"548 840.33 LINE"
);
},
{
closed = 1;
nodes = (
"665 754 LINE",
"643.25 772.08 LINE",
"581.4 712.82 LINE",
"521.64 752.97 OFFCURVE",
"448.22 772.92 OFFCURVE",
"376.5 766.5 CURVE SMOOTH",
"303.72 759.99 OFFCURVE",
"232.85 725.88 OFFCURVE",
"186.03 669.78 CURVE SMOOTH",
"162.62 641.73 OFFCURVE",
"145.36 608.48 OFFCURVE",
"136.58 573.01 CURVE SMOOTH",
"127.8 537.55 OFFCURVE",
"127.6 499.93 OFFCURVE",
"136.5 464.5 CURVE SMOOTH",
"145.55 428.47 OFFCURVE",
"164.03 394.83 OFFCURVE",
"189.74 368.02 CURVE SMOOTH",
"208.2 348.77 OFFCURVE",
"230.34 333.09 OFFCURVE",
"254.57 321.96 CURVE",
"144.5 139.52 LINE",
"129.56 131.4 OFFCURVE",
"115.36 121.95 OFFCURVE",
"102.14 111.26 CURVE SMOOTH",
"62.96 79.6 OFFCURVE",
"32.51 37.23 OFFCURVE",
"15 -10 CURVE",
"34 -10 LINE",
"78.41 36.91 OFFCURVE",
"142.41 64.65 OFFCURVE",
"207 65 CURVE SMOOTH",
"264.35 65.31 OFFCURVE",
"321.57 44.22 OFFCURVE",
"365 6.77 CURVE",
"476.83 103.37 LINE",
"496.47 80.26 OFFCURVE",
"517.95 58.7 OFFCURVE",
"541 38.99 CURVE SMOOTH",
"558.78 23.79 OFFCURVE",
"577.49 9.68 OFFCURVE",
"597 -3.24 CURVE",
"730 103.82 LINE",
"701 136.82 LINE",
"667 108.99 LINE",
"647.11 124.4 OFFCURVE",
"633.78 147.43 OFFCURVE",
"628.33 171.99 CURVE SMOOTH",
"622.56 198.01 OFFCURVE",
"624 225.01 OFFCURVE",
"624 251.66 CURVE SMOOTH",
"624 276.49 LINE",
"624 612.99 LINE",
"624 643.99 LINE SMOOTH",
"624 659.91 OFFCURVE",
"624.35 675.96 OFFCURVE",
"627.92 691.48 CURVE SMOOTH",
"631.49 707 OFFCURVE",
"638.13 721.83 OFFCURVE",
"647.62 734.62 CURVE SMOOTH"
);
},
{
closed = 1;
nodes = (
"479.88 639.9 LINE",
"485.05 636.89 OFFCURVE",
"490.09 633.68 OFFCURVE",
"495 630.26 CURVE",
"495 373.99 LINE",
"319.45 373.99 LINE"
);
},
{
closed = 1;
nodes = (
"263.78 337.19 LINE",
"226.99 364.27 OFFCURVE",
"199.77 404.44 OFFCURVE",
"189.5 448.98 CURVE SMOOTH",
"179.26 493.42 OFFCURVE",
"186.15 541.8 OFFCURVE",
"209.5 580.98 CURVE SMOOTH",
"226.45 609.42 OFFCURVE",
"251.69 632.75 OFFCURVE",
"281.1 647.96 CURVE SMOOTH",
"310.51 663.17 OFFCURVE",
"343.9 670.34 OFFCURVE",
"377 669.48 CURVE SMOOTH",
"403.47 668.8 OFFCURVE",
"429.72 662.94 OFFCURVE",
"454.14 652.7 CURVE"
);
},
{
closed = 1;
nodes = (
"257.31 270.98 LINE",
"495 270.98 LINE",
"495 177.58 LINE",
"435 126.98 LINE",
"377.93 164.79 OFFCURVE",
"306.76 180.77 OFFCURVE",
"239 170.98 CURVE SMOOTH",
"222.33 168.57 OFFCURVE",
"205.88 164.63 OFFCURVE",
"189.91 159.28 CURVE"
);
}
);
width = 745;
}
);
note = Agrave;
rightKerningGroup = A;
unicode = 00C0;
},
{
glyphname = Amacron;
layers = (
{
layerId = "350E41D6-91B0-4895-AA67-C01AEB764728";
paths = (
{
closed = 1;
nodes = (
"349.87 868.22 LINE",
"622.84 867.22 LINE",
"622.84 974.22 LINE",
"349.87 975.22 LINE"
);
},
{
closed = 1;
nodes = (
"665 754 LINE",
"643.25 772.08 LINE",
"581.4 712.82 LINE",
"521.64 752.97 OFFCURVE",
"448.22 772.92 OFFCURVE",
"376.5 766.5 CURVE SMOOTH",
"303.72 759.99 OFFCURVE",
"232.85 725.88 OFFCURVE",
"186.03 669.78 CURVE SMOOTH",
"162.62 641.73 OFFCURVE",
"145.36 608.48 OFFCURVE",
"136.58 573.01 CURVE SMOOTH",
"127.8 537.55 OFFCURVE",
"127.6 499.93 OFFCURVE",
"136.5 464.5 CURVE SMOOTH",
"145.55 428.47 OFFCURVE",
"164.03 394.83 OFFCURVE",
"189.74 368.02 CURVE SMOOTH",
"208.2 348.77 OFFCURVE",
"230.34 333.09 OFFCURVE",
"254.57 321.96 CURVE",
"144.5 139.52 LINE",
"129.56 131.4 OFFCURVE",
"115.36 121.95 OFFCURVE",
"102.14 111.26 CURVE SMOOTH",
"62.96 79.6 OFFCURVE",
"32.51 37.23 OFFCURVE",
"15 -10 CURVE",
"34 -10 LINE",
"78.41 36.91 OFFCURVE",
"142.41 64.65 OFFCURVE",
"207 65 CURVE SMOOTH",
"264.35 65.31 OFFCURVE",
"321.57 44.22 OFFCURVE",
"365 6.77 CURVE",
"476.83 103.37 LINE",
"496.47 80.26 OFFCURVE",
"517.95 58.7 OFFCURVE",
"541 38.99 CURVE SMOOTH",
"558.78 23.79 OFFCURVE",
"577.49 9.68 OFFCURVE",
"597 -3.24 CURVE",
"730 103.82 LINE",
"701 136.82 LINE",
"667 108.99 LINE",
"647.11 124.4 OFFCURVE",
"633.78 147.43 OFFCURVE",
"628.33 171.99 CURVE SMOOTH",
"622.56 198.01 OFFCURVE",
"624 225.01 OFFCURVE",
"624 251.66 CURVE SMOOTH",
"624 276.49 LINE",
"624 612.99 LINE",
"624 643.99 LINE SMOOTH",
"624 659.91 OFFCURVE",
"624.35 675.96 OFFCURVE",
"627.92 691.48 CURVE SMOOTH",
"631.49 707 OFFCURVE",
"638.13 721.83 OFFCURVE",
"647.62 734.62 CURVE SMOOTH"
);
},
{
closed = 1;
nodes = (
"479.88 639.9 LINE",
"485.05 636.89 OFFCURVE",
"490.09 633.68 OFFCURVE",
"495 630.26 CURVE",
"495 373.99 LINE",
"319.45 373.99 LINE"
);
},
{
closed = 1;
nodes = (
"263.78 337.19 LINE",
"226.99 364.27 OFFCURVE",
"199.77 404.44 OFFCURVE",
"189.5 448.98 CURVE SMOOTH",
"179.26 493.42 OFFCURVE",
"186.15 541.8 OFFCURVE",
"209.5 580.98 CURVE SMOOTH",
"226.45 609.42 OFFCURVE",
"251.69 632.75 OFFCURVE",
"281.1 647.96 CURVE SMOOTH",
"310.51 663.17 OFFCURVE",
"343.9 670.34 OFFCURVE",
"377 669.48 CURVE SMOOTH",
"403.47 668.8 OFFCURVE",
"429.72 662.94 OFFCURVE",
"454.14 652.7 CURVE"
);
},
{
closed = 1;
nodes = (
"257.31 270.98 LINE",
"495 270.98 LINE",
"495 177.58 LINE",
"435 126.98 LINE",
"377.93 164.79 OFFCURVE",
"306.76 180.77 OFFCURVE",
"239 170.98 CURVE SMOOTH",
"222.33 168.57 OFFCURVE",
"205.88 164.63 OFFCURVE",
"189.91 159.28 CURVE"
);
}
);
width = 745;
}
);
note = Amacron;
rightKerningGroup = A;
unicode = 0100;
},
{
glyphname = Aogonek;
layers = (
{
layerId = "350E41D6-91B0-4895-AA67-C01AEB764728";
paths = (
{
closed = 1;
nodes = (
"646.31 -194.31 LINE",
"614.92 -176.96 OFFCURVE",
"591.07 -146.46 OFFCURVE",
"581.81 -111.81 CURVE SMOOTH",
"573.06 -79.07 OFFCURVE",
"577.36 -43.04 OFFCURVE",
"593.58 -13.28 CURVE SMOOTH",
"596.43 -8.06 OFFCURVE",
"599.64 -3.04 OFFCURVE",
"603.16 1.75 CURVE",
"656.87 44.98 LINE",
"661.15 46.89 OFFCURVE",
"665.53 48.57 OFFCURVE",
"670 50.01 CURVE",
"666.21 52.5 LINE",
"730 103.85 LINE",
"701 136.85 LINE",
"667 109.02 LINE",
"647.11 124.43 OFFCURVE",
"633.78 147.46 OFFCURVE",
"628.33 172.02 CURVE SMOOTH",
"622.56 198.04 OFFCURVE",
"624 225.04 OFFCURVE",
"624 251.69 CURVE SMOOTH",
"624 276.52 LINE",
"624 613.02 LINE",
"624 644.02 LINE SMOOTH",
"624 659.94 OFFCURVE",
"624.35 675.99 OFFCURVE",
"627.92 691.51 CURVE SMOOTH",
"631.49 707.03 OFFCURVE",
"638.13 721.86 OFFCURVE",
"647.62 734.65 CURVE SMOOTH",
"665 754.03 LINE",
"643.25 772.11 LINE",
"581.4 712.85 LINE",
"521.64 753 OFFCURVE",
"448.22 772.95 OFFCURVE",
"376.5 766.53 CURVE SMOOTH",
"303.72 760.02 OFFCURVE",
"232.85 725.91 OFFCURVE",
"186.03 669.81 CURVE SMOOTH",
"162.62 641.76 OFFCURVE",
"145.36 608.51 OFFCURVE",
"136.58 573.04 CURVE SMOOTH",
"127.8 537.58 OFFCURVE",
"127.6 499.96 OFFCURVE",
"136.5 464.53 CURVE SMOOTH",
"145.55 428.5 OFFCURVE",
"164.03 394.86 OFFCURVE",
"189.74 368.05 CURVE SMOOTH",
"208.2 348.8 OFFCURVE",
"230.34 333.12 OFFCURVE",
"254.57 321.99 CURVE",
"144.5 139.55 LINE",
"129.56 131.43 OFFCURVE",
"115.36 121.98 OFFCURVE",
"102.14 111.29 CURVE SMOOTH",
"62.96 79.63 OFFCURVE",
"32.51 37.26 OFFCURVE",
"15 -9.97 CURVE",
"34 -9.97 LINE",
"78.41 36.94 OFFCURVE",
"142.41 64.68 OFFCURVE",
"207 65.03 CURVE SMOOTH",
"264.35 65.34 OFFCURVE",
"321.57 44.25 OFFCURVE",
"365 6.8 CURVE",
"476.83 103.4 LINE",
"487.21 91.19 OFFCURVE",
"498.1 79.41 OFFCURVE",
"509.46 68.11 CURVE",
"509.07 67.48 OFFCURVE",
"508.69 66.84 OFFCURVE",
"508.31 66.21 CURVE SMOOTH",
"494.51 42.93 OFFCURVE",
"487.12 15.74 OFFCURVE",
"488.31 -11.29 CURVE SMOOTH",
"489.3 -33.64 OFFCURVE",
"496.08 -55.55 OFFCURVE",
"506.64 -75.28 CURVE SMOOTH",
"517.2 -95.01 OFFCURVE",
"531.31 -112.66 OFFCURVE",
"546.81 -128.79 CURVE SMOOTH",
"574.55 -157.67 OFFCURVE",
"606.38 -182.42 OFFCURVE",
"639.81 -204.46 CURVE"
);
},
{
closed = 1;
nodes = (
"479.88 639.93 LINE",
"485.05 636.92 OFFCURVE",
"490.09 633.71 OFFCURVE",
"495 630.29 CURVE",
"495 374.02 LINE",
"319.45 374.02 LINE"
);
},
{
closed = 1;
nodes = (
"263.78 337.22 LINE",
"226.99 364.3 OFFCURVE",
"199.77 404.47 OFFCURVE",
"189.5 449.01 CURVE SMOOTH",
"179.26 493.45 OFFCURVE",
"186.15 541.83 OFFCURVE",
"209.5 581.01 CURVE SMOOTH",
"226.45 609.45 OFFCURVE",
"251.69 632.78 OFFCURVE",
"281.1 647.99 CURVE SMOOTH",
"310.51 663.2 OFFCURVE",
"343.9 670.37 OFFCURVE",
"377 669.51 CURVE SMOOTH",
"403.47 668.83 OFFCURVE",
"429.72 662.97 OFFCURVE",
"454.14 652.73 CURVE"
);
},
{
closed = 1;
nodes = (
"257.31 271.01 LINE",
"495 271.01 LINE",
"495 177.61 LINE",
"435 127.01 LINE",
"377.93 164.82 OFFCURVE",
"306.76 180.8 OFFCURVE",
"239 171.01 CURVE SMOOTH",
"222.33 168.6 OFFCURVE",
"205.88 164.66 OFFCURVE",
"189.91 159.31 CURVE"
);
}
);
width = 745;
}
);
note = Aogonek;
rightKerningGroup = A;
unicode = 0104;
},
{
glyphname = Aring;
layers = (
{
layerId = "350E41D6-91B0-4895-AA67-C01AEB764728";
paths = (
{
closed = 1;
nodes = (
"358 813.46 OFFCURVE",
"389.03 776.12 OFFCURVE",
"430.64 766.44 CURVE",
"412.65 768.06 OFFCURVE",
"394.52 768.11 OFFCURVE",
"376.5 766.5 CURVE SMOOTH",
"303.72 759.99 OFFCURVE",
"232.85 725.88 OFFCURVE",
"186.03 669.78 CURVE SMOOTH",
"162.62 641.73 OFFCURVE",
"145.36 608.48 OFFCURVE",
"136.58 573.01 CURVE SMOOTH",
"127.8 537.55 OFFCURVE",
"127.6 499.93 OFFCURVE",
"136.5 464.5 CURVE SMOOTH",
"145.55 428.47 OFFCURVE",
"164.03 394.83 OFFCURVE",
"189.74 368.02 CURVE SMOOTH",
"208.2 348.77 OFFCURVE",
"230.34 333.09 OFFCURVE",
"254.57 321.96 CURVE",
"144.5 139.52 LINE",
"129.56 131.4 OFFCURVE",
"115.36 121.95 OFFCURVE",
"102.14 111.26 CURVE SMOOTH",
"62.96 79.6 OFFCURVE",
"32.51 37.23 OFFCURVE",
"15 -10 CURVE",
"34 -10 LINE",
"78.41 36.91 OFFCURVE",
"142.41 64.65 OFFCURVE",
"207 65 CURVE SMOOTH",
"264.35 65.31 OFFCURVE",
"321.57 44.22 OFFCURVE",
"365 6.77 CURVE",
"476.83 103.37 LINE",
"496.47 80.26 OFFCURVE",
"517.95 58.7 OFFCURVE",
"541 38.99 CURVE SMOOTH",
"558.78 23.79 OFFCURVE",
"577.49 9.68 OFFCURVE",
"597 -3.24 CURVE",
"730 103.82 LINE",
"701 136.82 LINE",
"667 108.99 LINE",
"647.11 124.4 OFFCURVE",
"633.78 147.43 OFFCURVE",
"628.33 171.99 CURVE SMOOTH",
"622.56 198.01 OFFCURVE",
"624 225.01 OFFCURVE",
"624 251.66 CURVE SMOOTH",
"624 276.49 LINE",
"624 612.99 LINE",
"624 643.99 LINE SMOOTH",
"624 659.91 OFFCURVE",
"624.35 675.96 OFFCURVE",
"627.92 691.48 CURVE SMOOTH",
"631.49 707 OFFCURVE",
"638.13 721.83 OFFCURVE",
"647.62 734.62 CURVE SMOOTH",
"665 754 LINE",
"643.25 772.08 LINE",
"581.4 712.82 LINE",
"542.2 739.16 OFFCURVE",
"497.12 756.8 OFFCURVE",
"450.5 764.01 CURVE SMOOTH",
"451 764 OFFCURVE",
"451.5 764 OFFCURVE",
"452 764 CURVE SMOOTH",
"503.89 764 OFFCURVE",
"546 806.11 OFFCURVE",
"546 858 CURVE SMOOTH",
"546 909.89 OFFCURVE",
"503.89 952 OFFCURVE",
"452 952 CURVE SMOOTH",
"400.11 952 OFFCURVE",
"358 909.89 OFFCURVE",
"358 858 CURVE SMOOTH"
);
},
{
closed = 1;
nodes = (
"386.2 894.32 OFFCURVE",
"415.68 923.8 OFFCURVE",
"452 923.8 CURVE SMOOTH",
"488.32 923.8 OFFCURVE",
"517.8 894.32 OFFCURVE",
"517.8 858 CURVE SMOOTH",
"517.8 821.68 OFFCURVE",
"488.32 792.2 OFFCURVE",
"452 792.2 CURVE SMOOTH",
"415.68 792.2 OFFCURVE",
"386.2 821.68 OFFCURVE",
"386.2 858 CURVE SMOOTH"
);
},
{
closed = 1;
nodes = (
"479.88 639.91 LINE",
"485.05 636.9 OFFCURVE",
"490.09 633.69 OFFCURVE",
"495 630.27 CURVE",
"495 374 LINE",
"319.45 374 LINE"
);
},
{
closed = 1;
nodes = (
"263.78 337.2 LINE",
"226.99 364.28 OFFCURVE",
"199.77 404.45 OFFCURVE",
"189.5 448.99 CURVE SMOOTH",
"179.26 493.43 OFFCURVE",
"186.15 541.81 OFFCURVE",
"209.5 580.99 CURVE SMOOTH",
"226.45 609.43 OFFCURVE",
"251.69 632.76 OFFCURVE",
"281.1 647.97 CURVE SMOOTH",
"310.51 663.18 OFFCURVE",
"343.9 670.35 OFFCURVE",
"377 669.49 CURVE SMOOTH",
"403.47 668.81 OFFCURVE",
"429.72 662.95 OFFCURVE",
"454.14 652.71 CURVE"
);
},
{
closed = 1;
nodes = (
"257.31 270.99 LINE",
"495 270.99 LINE",
"495 177.59 LINE",
"435 126.99 LINE",
"377.93 164.8 OFFCURVE",
"306.76 180.78 OFFCURVE",
"239 170.99 CURVE SMOOTH",
"222.33 168.58 OFFCURVE",
"205.88 164.64 OFFCURVE",
"189.91 159.29 CURVE"
);
}
);
width = 745;
}
);
note = Aring;
rightKerningGroup = A;
unicode = 00C5;
},
{
glyphname = Atilde;
layers = (
{
layerId = "350E41D6-91B0-4895-AA67-C01AEB764728";
paths = (
{
closed = 1;
nodes = (
"296.45 839.01 LINE",
"304.06 846.96 OFFCURVE",
"312.59 853.88 OFFCURVE",
"321.79 859.51 CURVE SMOOTH",
"330.44 864.8 OFFCURVE",
"339.7 868.93 OFFCURVE",
"349.31 871.66 CURVE SMOOTH",
"371.64 877.99 OFFCURVE",
"395.4 875.95 OFFCURVE",
"417.75 869.7 CURVE SMOOTH",
"440.1 863.45 OFFCURVE",
"461.49 853.67 OFFCURVE",
"483.76 847.11 CURVE SMOOTH",
"502.47 841.6 OFFCURVE",
"521.89 838.43 OFFCURVE",
"541.25 839.52 CURVE SMOOTH",
"560.61 840.61 OFFCURVE",
"579.76 845.9 OFFCURVE",
"597.25 854.98 CURVE SMOOTH",
"618.49 866.01 OFFCURVE",
"637.21 882.44 OFFCURVE",
"652.34 902.01 CURVE SMOOTH",
"663.54 916.49 OFFCURVE",
"672.84 932.69 OFFCURVE",
"679.93 949.95 CURVE",
"654.24 962.35 LINE",
"649.13 952.19 OFFCURVE",
"641.66 943.47 OFFCURVE",
"632.78 937.07 CURVE SMOOTH",
"624.48 931.09 OFFCURVE",
"615.01 927.14 OFFCURVE",
"605.26 924.92 CURVE SMOOTH",
"586.88 920.73 OFFCURVE",
"567.74 922.44 OFFCURVE",
"549.3 926.32 CURVE SMOOTH",
"530.86 930.21 OFFCURVE",
"512.9 936.32 OFFCURVE",
"494.87 942.02 CURVE SMOOTH",
"472.28 949.16 OFFCURVE",
"449.28 955.65 OFFCURVE",
"425.77 956.69 CURVE SMOOTH",
"402.26 957.72 OFFCURVE",
"378.44 952.86 OFFCURVE",
"357.32 941.6 CURVE SMOOTH",
"336.23 930.35 OFFCURVE",
"318.13 913.35 OFFCURVE",
"302.23 894.58 CURVE SMOOTH",
"290.78 881.06 OFFCURVE",
"280.32 866.57 OFFCURVE",
"270.76 851.43 CURVE"
);
},
{
closed = 1;
nodes = (
"665 754.02 LINE",
"643.25 772.1 LINE",
"581.4 712.84 LINE",
"521.64 752.99 OFFCURVE",
"448.22 772.94 OFFCURVE",
"376.5 766.52 CURVE SMOOTH",
"303.72 760.01 OFFCURVE",
"232.85 725.9 OFFCURVE",
"186.03 669.8 CURVE SMOOTH",
"162.62 641.75 OFFCURVE",
"145.36 608.5 OFFCURVE",
"136.58 573.03 CURVE SMOOTH",
"127.8 537.57 OFFCURVE",
"127.6 499.95 OFFCURVE",
"136.5 464.52 CURVE SMOOTH",
"145.55 428.49 OFFCURVE",
"164.03 394.85 OFFCURVE",
"189.74 368.04 CURVE SMOOTH",
"208.2 348.79 OFFCURVE",
"230.34 333.11 OFFCURVE",
"254.57 321.98 CURVE",
"144.5 139.54 LINE",
"129.56 131.42 OFFCURVE",
"115.36 121.97 OFFCURVE",
"102.14 111.28 CURVE SMOOTH",
"62.96 79.62 OFFCURVE",
"32.51 37.25 OFFCURVE",
"15 -9.98 CURVE",
"34 -9.98 LINE",
"78.41 36.93 OFFCURVE",
"142.41 64.67 OFFCURVE",
"207 65.02 CURVE SMOOTH",
"264.35 65.33 OFFCURVE",
"321.57 44.24 OFFCURVE",
"365 6.79 CURVE",
"476.83 103.39 LINE",
"496.47 80.28 OFFCURVE",
"517.95 58.72 OFFCURVE",
"541 39.01 CURVE SMOOTH",
"558.78 23.81 OFFCURVE",
"577.49 9.7 OFFCURVE",
"597 -3.22 CURVE",
"730 103.84 LINE",
"701 136.84 LINE",
"667 109.01 LINE",
"647.11 124.42 OFFCURVE",
"633.78 147.45 OFFCURVE",
"628.33 172.01 CURVE SMOOTH",
"622.56 198.03 OFFCURVE",
"624 225.03 OFFCURVE",
"624 251.68 CURVE SMOOTH",
"624 276.51 LINE",
"624 613.01 LINE",
"624 644.01 LINE SMOOTH",
"624 659.93 OFFCURVE",
"624.35 675.98 OFFCURVE",
"627.92 691.5 CURVE SMOOTH",
"631.49 707.02 OFFCURVE",
"638.13 721.85 OFFCURVE",
"647.62 734.64 CURVE SMOOTH"
);
},
{
closed = 1;
nodes = (
"479.88 639.92 LINE",
"485.05 636.91 OFFCURVE",
"490.09 633.7 OFFCURVE",
"495 630.28 CURVE",
"495 374.01 LINE",
"319.45 374.01 LINE"
);
},
{
closed = 1;
nodes = (
"263.78 337.21 LINE",
"226.99 364.29 OFFCURVE",
"199.77 404.46 OFFCURVE",
"189.5 449 CURVE SMOOTH",
"179.26 493.44 OFFCURVE",
"186.15 541.82 OFFCURVE",
"209.5 581 CURVE SMOOTH",
"226.45 609.44 OFFCURVE",
"251.69 632.77 OFFCURVE",
"281.1 647.98 CURVE SMOOTH",
"310.51 663.19 OFFCURVE",
"343.9 670.36 OFFCURVE",
"377 669.5 CURVE SMOOTH",
"403.47 668.82 OFFCURVE",
"429.72 662.96 OFFCURVE",
"454.14 652.72 CURVE"
);
},
{
closed = 1;
nodes = (
"257.31 271 LINE",
"495 271 LINE",
"495 177.6 LINE",
"435 127 LINE",
"377.93 164.81 OFFCURVE",
"306.76 180.79 OFFCURVE",
"239 171 CURVE SMOOTH",
"222.33 168.59 OFFCURVE",
"205.88 164.65 OFFCURVE",
"189.91 159.3 CURVE"
);
}
);
width = 745;
}
);
note = Atilde;
rightKerningGroup = A;
unicode = 00C3;
},
{
color = 3;
glyphname = AE;
lastChange = "2019-11-12 06:09:38 +0000";
layers = (
{
layerId = "350E41D6-91B0-4895-AA67-C01AEB764728";
paths = (
{
closed = 1;
nodes = (
"941.63 769.01 LINE",
"941.63 769.01 LINE",
"632 580.75 LINE",
"632 612.99 LINE",
"632 643.99 LINE SMOOTH",
"632 659.9 OFFCURVE",
"632.41 675.94 OFFCURVE",
"636.04 691.43 CURVE SMOOTH",
"639.67 706.92 OFFCURVE",
"646.33 721.7 OFFCURVE",
"655.63 734.61 CURVE SMOOTH",
"660.71 741.66 OFFCURVE",
"666.55 748.17 OFFCURVE",
"673.01 753.99 CURVE",
"651.26 772.07 LINE",
"589.41 712.81 LINE",
"529.65 752.96 OFFCURVE",
"456.23 772.91 OFFCURVE",
"384.51 766.49 CURVE SMOOTH",
"311.73 759.98 OFFCURVE",
"240.86 725.87 OFFCURVE",
"194.04 669.77 CURVE SMOOTH",
"170.63 641.72 OFFCURVE",
"153.37 608.47 OFFCURVE",
"144.59 573 CURVE SMOOTH",
"135.81 537.54 OFFCURVE",
"135.61 499.92 OFFCURVE",
"144.51 464.49 CURVE SMOOTH",
"153.56 428.46 OFFCURVE",
"172.04 394.82 OFFCURVE",
"197.75 368.01 CURVE SMOOTH",
"216.21 348.76 OFFCURVE",
"238.35 333.08 OFFCURVE",
"262.58 321.95 CURVE",
"152.51 139.51 LINE",
"137.57 131.39 OFFCURVE",
"123.37 121.94 OFFCURVE",
"110.15 111.25 CURVE SMOOTH",
"70.97 79.59 OFFCURVE",
"40.52 37.22 OFFCURVE",
"23.01 -10.01 CURVE",
"42.01 -10.01 LINE",
"86.42 36.9 OFFCURVE",
"150.42 64.64 OFFCURVE",
"215.01 64.99 CURVE SMOOTH",
"272.36 65.3 OFFCURVE",
"329.58 44.21 OFFCURVE",
"373.01 6.76 CURVE",
"543.51 155.28 LINE",
"553.36 157.05 LINE",
"567.14 133.44 OFFCURVE",
"583.56 111.38 OFFCURVE",
"602.38 91.52 CURVE SMOOTH",
"669.36 20.85 OFFCURVE",
"766.8 -21.32 OFFCURVE",
"864.08 -17.01 CURVE SMOOTH",
"914.65 -14.77 OFFCURVE",
"964.79 -0.11 OFFCURVE",
"1007.88 26.45 CURVE SMOOTH",
"1050.97 53.01 OFFCURVE",
"1086.74 91.57 OFFCURVE",
"1109.08 136.99 CURVE SMOOTH",
"1124.84 169.03 OFFCURVE",
"1133.94 204.32 OFFCURVE",
"1135.58 239.99 CURVE",
"1116.41 239.99 LINE",
"1096.86 199.38 OFFCURVE",
"1066.27 164.16 OFFCURVE",
"1028.82 139.1 CURVE SMOOTH",
"993.41 115.41 OFFCURVE",
"951.96 100.86 OFFCURVE",
"909.53 97.03 CURVE",
"909.53 333 LINE",
"1020.73 333 LINE",
"1142.73 460 LINE",
"909.53 460 LINE",
"909.53 634.85 LINE",
"914.51 632 OFFCURVE",
"919.52 629.2 OFFCURVE",
"924.55 626.44 CURVE SMOOTH",
"959.21 607.42 OFFCURVE",
"994.99 590.47 OFFCURVE",
"1031.65 575.69 CURVE",
"1150.59 699.92 LINE",
"1142.41 709.56 LINE",
"1110.87 683.38 LINE",
"1088.08 690.54 OFFCURVE",
"1065.73 699.12 OFFCURVE",
"1043.99 709.03 CURVE SMOOTH",
"1007.95 725.47 OFFCURVE",
"973.6 745.61 OFFCURVE",
"941.66 769.03 CURVE SMOOTH"
);
},
{
closed = 1;
nodes = (
"647.12 246.83 LINE",
"641.22 258.75 OFFCURVE",
"636.16 271.09 OFFCURVE",
"632.03 283.73 CURVE",
"632.03 547.23 LINE",
"707.18 592.93 LINE",
"707.18 486.1 OFFCURVE",
"707.18 379.27 OFFCURVE",
"707.18 272.44 CURVE"
);
},
{
closed = 1;
nodes = (
"836.18 297.5 LINE",
"836.24 671.4 LINE",
"843.71 675.94 LINE",
"855.92 667.65 OFFCURVE",
"868.31 659.62 OFFCURVE",
"880.87 651.88 CURVE",
"880.87 466.62 OFFCURVE",
"880.87 281.37 OFFCURVE",
"880.87 96.11 CURVE",
"810.11 97.89 OFFCURVE",
"740.48 129.58 OFFCURVE",
"692.17 181.49 CURVE SMOOTH",
"680.17 194.38 OFFCURVE",
"669.45 208.45 OFFCURVE",
"660.15 223.41 CURVE"
);
},
{
closed = 1;
nodes = (
"487.9 639.92 LINE",
"493.07 636.91 OFFCURVE",
"498.11 633.7 OFFCURVE",
"503.02 630.28 CURVE",
"503.02 374.01 LINE",
"327.47 374.01 LINE"
);
},
{
closed = 1;
nodes = (
"271.8 337.21 LINE",
"235.01 364.29 OFFCURVE",
"207.79 404.46 OFFCURVE",
"197.52 449 CURVE SMOOTH",
"187.28 493.44 OFFCURVE",
"194.17 541.82 OFFCURVE",
"217.52 581 CURVE SMOOTH",
"234.47 609.44 OFFCURVE",
"259.71 632.77 OFFCURVE",
"289.12 647.98 CURVE SMOOTH",
"318.53 663.19 OFFCURVE",
"351.92 670.36 OFFCURVE",
"385.02 669.5 CURVE SMOOTH",
"411.49 668.82 OFFCURVE",
"437.74 662.96 OFFCURVE",
"462.16 652.72 CURVE"
);
},
{
closed = 1;
nodes = (
"265.33 271 LINE",
"503.02 271 LINE",
"503.02 178.73 LINE",
"443.02 127 LINE",
"385.95 164.81 OFFCURVE",
"314.78 180.79 OFFCURVE",
"247.02 171 CURVE SMOOTH",
"230.35 168.59 OFFCURVE",
"213.9 164.65 OFFCURVE",
"197.93 159.3 CURVE"
);
}
);
width = 1188;
}
);
note = AE;
unicode = 00C6;
},
{
color = 5;
glyphname = B;
lastChange = "2019-11-11 16:42:40 +0000";
layers = (
{
layerId = "350E41D6-91B0-4895-AA67-C01AEB764728";
paths = (
{
closed = 1;
nodes = (
"49.42 309.36 LINE",
"49 314 OFFCURVE",
"49 320 OFFCURVE",
"49 328 CURVE SMOOTH",
"49 345 OFFCURVE",
"70 367 OFFCURVE",
"99 367 CURVE SMOOTH",
"137.27 367.2 LINE",
"137.27 299.33 LINE SMOOTH",
"137 200 OFFCURVE",
"129 150 OFFCURVE",
"76.18 119.33 CURVE",
"85.51 95.33 LINE",
"191 123 OFFCURVE",
"266 196 OFFCURVE",
"266 294 CURVE SMOOTH",
"266.33 552.48 LINE SMOOTH",
"266 586 OFFCURVE",
"272 605 OFFCURVE",
"299.34 626.12 CURVE SMOOTH",
"447.11 741.92 LINE",
"453.34 764.16 LINE",
"426 747 OFFCURVE",
"383 740 OFFCURVE",
"356.84 739.92 CURVE SMOOTH",
"315 740 OFFCURVE",
"274 759 OFFCURVE",
"224 759 CURVE SMOOTH",
"154 759 OFFCURVE",
"80 704 OFFCURVE",
"54.34 634.17 CURVE",
"77.84 634.17 LINE",
"84 657 OFFCURVE",
"114 678 OFFCURVE",
"138 678 CURVE SMOOTH",
"199 678 OFFCURVE",
"229 655 OFFCURVE",
"265 655 CURVE SMOOTH",
"270 655 OFFCURVE",
"277 655 OFFCURVE",
"282.02 655.35 CURVE",
"197.34 601.59 LINE SMOOTH",
"150 572 OFFCURVE",
"137 548 OFFCURVE",
"137.22 505.02 CURVE SMOOTH",
"137.23 479.05 LINE",
"66 476 OFFCURVE",
"14 431 OFFCURVE",
"14 370 CURVE SMOOTH",
"14 353 OFFCURVE",
"17 332 OFFCURVE",
"30.28 309.38 CURVE"
);
},
{
closed = 1;
nodes = (
"791.51 169.02 LINE",
"791.51 420.02 LINE",
"753 452 OFFCURVE",
"702 481 OFFCURVE",
"654.96 498.24 CURVE",
"779.35 585.52 LINE",
"617.6 775.25 LINE",
"498 736 OFFCURVE",
"391 660 OFFCURVE",
"313.85 560.53 CURVE",
"313.85 248.02 LINE SMOOTH",
"314 215 OFFCURVE",
"308 187 OFFCURVE",
"286.68 155.29 CURVE",
"180.73 132.57 OFFCURVE",
"85.84 62.17 OFFCURVE",
"31.77 -31.98 CURVE",
"56.06 -31.98 LINE",
"102 13 OFFCURVE",
"172 46 OFFCURVE",
"265 46 CURVE SMOOTH",
"329 46 OFFCURVE",
"387 32 OFFCURVE",
"457.36 -3.81 CURVE"
);
},
{
closed = 1;
nodes = (
"514.86 156.83 LINE",
"660.52 230.37 LINE",
"660.52 120.03 LINE",
"578.77 82.03 LINE",
"559.36 99.24 OFFCURVE",
"537.84 114.03 OFFCURVE",
"514.86 126.06 CURVE"
);
},
{
closed = 1;
nodes = (
"514.86 427.77 LINE",
"558 413 OFFCURVE",
"609 386 OFFCURVE",
"646.31 360.27 CURVE",
"514.86 293.91 LINE"
);
},
{
closed = 1;
nodes = (
"442 158 OFFCURVE",
"386 166 OFFCURVE",
"337.67 162.44 CURVE",
"414 230 OFFCURVE",
"447 258 OFFCURVE",
"446.86 350.54 CURVE SMOOTH",
"446.86 612.31 LINE SMOOTH",
"447 639 OFFCURVE",
"462 666 OFFCURVE",
"486.2 684.87 CURVE",
"486.2 139.32 LINE"
);
},
{
closed = 1;
nodes = (
"514.87 261.8 LINE",
"660.53 335.34 LINE",
"660.53 262.49 LINE",
"514.87 188.95 LINE"
);
},
{
closed = 1;
nodes = (
"647.87 534.22 LINE",
"514.87 434.93 LINE",
"514.87 690.79 LINE"
);
}
);
width = 806;
},
{
associatedMasterId = "350E41D6-91B0-4895-AA67-C01AEB764728";
layerId = "384881DD-1F37-45B4-9B64-C2375DF454F6";
name = "Nov 11 19, 11:30";
paths = (
{
closed = 1;
nodes = (
"49.42 309.36 LINE",
"48.12 316.51 OFFCURVE",
"48.33 323.94 OFFCURVE",
"50.08 331 CURVE SMOOTH",
"53.02 342.9 OFFCURVE",
"60.62 353.68 OFFCURVE",
"71.16 359.94 CURVE SMOOTH",
"76.43 363.07 OFFCURVE",
"82.33 365.07 OFFCURVE",
"88.37 366.1 CURVE SMOOTH",
"94.41 367.13 OFFCURVE",
"100.57 367.2 OFFCURVE",
"106.7 367.2 CURVE SMOOTH",
"116.89 367.2 OFFCURVE",
"127.08 367.2 OFFCURVE",
"137.27 367.2 CURVE",
"137.27 344.58 OFFCURVE",
"137.27 321.95 OFFCURVE",
"137.27 299.33 CURVE SMOOTH",
"137.27 272.96 OFFCURVE",
"137.87 246.5 OFFCURVE",
"134.79 220.32 CURVE SMOOTH",
"131.71 194.14 OFFCURVE",
"123.94 167.89 OFFCURVE",
"107.85 147 CURVE SMOOTH",
"99.24 135.82 OFFCURVE",
"88.43 126.33 OFFCURVE",
"76.18 119.33 CURVE",
"85.51 95.33 LINE",
"144.78 110.18 OFFCURVE",
"201.21 142.95 OFFCURVE",
"236.26 193 CURVE SMOOTH",
"247.46 209 OFFCURVE",
"256.04 226.9 OFFCURVE",
"260.83 245.83 CURVE SMOOTH",
"265.62 264.76 OFFCURVE",
"266.26 284.47 OFFCURVE",
"266.26 304 CURVE SMOOTH",
"266.26 406 LINE",
"266.33 552.48 LINE SMOOTH",
"266.34 566.63 OFFCURVE",
"266.73 581.15 OFFCURVE",
"272.17 594.21 CURVE SMOOTH",
"274.89 600.74 OFFCURVE",
"278.78 606.76 OFFCURVE",
"283.51 612.03 CURVE SMOOTH",
"288.24 617.29 OFFCURVE",
"293.78 621.75 OFFCURVE",
"299.34 626.12 CURVE SMOOTH",
"447.11 741.92 LINE",
"453.34 764.16 LINE",
"442 757 OFFCURVE",
"429 751 OFFCURVE",
"416 747 CURVE SMOOTH",
"397 742 OFFCURVE",
"377 739 OFFCURVE",
"356.84 739.92 CURVE SMOOTH",
"334 741 OFFCURVE",
"313 746 OFFCURVE",
"291 750 CURVE SMOOTH",
"269 755 OFFCURVE",
"247 759 OFFCURVE",
"224.34 758.67 CURVE SMOOTH",
"196 758 OFFCURVE",
"168 750 OFFCURVE",
"144 736 CURVE SMOOTH",
"102 713 OFFCURVE",
"71 675 OFFCURVE",
"54.34 634.17 CURVE",
"77.84 634.17 LINE",
"81 645 OFFCURVE",
"88 655 OFFCURVE",
"97 662 CURVE SMOOTH",
"106 670 OFFCURVE",
"118 675 OFFCURVE",
"130.34 677.01 CURVE SMOOTH",
"150.9 680.83 OFFCURVE",
"172.26 676.85 OFFCURVE",
"192.28 671.21 CURVE SMOOTH",
"212.3 665.57 OFFCURVE",
"232.05 658.67 OFFCURVE",
"252.84 656.04 CURVE SMOOTH",
"262.51 654.82 OFFCURVE",
"272.31 654.61 OFFCURVE",
"282.02 655.35 CURVE",
"253.8 637.41 OFFCURVE",
"225.58 619.49 OFFCURVE",
"197.34 601.59 CURVE SMOOTH",
"180.28 590.78 OFFCURVE",
"162.8 579.47 OFFCURVE",
"151.38 562.82 CURVE SMOOTH",
"145.67 554.49 OFFCURVE",
"141.64 545.03 OFFCURVE",
"139.52 535.16 CURVE SMOOTH",
"137.39 525.29 OFFCURVE",
"137.21 515.12 OFFCURVE",
"137.22 505.02 CURVE SMOOTH",
"137.23 479.05 LINE",
"115.44 475.9 OFFCURVE",
"93.58 472.58 OFFCURVE",
"73.76 463.27 CURVE SMOOTH",
"59.74 456.68 OFFCURVE",
"47.11 447.04 OFFCURVE",
"37.47 434.92 CURVE SMOOTH",
"27.82 422.8 OFFCURVE",
"21.17 408.38 OFFCURVE",
"17.76 393.27 CURVE SMOOTH",
"11.4 365.08 OFFCURVE",
"16.22 334.64 OFFCURVE",
"30.28 309.38 CURVE"
);
},
{
closed = 1;
nodes = (
"791.51 169.02 LINE",
"791.51 420.02 LINE",
"768.53 439.01 OFFCURVE",
"743.71 455.78 OFFCURVE",
"717.51 470.02 CURVE SMOOTH",
"697.39 480.95 OFFCURVE",
"676.46 490.39 OFFCURVE",
"654.96 498.24 CURVE",
"779.35 585.52 LINE",
"617.6 775.25 LINE",
"557.15 755.17 OFFCURVE",
"499.73 726.01 OFFCURVE",
"447.85 689.05 CURVE SMOOTH",
"397.27 653.01 OFFCURVE",
"351.97 609.57 OFFCURVE",
"313.85 560.53 CURVE",
"313.85 248.02 LINE SMOOTH",
"313.85 236.74 OFFCURVE",
"313.61 225.41 OFFCURVE",
"311.73 214.29 CURVE SMOOTH",
"309.85 203.17 OFFCURVE",
"306.46 192.32 OFFCURVE",
"301.85 182.02 CURVE SMOOTH",
"297.66 172.65 OFFCURVE",
"292.55 163.71 OFFCURVE",
"286.68 155.29 CURVE",
"180.73 132.57 OFFCURVE",
"85.84 62.17 OFFCURVE",
"31.77 -31.98 CURVE",
"56.06 -31.98 LINE",
"77.91 -10.78 OFFCURVE",
"103.52 6.5 OFFCURVE",
"131.27 19.02 CURVE SMOOTH",
"162.29 33.01 OFFCURVE",
"195.86 41.04 OFFCURVE",
"229.77 44.02 CURVE SMOOTH",
"308.02 50.9 OFFCURVE",
"387.71 32.51 OFFCURVE",
"457.36 -3.81 CURVE"
);
},
{
closed = 1;
nodes = (
"514.86 156.83 LINE",
"660.52 230.37 LINE",
"660.52 120.03 LINE",
"578.77 82.03 LINE",
"559.36 99.24 OFFCURVE",
"537.84 114.03 OFFCURVE",
"514.86 126.06 CURVE"
);
},
{
closed = 1;
nodes = (
"514.86 427.77 LINE",
"544.39 417.3 OFFCURVE",
"573.02 404.33 OFFCURVE",
"600.36 389.03 CURVE SMOOTH",
"616.13 380.2 OFFCURVE",
"631.47 370.6 OFFCURVE",
"646.31 360.27 CURVE",
"514.86 293.91 LINE"
);
},
{
closed = 1;
nodes = (
"482.08 140.98 OFFCURVE",
"477.94 142.55 OFFCURVE",
"473.77 144.04 CURVE SMOOTH",
"430.34 159.52 OFFCURVE",
"383.69 165.48 OFFCURVE",
"337.67 162.44 CURVE",
"348.39 171.98 OFFCURVE",
"359.17 181.47 OFFCURVE",
"369.86 191.04 CURVE SMOOTH",
"392.79 211.58 OFFCURVE",
"415.25 233.59 OFFCURVE",
"429.46 260.9 CURVE SMOOTH",
"436.56 274.56 OFFCURVE",
"441.46 289.34 OFFCURVE",
"444.05 304.51 CURVE SMOOTH",
"446.64 319.68 OFFCURVE",
"446.86 335.15 OFFCURVE",
"446.86 350.54 CURVE SMOOTH",
"446.86 406.54 LINE",
"446.86 612.31 LINE",
"448.48 629.44 OFFCURVE",
"454.37 646.15 OFFCURVE",
"463.86 660.51 CURVE SMOOTH",
"469.96 669.74 OFFCURVE",
"477.54 677.98 OFFCURVE",
"486.2 684.87 CURVE",
"486.2 503.02 OFFCURVE",
"486.2 321.17 OFFCURVE",
"486.2 139.32 CURVE"
);
},
{
closed = 1;
nodes = (
"514.87 261.8 LINE",
"660.53 335.34 LINE",
"660.53 262.49 LINE",
"514.87 188.95 LINE"
);
},
{
closed = 1;
nodes = (
"647.87 534.22 LINE",
"514.87 434.93 LINE",
"514.87 520.22 OFFCURVE",
"514.87 605.5 OFFCURVE",
"514.87 690.79 CURVE"
);
}
);
width = 806;
}
);
note = B;
rightKerningGroup = A;
unicode = 0042;
},
{
color = 5;
glyphname = C;
lastChange = "2019-11-11 16:50:19 +0000";
layers = (
{
layerId = "350E41D6-91B0-4895-AA67-C01AEB764728";
paths = (
{
closed = 1;
nodes = (
"513 -18 OFFCURVE",
"630 100 OFFCURVE",
"637.7 240.01 CURVE",
"618.53 240.01 LINE",
"580 163 OFFCURVE",
"506 109 OFFCURVE",
"421.64 97.41 CURVE",
"421.64 634.86 LINE",
"452 618 OFFCURVE",
"512 589 OFFCURVE",
"543.76 575.7 CURVE",
"662.7 699.93 LINE",
"654.52 709.57 LINE",
"622.97 683.39 LINE",
"568 701 OFFCURVE",
"505 731 OFFCURVE",
"453.76 769.04 CURVE",
"189.64 607.69 LINE",
"215.8 650.07 OFFCURVE",
"253.04 685.66 OFFCURVE",
"297.28 708.5 CURVE",
"287.7 722.86 LINE",
"132 670 OFFCURVE",
"14 516 OFFCURVE",
"14 358 CURVE SMOOTH",
"14 146 OFFCURVE",
"154 -18 OFFCURVE",
"367 -18 CURVE SMOOTH"
);
},
{
closed = 1;
nodes = (
"141 305 OFFCURVE",
"137 331 OFFCURVE",
"137 395 CURVE SMOOTH",
"137 444 OFFCURVE",
"150.62 521.31 OFFCURVE",
"165.66 559.44 CURVE",
"219.28 592.2 LINE",
"219.28 272.42 LINE",
"164.46 249.07 LINE"
);
},
{
closed = 1;
nodes = (
"296 94 OFFCURVE",
"219 143 OFFCURVE",
"175.76 224.87 CURVE",
"348.28 297.48 LINE",
"348.34 671.04 LINE",
"356.07 675.76 LINE",
"368.2 667.53 OFFCURVE",
"380.5 659.56 OFFCURVE",
"392.98 651.87 CURVE",
"392.98 95.08 LINE"
);
}
);
width = 677;
},
{
associatedMasterId = "350E41D6-91B0-4895-AA67-C01AEB764728";
layerId = "4740D12B-EA95-40FD-984B-82421E292191";
name = "Nov 11 19, 11:46";
paths = (
{
closed = 1;
nodes = (
"287.7 722.86 LINE",
"211.28 696.89 OFFCURVE",
"143.01 647.41 OFFCURVE",
"94.62 582.81 CURVE SMOOTH",
"46.23 518.21 OFFCURVE",
"17.89 438.68 OFFCURVE",
"15.2 358.01 CURVE SMOOTH",
"11.95 260.41 OFFCURVE",
"47.13 161.42 OFFCURVE",
"113.74 90.01 CURVE SMOOTH",
"180.35 18.6 OFFCURVE",
"278.77 -23.72 OFFCURVE",
"376.2 -16.99 CURVE SMOOTH",
"425.13 -13.61 OFFCURVE",
"473.31 1.88 OFFCURVE",
"514.49 28.51 CURVE SMOOTH",
"555.68 55.14 OFFCURVE",
"589.67 92.94 OFFCURVE",
"611.2 137.01 CURVE SMOOTH",
"626.87 169.08 OFFCURVE",
"635.95 204.36 OFFCURVE",
"637.7 240.01 CURVE",
"618.53 240.01 LINE",
"599.13 201.22 OFFCURVE",
"570.03 167.31 OFFCURVE",
"534.59 142.31 CURVE SMOOTH",
"501.17 118.73 OFFCURVE",
"462.14 103.08 OFFCURVE",
"421.64 97.41 CURVE",
"421.64 276.56 OFFCURVE",
"421.64 455.71 OFFCURVE",
"421.64 634.86 CURVE",
"426.62 632.01 OFFCURVE",
"431.63 629.21 OFFCURVE",
"436.66 626.45 CURVE SMOOTH",
"471.31 607.43 OFFCURVE",
"507.1 590.48 OFFCURVE",
"543.76 575.7 CURVE",
"662.7 699.93 LINE",
"654.52 709.57 LINE",
"622.97 683.39 LINE",
"600.18 690.55 OFFCURVE",
"577.83 699.13 OFFCURVE",
"556.09 709.04 CURVE SMOOTH",
"520.05 725.48 OFFCURVE",
"485.7 745.62 OFFCURVE",
"453.76 769.04 CURVE",
"453.76 769.04 LINE",
"453.76 769.04 LINE",
"189.64 607.69 LINE",
"215.8 650.07 OFFCURVE",
"253.04 685.66 OFFCURVE",
"297.28 708.5 CURVE"
);
},
{
closed = 1;
nodes = (
"164.46 249.07 LINE",
"157.14 266.79 OFFCURVE",
"151.49 285.24 OFFCURVE",
"147.36 303.94 CURVE SMOOTH",
"137.58 348.3 OFFCURVE",
"135.65 394.21 OFFCURVE",
"139.28 439.49 CURVE SMOOTH",
"142.56 480.43 OFFCURVE",
"150.62 521.31 OFFCURVE",
"165.66 559.44 CURVE",
"219.28 592.2 LINE",
"219.28 485.61 OFFCURVE",
"219.28 379.02 OFFCURVE",
"219.28 272.42 CURVE"
);
},
{
closed = 1;
nodes = (
"348.28 297.48 LINE",
"348.34 671.04 LINE",
"356.07 675.76 LINE",
"368.2 667.53 OFFCURVE",
"380.5 659.56 OFFCURVE",
"392.98 651.87 CURVE",
"392.98 466.27 OFFCURVE",
"392.98 280.68 OFFCURVE",
"392.98 95.08 CURVE",
"360.71 94.36 OFFCURVE",
"328.28 100 OFFCURVE",
"298.34 112.03 CURVE SMOOTH",
"261.79 126.72 OFFCURVE",
"229.21 150.98 OFFCURVE",
"204.29 181.48 CURVE SMOOTH",
"193.3 194.93 OFFCURVE",
"183.82 209.51 OFFCURVE",
"175.76 224.87 CURVE"
);
}
);
visible = 1;
width = 677;
}
);
note = C;
rightKerningGroup = A;
unicode = 0043;
},
{
glyphname = Cacute;
layers = (
{
layerId = "350E41D6-91B0-4895-AA67-C01AEB764728";
paths = (
{
closed = 1;
nodes = (
"508.67 959 LINE",
"457.34 998.67 LINE",
"371.67 823 LINE",
"380.34 816.33 LINE"
);
},
{
closed = 1;
nodes = (
"287.71 722.85 LINE",
"211.29 696.88 OFFCURVE",
"143.02 647.4 OFFCURVE",
"94.63 582.8 CURVE SMOOTH",
"46.24 518.2 OFFCURVE",
"17.9 438.67 OFFCURVE",
"15.21 358 CURVE SMOOTH",
"11.96 260.4 OFFCURVE",
"47.14 161.41 OFFCURVE",
"113.75 90 CURVE SMOOTH",
"180.36 18.59 OFFCURVE",
"278.78 -23.73 OFFCURVE",
"376.21 -17 CURVE SMOOTH",
"425.14 -13.62 OFFCURVE",
"473.32 1.87 OFFCURVE",
"514.5 28.5 CURVE SMOOTH",
"555.69 55.13 OFFCURVE",
"589.68 92.93 OFFCURVE",
"611.21 137 CURVE SMOOTH",
"626.88 169.07 OFFCURVE",
"635.96 204.35 OFFCURVE",
"637.71 240 CURVE",
"618.54 240 LINE",
"599.14 201.21 OFFCURVE",
"570.04 167.3 OFFCURVE",
"534.6 142.3 CURVE SMOOTH",
"501.18 118.72 OFFCURVE",
"462.15 103.07 OFFCURVE",
"421.65 97.4 CURVE",
"421.65 276.55 OFFCURVE",
"421.65 455.7 OFFCURVE",
"421.65 634.85 CURVE",
"426.63 632 OFFCURVE",
"431.64 629.2 OFFCURVE",
"436.67 626.44 CURVE SMOOTH",
"471.32 607.42 OFFCURVE",
"507.11 590.47 OFFCURVE",
"543.77 575.69 CURVE",
"662.71 699.92 LINE",
"654.53 709.56 LINE",
"622.98 683.38 LINE",
"600.19 690.54 OFFCURVE",
"577.84 699.12 OFFCURVE",
"556.1 709.03 CURVE SMOOTH",
"520.06 725.47 OFFCURVE",
"485.71 745.61 OFFCURVE",
"453.77 769.03 CURVE",
"453.77 769.03 LINE",
"453.77 769.03 LINE",
"189.65 607.68 LINE",
"215.81 650.06 OFFCURVE",
"253.05 685.65 OFFCURVE",
"297.29 708.49 CURVE"
);
},
{
closed = 1;
nodes = (
"164.47 249.06 LINE",
"157.15 266.78 OFFCURVE",
"151.5 285.23 OFFCURVE",
"147.37 303.93 CURVE SMOOTH",
"137.59 348.29 OFFCURVE",
"135.66 394.2 OFFCURVE",
"139.29 439.48 CURVE SMOOTH",
"142.57 480.42 OFFCURVE",
"150.63 521.3 OFFCURVE",
"165.67 559.43 CURVE",
"219.29 592.19 LINE",
"219.29 485.6 OFFCURVE",
"219.29 379.01 OFFCURVE",
"219.29 272.41 CURVE"
);
},
{
closed = 1;
nodes = (
"348.29 297.47 LINE",
"348.35 671.03 LINE",
"356.08 675.75 LINE",
"368.21 667.52 OFFCURVE",
"380.51 659.55 OFFCURVE",
"392.99 651.86 CURVE",
"392.99 466.26 OFFCURVE",
"392.99 280.67 OFFCURVE",
"392.99 95.07 CURVE",
"360.72 94.35 OFFCURVE",
"328.29 99.99 OFFCURVE",
"298.35 112.02 CURVE SMOOTH",
"261.8 126.71 OFFCURVE",
"229.22 150.97 OFFCURVE",
"204.3 181.47 CURVE SMOOTH",
"193.31 194.92 OFFCURVE",
"183.83 209.5 OFFCURVE",
"175.77 224.86 CURVE"
);
}
);
width = 677;
}
);
note = Cacute;
rightKerningGroup = A;
unicode = 0106;
},
{
glyphname = Ccaron;
layers = (
{
layerId = "350E41D6-91B0-4895-AA67-C01AEB764728";
paths = (
{
closed = 1;
nodes = (
"628.9 1079.37 LINE",
"627.6 1040.59 LINE",
"428.36 838.45 LINE",
"422.77 842.75 LINE",
"421.63 843.8 LINE",
"252.14 1000.11 LINE",
"302.64 1079.36 LINE",
"308.23 1075.06 LINE",
"473.73 922.42 LINE"
);
},
{
closed = 1;
nodes = (
"287.7 722.85 LINE",
"211.28 696.88 OFFCURVE",
"143.01 647.4 OFFCURVE",
"94.62 582.8 CURVE SMOOTH",
"46.23 518.2 OFFCURVE",
"17.89 438.67 OFFCURVE",
"15.2 358 CURVE SMOOTH",
"11.95 260.4 OFFCURVE",
"47.13 161.41 OFFCURVE",
"113.74 90 CURVE SMOOTH",
"180.35 18.59 OFFCURVE",
"278.77 -23.73 OFFCURVE",
"376.2 -17 CURVE SMOOTH",
"425.13 -13.62 OFFCURVE",
"473.31 1.87 OFFCURVE",
"514.49 28.5 CURVE SMOOTH",
"555.68 55.13 OFFCURVE",
"589.67 92.93 OFFCURVE",
"611.2 137 CURVE SMOOTH",
"626.87 169.07 OFFCURVE",
"635.95 204.35 OFFCURVE",
"637.7 240 CURVE",
"618.53 240 LINE",
"599.13 201.21 OFFCURVE",
"570.03 167.3 OFFCURVE",
"534.59 142.3 CURVE SMOOTH",
"501.17 118.72 OFFCURVE",
"462.14 103.07 OFFCURVE",
"421.64 97.4 CURVE",
"421.64 276.55 OFFCURVE",
"421.64 455.7 OFFCURVE",
"421.64 634.85 CURVE",
"426.62 632 OFFCURVE",
"431.63 629.2 OFFCURVE",
"436.66 626.44 CURVE SMOOTH",
"471.31 607.42 OFFCURVE",
"507.1 590.47 OFFCURVE",
"543.76 575.69 CURVE",
"662.7 699.92 LINE",
"654.52 709.56 LINE",
"622.97 683.38 LINE",
"600.18 690.54 OFFCURVE",
"577.83 699.12 OFFCURVE",
"556.09 709.03 CURVE SMOOTH",
"520.05 725.47 OFFCURVE",
"485.7 745.61 OFFCURVE",
"453.76 769.03 CURVE",
"453.76 769.03 LINE",
"453.76 769.03 LINE",
"189.64 607.68 LINE",
"215.8 650.06 OFFCURVE",
"253.04 685.65 OFFCURVE",
"297.28 708.49 CURVE"
);
},
{
closed = 1;
nodes = (
"164.46 249.06 LINE",
"157.14 266.78 OFFCURVE",
"151.49 285.23 OFFCURVE",
"147.36 303.93 CURVE SMOOTH",
"137.58 348.29 OFFCURVE",
"135.65 394.2 OFFCURVE",
"139.28 439.48 CURVE SMOOTH",
"142.56 480.42 OFFCURVE",
"150.62 521.3 OFFCURVE",
"165.66 559.43 CURVE",
"219.28 592.19 LINE",
"219.28 485.6 OFFCURVE",
"219.28 379.01 OFFCURVE",
"219.28 272.41 CURVE"
);
},
{
closed = 1;
nodes = (
"348.28 297.47 LINE",
"348.34 671.03 LINE",
"356.07 675.75 LINE",
"368.2 667.52 OFFCURVE",
"380.5 659.55 OFFCURVE",
"392.98 651.86 CURVE",
"392.98 466.26 OFFCURVE",
"392.98 280.67 OFFCURVE",
"392.98 95.07 CURVE",
"360.71 94.35 OFFCURVE",
"328.28 99.99 OFFCURVE",
"298.34 112.02 CURVE SMOOTH",
"261.79 126.71 OFFCURVE",
"229.21 150.97 OFFCURVE",
"204.29 181.47 CURVE SMOOTH",
"193.3 194.92 OFFCURVE",
"183.82 209.5 OFFCURVE",
"175.76 224.86 CURVE"
);
}
);
width = 677;
}
);
note = Ccaron;
rightKerningGroup = A;
unicode = 010C;
},
{
glyphname = Ccedilla;
layers = (
{
layerId = "350E41D6-91B0-4895-AA67-C01AEB764728";
paths = (
{
closed = 1;
nodes = (
"278.86 -225.12 LINE",
"312.29 -209.16 OFFCURVE",
"344.12 -191.23 OFFCURVE",
"371.86 -170.32 CURVE SMOOTH",
"387.36 -158.63 OFFCURVE",
"401.47 -145.85 OFFCURVE",
"412.03 -131.56 CURVE SMOOTH",
"422.59 -117.27 OFFCURVE",
"429.37 -101.41 OFFCURVE",
"430.36 -85.22 CURVE SMOOTH",
"431.55 -65.64 OFFCURVE",
"424.16 -45.95 OFFCURVE",
"410.36 -29.09 CURVE SMOOTH",
"406.28 -24.11 OFFCURVE",
"401.67 -19.36 OFFCURVE",
"396.58 -14.9 CURVE",
"438.41 -9.11 OFFCURVE",
"479.04 5.56 OFFCURVE",
"514.49 28.48 CURVE SMOOTH",
"555.68 55.11 OFFCURVE",
"589.67 92.91 OFFCURVE",
"611.2 136.98 CURVE SMOOTH",
"626.87 169.05 OFFCURVE",
"635.95 204.33 OFFCURVE",
"637.7 239.98 CURVE",
"618.53 239.98 LINE",
"599.13 201.19 OFFCURVE",
"570.03 167.28 OFFCURVE",
"534.59 142.28 CURVE SMOOTH",
"501.17 118.7 OFFCURVE",
"462.14 103.05 OFFCURVE",
"421.64 97.38 CURVE",
"421.64 276.53 OFFCURVE",
"421.64 455.68 OFFCURVE",
"421.64 634.83 CURVE",
"426.62 631.98 OFFCURVE",
"431.63 629.18 OFFCURVE",
"436.66 626.42 CURVE SMOOTH",
"471.31 607.4 OFFCURVE",
"507.1 590.45 OFFCURVE",
"543.76 575.67 CURVE",
"662.7 699.9 LINE",
"654.52 709.54 LINE",
"622.97 683.36 LINE",
"600.18 690.52 OFFCURVE",
"577.83 699.1 OFFCURVE",
"556.09 709.01 CURVE SMOOTH",
"520.05 725.45 OFFCURVE",
"485.7 745.59 OFFCURVE",
"453.76 769.01 CURVE",
"453.76 769.01 LINE",
"453.76 769.01 LINE",
"189.64 607.66 LINE",
"215.8 650.04 OFFCURVE",
"253.04 685.63 OFFCURVE",
"297.28 708.47 CURVE",
"287.69 722.85 LINE",
"211.27 696.88 OFFCURVE",
"143 647.4 OFFCURVE",
"94.61 582.8 CURVE SMOOTH",
"46.22 518.2 OFFCURVE",
"17.88 438.67 OFFCURVE",
"15.19 358 CURVE SMOOTH",
"11.94 260.4 OFFCURVE",
"47.12 161.41 OFFCURVE",
"113.73 90 CURVE SMOOTH",
"164.26 35.83 OFFCURVE",
"233.1 -1.6 OFFCURVE",
"305.92 -13.58 CURVE",
"248.66 -40.8 LINE",
"280.91 -48.32 OFFCURVE",
"308.86 -65.09 OFFCURVE",
"325.08 -86.64 CURVE SMOOTH",
"341.3 -108.19 OFFCURVE",
"345.6 -134.29 OFFCURVE",
"336.85 -158 CURVE SMOOTH",
"327.59 -183.1 OFFCURVE",
"303.74 -205.19 OFFCURVE",
"272.35 -217.75 CURVE"
);
},
{
closed = 1;
nodes = (
"164.46 249.05 LINE",
"157.14 266.77 OFFCURVE",
"151.49 285.22 OFFCURVE",
"147.36 303.92 CURVE SMOOTH",
"137.58 348.28 OFFCURVE",
"135.65 394.19 OFFCURVE",
"139.28 439.47 CURVE SMOOTH",
"142.56 480.41 OFFCURVE",
"150.62 521.29 OFFCURVE",
"165.66 559.42 CURVE",
"219.28 592.18 LINE",
"219.28 485.59 OFFCURVE",
"219.28 379 OFFCURVE",
"219.28 272.4 CURVE"
);
},
{
closed = 1;
nodes = (
"348.28 297.46 LINE",
"348.34 671.02 LINE",
"356.07 675.74 LINE",
"368.2 667.51 OFFCURVE",
"380.5 659.54 OFFCURVE",
"392.98 651.85 CURVE",
"392.98 466.25 OFFCURVE",
"392.98 280.66 OFFCURVE",
"392.98 95.06 CURVE",
"360.71 94.34 OFFCURVE",
"328.28 99.98 OFFCURVE",
"298.34 112.01 CURVE SMOOTH",
"261.79 126.7 OFFCURVE",
"229.21 150.96 OFFCURVE",
"204.29 181.46 CURVE SMOOTH",
"193.3 194.91 OFFCURVE",
"183.82 209.49 OFFCURVE",
"175.76 224.85 CURVE"
);
}
);
width = 677;
}
);
note = Ccedilla;
rightKerningGroup = A;
unicode = 00C7;
},
{
glyphname = Ccircumflex;
layers = (
{
layerId = "350E41D6-91B0-4895-AA67-C01AEB764728";
paths = (
{
closed = 1;
nodes = (
"232.1 818.45 LINE",
"233.4 857.23 LINE",
"432.64 1059.37 LINE",
"438.23 1055.07 LINE",
"439.37 1054.02 LINE",
"608.86 897.71 LINE",
"558.36 818.46 LINE",
"552.77 822.76 LINE",
"387.27 975.4 LINE"
);
},
{
closed = 1;
nodes = (
"287.71 722.87 LINE",
"211.29 696.9 OFFCURVE",
"143.02 647.42 OFFCURVE",
"94.63 582.82 CURVE SMOOTH",
"46.24 518.22 OFFCURVE",
"17.9 438.69 OFFCURVE",
"15.21 358.02 CURVE SMOOTH",
"11.96 260.42 OFFCURVE",
"47.14 161.43 OFFCURVE",
"113.75 90.02 CURVE SMOOTH",
"180.36 18.61 OFFCURVE",
"278.78 -23.71 OFFCURVE",
"376.21 -16.98 CURVE SMOOTH",
"425.14 -13.6 OFFCURVE",
"473.32 1.89 OFFCURVE",
"514.5 28.52 CURVE SMOOTH",
"555.69 55.15 OFFCURVE",
"589.68 92.95 OFFCURVE",
"611.21 137.02 CURVE SMOOTH",
"626.88 169.09 OFFCURVE",
"635.96 204.37 OFFCURVE",
"637.71 240.02 CURVE",
"618.54 240.02 LINE",
"599.14 201.23 OFFCURVE",
"570.04 167.32 OFFCURVE",
"534.6 142.32 CURVE SMOOTH",
"501.18 118.74 OFFCURVE",
"462.15 103.09 OFFCURVE",
"421.65 97.42 CURVE",
"421.65 276.57 OFFCURVE",
"421.65 455.72 OFFCURVE",
"421.65 634.87 CURVE",
"426.63 632.02 OFFCURVE",
"431.64 629.22 OFFCURVE",
"436.67 626.46 CURVE SMOOTH",
"471.32 607.44 OFFCURVE",
"507.11 590.49 OFFCURVE",
"543.77 575.71 CURVE",
"662.71 699.94 LINE",
"654.53 709.58 LINE",
"622.98 683.4 LINE",
"600.19 690.56 OFFCURVE",
"577.84 699.14 OFFCURVE",
"556.1 709.05 CURVE SMOOTH",
"520.06 725.49 OFFCURVE",
"485.71 745.63 OFFCURVE",
"453.77 769.05 CURVE",
"453.77 769.05 LINE",
"453.77 769.05 LINE",
"189.65 607.7 LINE",
"215.81 650.08 OFFCURVE",
"253.05 685.67 OFFCURVE",
"297.29 708.51 CURVE"
);
},
{
closed = 1;
nodes = (
"164.47 249.08 LINE",
"157.15 266.8 OFFCURVE",
"151.5 285.25 OFFCURVE",
"147.37 303.95 CURVE SMOOTH",
"137.59 348.31 OFFCURVE",
"135.66 394.22 OFFCURVE",
"139.29 439.5 CURVE SMOOTH",
"142.57 480.44 OFFCURVE",
"150.63 521.32 OFFCURVE",
"165.67 559.45 CURVE",
"219.29 592.21 LINE",
"219.29 485.62 OFFCURVE",
"219.29 379.03 OFFCURVE",
"219.29 272.43 CURVE"
);
},
{
closed = 1;
nodes = (
"348.29 297.49 LINE",
"348.35 671.05 LINE",
"356.08 675.77 LINE",
"368.21 667.54 OFFCURVE",
"380.51 659.57 OFFCURVE",
"392.99 651.88 CURVE",
"392.99 466.28 OFFCURVE",
"392.99 280.69 OFFCURVE",
"392.99 95.09 CURVE",
"360.72 94.37 OFFCURVE",
"328.29 100.01 OFFCURVE",
"298.35 112.04 CURVE SMOOTH",
"261.8 126.73 OFFCURVE",
"229.22 150.99 OFFCURVE",
"204.3 181.49 CURVE SMOOTH",
"193.31 194.94 OFFCURVE",
"183.83 209.52 OFFCURVE",
"175.77 224.88 CURVE"
);
}
);
width = 677;
}
);
note = Ccircumflex;
rightKerningGroup = A;
unicode = 0108;
},
{
glyphname = Cdotaccent;
layers = (
{
layerId = "350E41D6-91B0-4895-AA67-C01AEB764728";
paths = (
{
closed = 1;
nodes = (
"338.88 937.37 LINE",
"430.23 846.02 LINE",
"520.11 935.9 LINE",
"428.76 1027.25 LINE"
);
},
{
closed = 1;
nodes = (
"287.7 722.86 LINE",
"211.28 696.89 OFFCURVE",
"143.01 647.41 OFFCURVE",
"94.62 582.81 CURVE SMOOTH",
"46.23 518.21 OFFCURVE",
"17.89 438.68 OFFCURVE",
"15.2 358.01 CURVE SMOOTH",
"11.95 260.41 OFFCURVE",
"47.13 161.42 OFFCURVE",
"113.74 90.01 CURVE SMOOTH",
"180.35 18.6 OFFCURVE",
"278.77 -23.72 OFFCURVE",
"376.2 -16.99 CURVE SMOOTH",
"425.13 -13.61 OFFCURVE",
"473.31 1.88 OFFCURVE",
"514.49 28.51 CURVE SMOOTH",
"555.68 55.14 OFFCURVE",
"589.67 92.94 OFFCURVE",
"611.2 137.01 CURVE SMOOTH",
"626.87 169.08 OFFCURVE",
"635.95 204.36 OFFCURVE",
"637.7 240.01 CURVE",
"618.53 240.01 LINE",
"599.13 201.22 OFFCURVE",
"570.03 167.31 OFFCURVE",
"534.59 142.31 CURVE SMOOTH",
"501.17 118.73 OFFCURVE",
"462.14 103.08 OFFCURVE",
"421.64 97.41 CURVE",
"421.64 276.56 OFFCURVE",
"421.64 455.71 OFFCURVE",
"421.64 634.86 CURVE",
"426.62 632.01 OFFCURVE",
"431.63 629.21 OFFCURVE",
"436.66 626.45 CURVE SMOOTH",
"471.31 607.43 OFFCURVE",
"507.1 590.48 OFFCURVE",
"543.76 575.7 CURVE",
"662.7 699.93 LINE",
"654.52 709.57 LINE",
"622.97 683.39 LINE",
"600.18 690.55 OFFCURVE",
"577.83 699.13 OFFCURVE",
"556.09 709.04 CURVE SMOOTH",
"520.05 725.48 OFFCURVE",
"485.7 745.62 OFFCURVE",
"453.76 769.04 CURVE",
"453.76 769.04 LINE",
"453.76 769.04 LINE",
"189.64 607.69 LINE",
"215.8 650.07 OFFCURVE",
"253.04 685.66 OFFCURVE",
"297.28 708.5 CURVE"
);
},
{
closed = 1;
nodes = (
"164.46 249.07 LINE",
"157.14 266.79 OFFCURVE",
"151.49 285.24 OFFCURVE",
"147.36 303.94 CURVE SMOOTH",
"137.58 348.3 OFFCURVE",
"135.65 394.21 OFFCURVE",
"139.28 439.49 CURVE SMOOTH",
"142.56 480.43 OFFCURVE",
"150.62 521.31 OFFCURVE",
"165.66 559.44 CURVE",
"219.28 592.2 LINE",
"219.28 485.61 OFFCURVE",
"219.28 379.02 OFFCURVE",
"219.28 272.42 CURVE"
);
},
{
closed = 1;
nodes = (
"348.28 297.48 LINE",
"348.34 671.04 LINE",
"356.07 675.76 LINE",
"368.2 667.53 OFFCURVE",
"380.5 659.56 OFFCURVE",
"392.98 651.87 CURVE",
"392.98 466.27 OFFCURVE",
"392.98 280.68 OFFCURVE",
"392.98 95.08 CURVE",
"360.71 94.36 OFFCURVE",
"328.28 100 OFFCURVE",
"298.34 112.03 CURVE SMOOTH",
"261.79 126.72 OFFCURVE",
"229.21 150.98 OFFCURVE",
"204.29 181.48 CURVE SMOOTH",
"193.3 194.93 OFFCURVE",
"183.82 209.51 OFFCURVE",
"175.76 224.87 CURVE"
);
}
);
width = 677;
}
);
note = Cdotaccent;
rightKerningGroup = A;
unicode = 010A;
},
{
color = 5;
glyphname = D;
lastChange = "2019-11-11 17:03:40 +0000";
layers = (
{
layerId = "350E41D6-91B0-4895-AA67-C01AEB764728";
paths = (
{
closed = 1;
nodes = (
"99.38 19.52 OFFCURVE",
"175.36 47.89 OFFCURVE",
"251 46 CURVE SMOOTH",
"310.04 44.52 OFFCURVE",
"368.5 24.92 OFFCURVE",
"416.5 -9.5 CURVE",
"666.5 128 LINE",
"707 210 OFFCURVE",
"734 307 OFFCURVE",
"734 402 CURVE SMOOTH",
"734 591 OFFCURVE",
"652 740 OFFCURVE",
"468 740 CURVE SMOOTH",
"175.5 740 LINE SMOOTH",
"141 740 OFFCURVE",
"109 749 OFFCURVE",
"102 784.74 CURVE",
"80.5 785.49 LINE",
"74 761 OFFCURVE",
"69 735 OFFCURVE",
"70 709 CURVE SMOOTH",
"70 661 OFFCURVE",
"89 618 OFFCURVE",
"143 617.99 CURVE SMOOTH",
"282.3 617.99 LINE",
"203.2 566.49 LINE SMOOTH",
"160 538 OFFCURVE",
"141 519 OFFCURVE",
"141.13 460.99 CURVE SMOOTH",
"141.14 435.89 LINE",
"72 428 OFFCURVE",
"25 390 OFFCURVE",
"25 329 CURVE SMOOTH",
"25 304 OFFCURVE",
"29 287 OFFCURVE",
"40.52 267.14 CURVE",
"61 267 LINE",
"60 270 OFFCURVE",
"59 275 OFFCURVE",
"59 283 CURVE SMOOTH",
"59 305 OFFCURVE",
"81 325 OFFCURVE",
"109 325 CURVE SMOOTH",
"141.18 324.98 LINE",
"141 232 OFFCURVE",
"138 175 OFFCURVE",
"80.09 142.31 CURVE",
"89.42 118.33 LINE",
"195 146 OFFCURVE",
"270 222 OFFCURVE",
"270 307 CURVE SMOOTH",
"270.24 507 LINE SMOOTH",
"270 559 OFFCURVE",
"280 583 OFFCURVE",
"318.28 618 CURVE",
"350.69 618 LINE",
"313 577 OFFCURVE",
"306 531 OFFCURVE",
"305.78 471.01 CURVE SMOOTH",
"305.71 291 LINE SMOOTH",
"306 250 OFFCURVE",
"300 226 OFFCURVE",
"272 195 CURVE SMOOTH",
"221 140 LINE",
"134 113 OFFCURVE",
"57.73 49.78 OFFCURVE",
"15 -31.5 CURVE",
"43.5 -31.5 LINE"
);
},
{
closed = 1;
nodes = (
"414.71 274.74 LINE",
"597 367 LINE",
"595 270 OFFCURVE",
"576 171 OFFCURVE",
"540.5 82.98 CURVE",
"503.31 111.71 OFFCURVE",
"460.17 132.31 OFFCURVE",
"414.71 144.11 CURVE"
);
},
{
closed = 1;
nodes = (
"415 618 LINE",
"497 617 OFFCURVE",
"553 585 OFFCURVE",
"579.67 499.1 CURVE",
"415 416 LINE"
);
},
{
closed = 1;
nodes = (
"364 154 OFFCURVE",
"343 156 OFFCURVE",
"321 156 CURVE SMOOTH",
"304 156 OFFCURVE",
"288 154 OFFCURVE",
"271.64 151.89 CURVE",
"315 199 OFFCURVE",
"334 228 OFFCURVE",
"333.71 290.99 CURVE SMOOTH",
"333.78 470.98 LINE SMOOTH",
"334 527 OFFCURVE",
"340 577 OFFCURVE",
"386.05 612.53 CURVE",
"386.05 150.34 LINE"
);
},
{
closed = 1;
nodes = (
"415 384 LINE",
"587 471 LINE",
"591 455 OFFCURVE",
"596 423 OFFCURVE",
"596 399 CURVE",
"415 307 LINE"
);
}
);
width = 747;
},
{
associatedMasterId = "350E41D6-91B0-4895-AA67-C01AEB764728";
layerId = "7F65C9FF-0880-4EB0-BF8D-B873C24F8FD6";
name = "Nov 11 19, 11:51";
paths = (
{
closed = 1;
nodes = (
"89.42 118.33 LINE",
"148.69 133.18 OFFCURVE",
"205.12 165.95 OFFCURVE",
"240.17 216 CURVE SMOOTH",
"251.37 232 OFFCURVE",
"259.95 249.9 OFFCURVE",
"264.74 268.83 CURVE SMOOTH",
"269.53 287.76 OFFCURVE",
"270.17 307.47 OFFCURVE",
"270.17 327 CURVE SMOOTH",
"270.17 429 LINE",
"270.24 507 LINE SMOOTH",
"270.26 528.29 OFFCURVE",
"271.33 550.1 OFFCURVE",
"279.76 569.65 CURVE SMOOTH",
"287.99 588.74 OFFCURVE",
"302.8 604.08 OFFCURVE",
"318.28 618 CURVE",
"350.69 618 LINE",
"336.39 602.58 OFFCURVE",
"325.28 584.28 OFFCURVE",
"318.08 564.58 CURVE SMOOTH",
"306.76 533.63 OFFCURVE",
"305.8 501.29 OFFCURVE",
"305.78 471.01 CURVE SMOOTH",
"305.71 393.01 LINE",
"305.71 291 LINE SMOOTH",
"305.71 272.58 OFFCURVE",
"304.45 255.02 OFFCURVE",
"298.95 239.65 CURVE SMOOTH",
"293.34 223.96 OFFCURVE",
"283.65 209.21 OFFCURVE",
"272.23 195.16 CURVE SMOOTH",
"256.72 176.07 OFFCURVE",
"239.26 158.19 OFFCURVE",
"221.3 140.33 CURVE",
"133.69 112.91 OFFCURVE",
"57.73 49.78 OFFCURVE",
"15 -31.5 CURVE",
"43.5 -31.5 LINE",
"99.38 19.52 OFFCURVE",
"175.36 47.89 OFFCURVE",
"251 46 CURVE SMOOTH",
"310.04 44.52 OFFCURVE",
"368.5 24.92 OFFCURVE",
"416.5 -9.5 CURVE",
"666.5 128 LINE",
"683.27 162.02 OFFCURVE",
"697.01 197.54 OFFCURVE",
"707.5 234 CURVE SMOOTH",
"726.71 300.74 OFFCURVE",
"735.39 370.66 OFFCURVE",
"731.5 440 CURVE SMOOTH",
"727.45 512.1 OFFCURVE",
"709.58 585.31 OFFCURVE",
"667.5 644 CURVE SMOOTH",
"643.17 677.93 OFFCURVE",
"610.1 705.93 OFFCURVE",
"571.5 721.82 CURVE SMOOTH",
"532.9 737.71 OFFCURVE",
"490.25 740 OFFCURVE",
"448.5 740 CURVE SMOOTH",
"175.5 740 LINE SMOOTH",
"167.62 740 OFFCURVE",
"159.72 740.05 OFFCURVE",
"151.92 741.19 CURVE SMOOTH",
"144.13 742.33 OFFCURVE",
"136.45 744.57 OFFCURVE",
"129.5 748.26 CURVE SMOOTH",
"122.54 751.95 OFFCURVE",
"116.34 757.1 OFFCURVE",
"111.58 763.37 CURVE SMOOTH",
"106.82 769.64 OFFCURVE",
"103.5 777.01 OFFCURVE",
"102 784.74 CURVE",
"80.5 785.49 LINE",
"73.94 760.67 OFFCURVE",
"70.21 735 OFFCURVE",
"70.8 709.34 CURVE SMOOTH",
"71.09 696.51 OFFCURVE",
"72.53 683.65 OFFCURVE",
"75.93 671.27 CURVE SMOOTH",
"79.34 658.9 OFFCURVE",
"84.8 646.9 OFFCURVE",
"93.25 637.24 CURVE SMOOTH",
"99.32 630.29 OFFCURVE",
"107.03 624.71 OFFCURVE",
"115.71 621.57 CURVE SMOOTH",
"124.39 618.43 OFFCURVE",
"133.78 617.99 OFFCURVE",
"143 617.99 CURVE SMOOTH",
"282.3 617.99 LINE",
"203.2 566.49 LINE SMOOTH",
"185.03 554.66 OFFCURVE",
"166.63 541.89 OFFCURVE",
"155.1 523.52 CURVE SMOOTH",
"149.33 514.34 OFFCURVE",
"145.4 504.04 OFFCURVE",
"143.34 493.39 CURVE SMOOTH",
"141.28 482.74 OFFCURVE",
"141.13 471.83 OFFCURVE",
"141.13 460.99 CURVE SMOOTH",
"141.14 435.89 LINE",
"121.47 432.97 OFFCURVE",
"101.9 429.44 OFFCURVE",
"84 421.03 CURVE SMOOTH",
"69.98 414.44 OFFCURVE",
"57.35 404.8 OFFCURVE",
"47.71 392.68 CURVE SMOOTH",
"38.06 380.56 OFFCURVE",
"31.41 366.14 OFFCURVE",
"28 351.03 CURVE SMOOTH",
"21.64 322.84 OFFCURVE",
"26.46 292.4 OFFCURVE",
"40.52 267.14 CURVE",
"59.65 267.14 LINE",
"58.35 274.29 OFFCURVE",
"58.56 281.72 OFFCURVE",
"60.31 288.78 CURVE SMOOTH",
"63.25 300.68 OFFCURVE",
"70.85 311.46 OFFCURVE",
"81.39 317.72 CURVE SMOOTH",
"86.66 320.85 OFFCURVE",
"92.56 322.85 OFFCURVE",
"98.6 323.88 CURVE SMOOTH",
"104.64 324.91 OFFCURVE",
"110.8 324.98 OFFCURVE",
"116.93 324.98 CURVE SMOOTH",
"125.01 324.98 OFFCURVE",
"133.09 324.98 OFFCURVE",
"141.18 324.98 CURVE",
"141.18 324.09 OFFCURVE",
"141.18 323.2 OFFCURVE",
"141.18 322.31 CURVE SMOOTH",
"141.18 295.94 OFFCURVE",
"141.79 269.48 OFFCURVE",
"138.7 243.3 CURVE SMOOTH",
"135.62 217.12 OFFCURVE",
"127.84 190.87 OFFCURVE",
"111.76 169.98 CURVE SMOOTH",
"103.15 158.8 OFFCURVE",
"92.34 149.31 OFFCURVE",
"80.09 142.31 CURVE"
);
},
{
closed = 1;
nodes = (
"414.71 187.65 OFFCURVE",
"414.71 231.19 OFFCURVE",
"414.71 274.74 CURVE",
"596.7 366.99 LINE",
"596.46 325.63 OFFCURVE",
"592.35 284.28 OFFCURVE",
"585.5 243.48 CURVE SMOOTH",
"576.28 188.58 OFFCURVE",
"561.23 134.65 OFFCURVE",
"540.5 82.98 CURVE",
"503.31 111.71 OFFCURVE",
"460.17 132.31 OFFCURVE",
"414.71 144.11 CURVE"
);
},
{
closed = 1;
nodes = (
"437.38 617.75 OFFCURVE",
"460.23 616.26 OFFCURVE",
"481.59 608.82 CURVE SMOOTH",
"504.9 600.7 OFFCURVE",
"525.77 586.07 OFFCURVE",
"542 567.48 CURVE SMOOTH",
"559.23 547.75 OFFCURVE",
"571.42 524 OFFCURVE",
"579.67 499.1 CURVE",
"414.71 415.73 LINE",
"414.71 483.14 OFFCURVE",
"414.71 550.55 OFFCURVE",
"414.71 617.96 CURVE"
);
},
{
closed = 1;
nodes = (
"348.29 156.94 OFFCURVE",
"309.5 157.58 OFFCURVE",
"271.64 151.89 CURVE",
"279.29 160.15 OFFCURVE",
"286.77 168.65 OFFCURVE",
"293.96 177.49 CURVE SMOOTH",
"306.46 192.88 OFFCURVE",
"318.15 210.18 OFFCURVE",
"325.31 230.21 CURVE SMOOTH",
"332.59 250.56 OFFCURVE",
"333.71 271.48 OFFCURVE",
"333.71 290.99 CURVE SMOOTH",
"333.71 392.98 LINE",
"333.78 470.98 LINE SMOOTH",
"333.8 500.71 OFFCURVE",
"335.09 529.54 OFFCURVE",
"344.38 554.96 CURVE SMOOTH",
"352.65 577.58 OFFCURVE",
"367.24 597.94 OFFCURVE",
"386.05 612.53 CURVE",
"386.05 458.47 OFFCURVE",
"386.05 304.4 OFFCURVE",
"386.05 150.34 CURVE"
);
},
{
closed = 1;
nodes = (
"414.71 383.63 LINE",
"587.37 470.89 LINE",
"591.77 450.89 OFFCURVE",
"594.22 430.45 OFFCURVE",
"595.5 410 CURVE SMOOTH",
"595.73 406.28 OFFCURVE",
"595.93 402.56 OFFCURVE",
"596.1 398.84 CURVE",
"414.71 306.89 LINE"
);
}
);
width = 747;
}
);
note = D;
rightKerningGroup = A;
unicode = 0044;
},
{
glyphname = Eth;
layers = (
{
hints = (
{
horizontal = 1;
place = "{118.33, 24}";
type = Stem;
},
{
horizontal = 1;
place = "{335.08, 114.87}";
type = Stem;
},
{
horizontal = 1;
place = "{618, 122}";
type = Stem;
},
{
place = "{141.14, 129.05}";
type = Stem;
},
{
place = "{305.71, 28}";
type = Stem;
},
{
place = "{386.04, 28.67}";
type = Stem;
},
{
horizontal = 1;
place = "{322.94, 118.15}";
type = Stem;
}
);
layerId = "350E41D6-91B0-4895-AA67-C01AEB764728";
paths = (
{
closed = 1;
nodes = (
"89.42 118.33 LINE",
"148.69 133.18 OFFCURVE",
"205.12 165.95 OFFCURVE",
"240.17 216 CURVE SMOOTH",
"251.37 232 OFFCURVE",
"259.95 249.9 OFFCURVE",
"264.74 268.83 CURVE SMOOTH",
"269.53 287.76 OFFCURVE",
"270.17 307.47 OFFCURVE",
"270.17 327 CURVE SMOOTH",
"270.17 329.69 OFFCURVE",
"270.17 332.39 OFFCURVE",
"270.17 335.08 CURVE",
"305.71 337.42 LINE",
"305.71 321.95 OFFCURVE",
"305.71 306.48 OFFCURVE",
"305.71 291 CURVE SMOOTH",
"305.71 272.58 OFFCURVE",
"304.45 255.02 OFFCURVE",
"298.95 239.65 CURVE SMOOTH",
"293.34 223.96 OFFCURVE",
"283.65 209.21 OFFCURVE",
"272.23 195.16 CURVE SMOOTH",
"256.72 176.07 OFFCURVE",
"239.26 158.19 OFFCURVE",
"221.3 140.33 CURVE",
"133.69 112.91 OFFCURVE",
"57.73 49.78 OFFCURVE",
"15 -31.5 CURVE",
"43.5 -31.5 LINE",
"99.38 19.52 OFFCURVE",
"175.36 47.89 OFFCURVE",
"251 46 CURVE SMOOTH",
"310.04 44.52 OFFCURVE",
"368.5 24.92 OFFCURVE",
"416.5 -9.5 CURVE",
"666.5 128 LINE",
"683.27 162.02 OFFCURVE",
"697.01 197.54 OFFCURVE",
"707.5 234 CURVE SMOOTH",
"726.71 300.74 OFFCURVE",
"735.39 370.66 OFFCURVE",
"731.5 440 CURVE SMOOTH",
"727.45 512.1 OFFCURVE",
"709.58 585.31 OFFCURVE",
"667.5 644 CURVE SMOOTH",
"643.17 677.93 OFFCURVE",
"610.1 705.93 OFFCURVE",
"571.5 721.82 CURVE SMOOTH",
"532.9 737.71 OFFCURVE",
"490.25 740 OFFCURVE",
"448.5 740 CURVE SMOOTH",
"175.5 740 LINE SMOOTH",
"167.62 740 OFFCURVE",
"159.72 740.05 OFFCURVE",
"151.92 741.19 CURVE SMOOTH",
"144.13 742.33 OFFCURVE",
"136.45 744.57 OFFCURVE",
"129.5 748.26 CURVE SMOOTH",
"122.54 751.95 OFFCURVE",
"116.34 757.1 OFFCURVE",
"111.58 763.37 CURVE SMOOTH",
"106.82 769.64 OFFCURVE",
"103.5 777.01 OFFCURVE",
"102 784.74 CURVE",
"80.5 785.49 LINE",
"73.94 760.67 OFFCURVE",
"70.21 735 OFFCURVE",
"70.8 709.34 CURVE SMOOTH",
"71.09 696.51 OFFCURVE",
"72.53 683.65 OFFCURVE",
"75.93 671.27 CURVE SMOOTH",
"79.34 658.9 OFFCURVE",
"84.8 646.9 OFFCURVE",
"93.25 637.24 CURVE SMOOTH",
"99.32 630.29 OFFCURVE",
"107.03 624.71 OFFCURVE",
"115.71 621.57 CURVE SMOOTH",
"124.39 618.43 OFFCURVE",
"133.78 617.99 OFFCURVE",
"143 617.99 CURVE SMOOTH",
"282.3 617.99 LINE",
"203.2 566.49 LINE SMOOTH",
"185.03 554.66 OFFCURVE",
"166.63 541.89 OFFCURVE",
"155.1 523.52 CURVE SMOOTH",
"149.33 514.34 OFFCURVE",
"145.4 504.04 OFFCURVE",
"143.34 493.39 CURVE SMOOTH",
"141.28 482.74 OFFCURVE",
"141.13 471.83 OFFCURVE",
"141.13 460.99 CURVE SMOOTH",
"141.13 454.35 OFFCURVE",
"141.14 447.71 OFFCURVE",
"141.14 441.08 CURVE",
"121.06 437.37 OFFCURVE",
"101.61 431.26 OFFCURVE",
"84 421.04 CURVE SMOOTH",
"57.49 405.66 OFFCURVE",
"36.15 380.59 OFFCURVE",
"28 351.04 CURVE SMOOTH",
"20.26 322.97 OFFCURVE",
"24.81 291.67 OFFCURVE",
"40.52 267.16 CURVE",
"59.65 267.16 LINE",
"58.17 274.29 OFFCURVE",
"58.39 281.77 OFFCURVE",
"60.31 288.8 CURVE SMOOTH",
"63.49 300.46 OFFCURVE",
"71.52 310.67 OFFCURVE",
"82 316.69 CURVE SMOOTH",
"87.24 319.7 OFFCURVE",
"93.02 321.71 OFFCURVE",
"98.94 322.93 CURVE SMOOTH",
"104.86 324.15 OFFCURVE",
"110.91 324.59 OFFCURVE",
"116.94 324.99 CURVE SMOOTH",
"141.19 326.59 LINE",
"141.19 325.17 OFFCURVE",
"141.19 323.75 OFFCURVE",
"141.19 322.33 CURVE SMOOTH",
"141.19 295.96 OFFCURVE",
"141.8 269.5 OFFCURVE",
"138.71 243.32 CURVE SMOOTH",
"135.63 217.14 OFFCURVE",
"127.85 190.89 OFFCURVE",
"111.77 170 CURVE SMOOTH",
"103.16 158.82 OFFCURVE",
"92.35 149.33 OFFCURVE",
"80.1 142.33 CURVE"
);
},
{
closed = 1;
nodes = (
"270.25 507 LINE SMOOTH",
"270.27 528.29 OFFCURVE",
"271.34 550.1 OFFCURVE",
"279.77 569.65 CURVE SMOOTH",
"288 588.74 OFFCURVE",
"302.81 604.08 OFFCURVE",
"318.29 618 CURVE",
"350.7 618 LINE",
"336.4 602.58 OFFCURVE",
"325.29 584.28 OFFCURVE",
"318.09 564.58 CURVE SMOOTH",
"306.77 533.63 OFFCURVE",
"305.81 501.29 OFFCURVE",
"305.79 471.01 CURVE SMOOTH",
"305.78 454.29 LINE",
"302.68 453.77 OFFCURVE",
"299.58 453.29 OFFCURVE",
"296.47 452.85 CURVE SMOOTH",
"287.75 451.6 OFFCURVE",
"278.99 450.67 OFFCURVE",
"270.21 449.96 CURVE"
);
},
{
closed = 1;
nodes = (
"414.73 187.68 OFFCURVE",
"414.73 231.22 OFFCURVE",
"414.73 274.77 CURVE",
"596.72 367.02 LINE",
"596.48 325.66 OFFCURVE",
"592.37 284.31 OFFCURVE",
"585.52 243.51 CURVE SMOOTH",
"576.3 188.61 OFFCURVE",
"561.25 134.68 OFFCURVE",
"540.52 83.01 CURVE",
"503.33 111.74 OFFCURVE",
"460.19 132.34 OFFCURVE",
"414.73 144.14 CURVE"
);
},
{
closed = 1;
nodes = (
"437.4 617.78 OFFCURVE",
"460.25 616.29 OFFCURVE",
"481.61 608.85 CURVE SMOOTH",
"504.92 600.73 OFFCURVE",
"525.79 586.1 OFFCURVE",
"542.02 567.51 CURVE SMOOTH",
"559.25 547.78 OFFCURVE",
"571.44 524.03 OFFCURVE",
"579.69 499.13 CURVE",
"414.73 415.76 LINE",
"414.73 483.17 OFFCURVE",
"414.73 550.58 OFFCURVE",
"414.73 617.99 CURVE"
);
},
{
closed = 1;
nodes = (
"348.31 156.97 OFFCURVE",
"309.52 157.61 OFFCURVE",
"271.66 151.92 CURVE",
"279.31 160.18 OFFCURVE",
"286.79 168.68 OFFCURVE",
"293.98 177.52 CURVE SMOOTH",
"306.48 192.91 OFFCURVE",
"318.17 210.21 OFFCURVE",
"325.33 230.24 CURVE SMOOTH",
"332.61 250.59 OFFCURVE",
"333.73 271.51 OFFCURVE",
"333.73 291.02 CURVE SMOOTH",
"333.73 393.01 LINE",
"333.8 471.01 LINE SMOOTH",
"333.82 500.74 OFFCURVE",
"335.11 529.57 OFFCURVE",
"344.4 554.99 CURVE SMOOTH",
"352.67 577.61 OFFCURVE",
"367.26 597.97 OFFCURVE",
"386.07 612.56 CURVE",
"386.07 458.5 OFFCURVE",
"386.07 304.43 OFFCURVE",
"386.07 150.37 CURVE"
);
},
{
closed = 1;
nodes = (
"414.73 383.66 LINE",
"587.39 470.92 LINE",
"591.79 450.92 OFFCURVE",
"594.24 430.48 OFFCURVE",
"595.52 410.03 CURVE SMOOTH",
"595.75 406.31 OFFCURVE",
"595.95 402.59 OFFCURVE",
"596.12 398.87 CURVE",
"414.73 306.92 LINE"
);
}
);
width = 747;
}
);
note = Eth;
unicode = 00D0;
},
{
glyphname = Dcaron;
layers = (
{
layerId = "350E41D6-91B0-4895-AA67-C01AEB764728";
paths = (
{
closed = 1;
nodes = (
"612.9 1059.37 LINE",
"611.6 1020.59 LINE",
"412.36 818.45 LINE",
"406.77 822.75 LINE",
"405.63 823.8 LINE",
"236.14 980.11 LINE",
"286.64 1059.36 LINE",
"292.23 1055.06 LINE",
"457.73 902.42 LINE"
);
},
{
closed = 1;
nodes = (
"89.41 118.32 LINE",
"148.68 133.17 OFFCURVE",
"205.11 165.94 OFFCURVE",
"240.16 215.99 CURVE SMOOTH",
"251.36 231.99 OFFCURVE",
"259.94 249.89 OFFCURVE",
"264.73 268.82 CURVE SMOOTH",
"269.52 287.75 OFFCURVE",
"270.16 307.46 OFFCURVE",
"270.16 326.99 CURVE SMOOTH",
"270.16 428.99 LINE",
"270.23 506.99 LINE SMOOTH",
"270.25 528.28 OFFCURVE",
"271.32 550.09 OFFCURVE",
"279.75 569.64 CURVE SMOOTH",
"287.98 588.73 OFFCURVE",
"302.79 604.07 OFFCURVE",
"318.27 617.99 CURVE",
"350.68 617.99 LINE",
"336.38 602.57 OFFCURVE",
"325.27 584.27 OFFCURVE",
"318.07 564.57 CURVE SMOOTH",
"306.75 533.62 OFFCURVE",
"305.79 501.28 OFFCURVE",
"305.77 471 CURVE SMOOTH",
"305.7 393 LINE",
"305.7 290.99 LINE SMOOTH",
"305.7 272.57 OFFCURVE",
"304.44 255.01 OFFCURVE",
"298.94 239.64 CURVE SMOOTH",
"293.33 223.95 OFFCURVE",
"283.64 209.2 OFFCURVE",
"272.22 195.15 CURVE SMOOTH",
"256.71 176.06 OFFCURVE",
"239.25 158.18 OFFCURVE",
"221.29 140.32 CURVE",
"133.68 112.9 OFFCURVE",
"57.72 49.77 OFFCURVE",
"14.99 -31.51 CURVE",
"43.49 -31.51 LINE",
"99.37 19.51 OFFCURVE",
"175.35 47.88 OFFCURVE",
"250.99 45.99 CURVE SMOOTH",
"310.03 44.51 OFFCURVE",
"368.49 24.91 OFFCURVE",
"416.49 -9.51 CURVE",
"666.49 127.99 LINE",
"683.26 162.01 OFFCURVE",
"697 197.53 OFFCURVE",
"707.49 233.99 CURVE SMOOTH",
"726.7 300.73 OFFCURVE",
"735.38 370.65 OFFCURVE",
"731.49 439.99 CURVE SMOOTH",
"727.44 512.09 OFFCURVE",
"709.57 585.3 OFFCURVE",
"667.49 643.99 CURVE SMOOTH",
"643.16 677.92 OFFCURVE",
"610.09 705.92 OFFCURVE",
"571.49 721.81 CURVE SMOOTH",
"532.89 737.7 OFFCURVE",
"490.24 739.99 OFFCURVE",
"448.49 739.99 CURVE SMOOTH",
"175.49 739.99 LINE SMOOTH",
"167.61 739.99 OFFCURVE",
"159.71 740.04 OFFCURVE",
"151.91 741.18 CURVE SMOOTH",
"144.12 742.32 OFFCURVE",
"136.44 744.56 OFFCURVE",
"129.49 748.25 CURVE SMOOTH",
"122.53 751.94 OFFCURVE",
"116.33 757.09 OFFCURVE",
"111.57 763.36 CURVE SMOOTH",
"106.81 769.63 OFFCURVE",
"103.49 777 OFFCURVE",
"101.99 784.73 CURVE",
"80.49 785.48 LINE",
"73.93 760.66 OFFCURVE",
"70.2 734.99 OFFCURVE",
"70.79 709.33 CURVE SMOOTH",
"71.08 696.5 OFFCURVE",
"72.52 683.64 OFFCURVE",
"75.92 671.26 CURVE SMOOTH",
"79.33 658.89 OFFCURVE",
"84.79 646.89 OFFCURVE",
"93.24 637.23 CURVE SMOOTH",
"99.31 630.28 OFFCURVE",
"107.02 624.7 OFFCURVE",
"115.7 621.56 CURVE SMOOTH",
"124.38 618.42 OFFCURVE",
"133.77 617.98 OFFCURVE",
"142.99 617.98 CURVE SMOOTH",
"282.29 617.98 LINE",
"203.19 566.48 LINE SMOOTH",
"185.02 554.65 OFFCURVE",
"166.62 541.88 OFFCURVE",
"155.09 523.51 CURVE SMOOTH",
"149.32 514.33 OFFCURVE",
"145.39 504.03 OFFCURVE",
"143.33 493.38 CURVE SMOOTH",
"141.27 482.73 OFFCURVE",
"141.12 471.82 OFFCURVE",
"141.12 460.98 CURVE SMOOTH",
"141.13 435.88 LINE",
"121.46 432.96 OFFCURVE",
"101.89 429.43 OFFCURVE",
"83.99 421.02 CURVE SMOOTH",
"69.97 414.43 OFFCURVE",
"57.34 404.79 OFFCURVE",
"47.7 392.67 CURVE SMOOTH",
"38.05 380.55 OFFCURVE",
"31.4 366.13 OFFCURVE",
"27.99 351.02 CURVE SMOOTH",
"21.63 322.83 OFFCURVE",
"26.45 292.39 OFFCURVE",
"40.51 267.13 CURVE",
"59.64 267.13 LINE",
"58.34 274.28 OFFCURVE",
"58.55 281.71 OFFCURVE",
"60.3 288.77 CURVE SMOOTH",
"63.24 300.67 OFFCURVE",
"70.84 311.45 OFFCURVE",
"81.38 317.71 CURVE SMOOTH",
"86.65 320.84 OFFCURVE",
"92.55 322.84 OFFCURVE",
"98.59 323.87 CURVE SMOOTH",
"104.63 324.9 OFFCURVE",
"110.79 324.97 OFFCURVE",
"116.92 324.97 CURVE SMOOTH",
"125 324.97 OFFCURVE",
"133.08 324.97 OFFCURVE",
"141.17 324.97 CURVE",
"141.17 324.08 OFFCURVE",
"141.17 323.19 OFFCURVE",
"141.17 322.3 CURVE SMOOTH",
"141.17 295.93 OFFCURVE",
"141.78 269.47 OFFCURVE",
"138.69 243.29 CURVE SMOOTH",
"135.61 217.11 OFFCURVE",
"127.83 190.86 OFFCURVE",
"111.75 169.97 CURVE SMOOTH",
"103.14 158.79 OFFCURVE",
"92.33 149.3 OFFCURVE",
"80.08 142.3 CURVE"
);
},
{
closed = 1;
nodes = (
"414.7 187.64 OFFCURVE",
"414.7 231.18 OFFCURVE",
"414.7 274.73 CURVE",
"596.69 366.98 LINE",
"596.45 325.62 OFFCURVE",
"592.34 284.27 OFFCURVE",
"585.49 243.47 CURVE SMOOTH",
"576.27 188.57 OFFCURVE",
"561.22 134.64 OFFCURVE",
"540.49 82.97 CURVE",
"503.3 111.7 OFFCURVE",
"460.16 132.3 OFFCURVE",
"414.7 144.1 CURVE"
);
},
{
closed = 1;
nodes = (
"437.37 617.74 OFFCURVE",
"460.22 616.25 OFFCURVE",
"481.58 608.81 CURVE SMOOTH",
"504.89 600.69 OFFCURVE",
"525.76 586.06 OFFCURVE",
"541.99 567.47 CURVE SMOOTH",
"559.22 547.74 OFFCURVE",
"571.41 523.99 OFFCURVE",
"579.66 499.09 CURVE",
"414.7 415.72 LINE",
"414.7 483.13 OFFCURVE",
"414.7 550.54 OFFCURVE",
"414.7 617.95 CURVE"
);
},
{
closed = 1;
nodes = (
"348.28 156.93 OFFCURVE",
"309.49 157.57 OFFCURVE",
"271.63 151.88 CURVE",
"279.28 160.14 OFFCURVE",
"286.76 168.64 OFFCURVE",
"293.95 177.48 CURVE SMOOTH",
"306.45 192.87 OFFCURVE",
"318.14 210.17 OFFCURVE",
"325.3 230.2 CURVE SMOOTH",
"332.58 250.55 OFFCURVE",
"333.7 271.47 OFFCURVE",
"333.7 290.98 CURVE SMOOTH",
"333.7 392.97 LINE",
"333.77 470.97 LINE SMOOTH",
"333.79 500.7 OFFCURVE",
"335.08 529.53 OFFCURVE",
"344.37 554.95 CURVE SMOOTH",
"352.64 577.57 OFFCURVE",
"367.23 597.93 OFFCURVE",
"386.04 612.52 CURVE",
"386.04 458.46 OFFCURVE",
"386.04 304.39 OFFCURVE",
"386.04 150.33 CURVE"
);
},
{
closed = 1;
nodes = (
"414.7 383.62 LINE",
"587.36 470.88 LINE",
"591.76 450.88 OFFCURVE",
"594.21 430.44 OFFCURVE",
"595.49 409.99 CURVE SMOOTH",
"595.72 406.27 OFFCURVE",
"595.92 402.55 OFFCURVE",
"596.09 398.83 CURVE",
"414.7 306.88 LINE"
);
}
);
width = 747;
}
);
note = Dcaron;
rightKerningGroup = A;
unicode = 010E;
},
{
glyphname = Dcroat;
layers = (
{
hints = (
{
horizontal = 1;
place = "{118.33, 24}";
type = Stem;
},
{
horizontal = 1;
place = "{335.08, 114.87}";
type = Stem;
},
{
horizontal = 1;
place = "{618, 122}";
type = Stem;
},
{
place = "{141.14, 129.05}";
type = Stem;
},
{
place = "{305.71, 28}";
type = Stem;
},
{
place = "{386.04, 28.67}";
type = Stem;
},
{
horizontal = 1;
place = "{322.94, 118.15}";
type = Stem;
}
);
layerId = "350E41D6-91B0-4895-AA67-C01AEB764728";
paths = (
{
closed = 1;
nodes = (
"89.42 118.33 LINE",
"148.69 133.18 OFFCURVE",
"205.12 165.95 OFFCURVE",
"240.17 216 CURVE SMOOTH",
"251.37 232 OFFCURVE",
"259.95 249.9 OFFCURVE",
"264.74 268.83 CURVE SMOOTH",
"269.53 287.76 OFFCURVE",
"270.17 307.47 OFFCURVE",
"270.17 327 CURVE SMOOTH",
"270.17 329.69 OFFCURVE",
"270.17 332.39 OFFCURVE",
"270.17 335.08 CURVE",
"305.71 337.42 LINE",
"305.71 321.95 OFFCURVE",
"305.71 306.48 OFFCURVE",
"305.71 291 CURVE SMOOTH",
"305.71 272.58 OFFCURVE",
"304.45 255.02 OFFCURVE",
"298.95 239.65 CURVE SMOOTH",
"293.34 223.96 OFFCURVE",
"283.65 209.21 OFFCURVE",
"272.23 195.16 CURVE SMOOTH",
"256.72 176.07 OFFCURVE",
"239.26 158.19 OFFCURVE",
"221.3 140.33 CURVE",
"133.69 112.91 OFFCURVE",
"57.73 49.78 OFFCURVE",
"15 -31.5 CURVE",
"43.5 -31.5 LINE",
"99.38 19.52 OFFCURVE",
"175.36 47.89 OFFCURVE",
"251 46 CURVE SMOOTH",
"310.04 44.52 OFFCURVE",
"368.5 24.92 OFFCURVE",
"416.5 -9.5 CURVE",
"666.5 128 LINE",
"683.27 162.02 OFFCURVE",
"697.01 197.54 OFFCURVE",
"707.5 234 CURVE SMOOTH",
"726.71 300.74 OFFCURVE",
"735.39 370.66 OFFCURVE",
"731.5 440 CURVE SMOOTH",
"727.45 512.1 OFFCURVE",
"709.58 585.31 OFFCURVE",
"667.5 644 CURVE SMOOTH",
"643.17 677.93 OFFCURVE",
"610.1 705.93 OFFCURVE",
"571.5 721.82 CURVE SMOOTH",
"532.9 737.71 OFFCURVE",
"490.25 740 OFFCURVE",
"448.5 740 CURVE SMOOTH",
"175.5 740 LINE SMOOTH",
"167.62 740 OFFCURVE",
"159.72 740.05 OFFCURVE",
"151.92 741.19 CURVE SMOOTH",
"144.13 742.33 OFFCURVE",
"136.45 744.57 OFFCURVE",
"129.5 748.26 CURVE SMOOTH",
"122.54 751.95 OFFCURVE",
"116.34 757.1 OFFCURVE",
"111.58 763.37 CURVE SMOOTH",
"106.82 769.64 OFFCURVE",
"103.5 777.01 OFFCURVE",
"102 784.74 CURVE",
"80.5 785.49 LINE",
"73.94 760.67 OFFCURVE",
"70.21 735 OFFCURVE",
"70.8 709.34 CURVE SMOOTH",
"71.09 696.51 OFFCURVE",
"72.53 683.65 OFFCURVE",
"75.93 671.27 CURVE SMOOTH",
"79.34 658.9 OFFCURVE",
"84.8 646.9 OFFCURVE",
"93.25 637.24 CURVE SMOOTH",
"99.32 630.29 OFFCURVE",
"107.03 624.71 OFFCURVE",
"115.71 621.57 CURVE SMOOTH",
"124.39 618.43 OFFCURVE",
"133.78 617.99 OFFCURVE",
"143 617.99 CURVE SMOOTH",
"282.3 617.99 LINE",
"203.2 566.49 LINE SMOOTH",
"185.03 554.66 OFFCURVE",
"166.63 541.89 OFFCURVE",
"155.1 523.52 CURVE SMOOTH",
"149.33 514.34 OFFCURVE",
"145.4 504.04 OFFCURVE",
"143.34 493.39 CURVE SMOOTH",
"141.28 482.74 OFFCURVE",
"141.13 471.83 OFFCURVE",
"141.13 460.99 CURVE SMOOTH",
"141.13 454.35 OFFCURVE",
"141.14 447.71 OFFCURVE",
"141.14 441.08 CURVE",
"121.06 437.37 OFFCURVE",
"101.61 431.26 OFFCURVE",
"84 421.04 CURVE SMOOTH",
"57.49 405.66 OFFCURVE",
"36.15 380.59 OFFCURVE",
"28 351.04 CURVE SMOOTH",
"20.26 322.97 OFFCURVE",
"24.81 291.67 OFFCURVE",
"40.52 267.16 CURVE",
"59.65 267.16 LINE",
"58.17 274.29 OFFCURVE",
"58.39 281.77 OFFCURVE",
"60.31 288.8 CURVE SMOOTH",
"63.49 300.46 OFFCURVE",
"71.52 310.67 OFFCURVE",
"82 316.69 CURVE SMOOTH",
"87.24 319.7 OFFCURVE",
"93.02 321.71 OFFCURVE",
"98.94 322.93 CURVE SMOOTH",
"104.86 324.15 OFFCURVE",
"110.91 324.6 OFFCURVE",
"116.94 324.99 CURVE SMOOTH",
"141.19 326.59 LINE",
"141.19 325.17 OFFCURVE",
"141.19 323.75 OFFCURVE",
"141.19 322.33 CURVE SMOOTH",
"141.19 295.96 OFFCURVE",
"141.8 269.5 OFFCURVE",
"138.71 243.32 CURVE SMOOTH",
"135.63 217.14 OFFCURVE",
"127.85 190.89 OFFCURVE",
"111.77 170 CURVE SMOOTH",
"103.16 158.82 OFFCURVE",
"92.35 149.33 OFFCURVE",
"80.1 142.33 CURVE"
);
},
{
closed = 1;
nodes = (
"270.25 507 LINE SMOOTH",
"270.27 528.29 OFFCURVE",
"271.34 550.1 OFFCURVE",
"279.77 569.65 CURVE SMOOTH",
"288 588.74 OFFCURVE",
"302.81 604.08 OFFCURVE",
"318.29 618 CURVE",
"350.7 618 LINE",
"336.4 602.58 OFFCURVE",
"325.29 584.28 OFFCURVE",
"318.09 564.58 CURVE SMOOTH",
"306.77 533.63 OFFCURVE",
"305.81 501.29 OFFCURVE",
"305.79 471.01 CURVE SMOOTH",
"305.78 454.29 LINE",
"302.68 453.77 OFFCURVE",
"299.58 453.29 OFFCURVE",
"296.47 452.85 CURVE SMOOTH",
"287.75 451.6 OFFCURVE",
"278.99 450.67 OFFCURVE",
"270.21 449.96 CURVE"
);
},
{
closed = 1;
nodes = (
"414.73 187.68 OFFCURVE",
"414.73 231.22 OFFCURVE",
"414.73 274.77 CURVE",
"596.72 367.02 LINE",
"596.48 325.66 OFFCURVE",
"592.37 284.31 OFFCURVE",
"585.52 243.51 CURVE SMOOTH",
"576.3 188.61 OFFCURVE",
"561.25 134.68 OFFCURVE",
"540.52 83.01 CURVE",
"503.33 111.74 OFFCURVE",
"460.19 132.34 OFFCURVE",
"414.73 144.14 CURVE"
);
},
{
closed = 1;
nodes = (
"437.4 617.78 OFFCURVE",
"460.25 616.29 OFFCURVE",
"481.61 608.85 CURVE SMOOTH",
"504.92 600.73 OFFCURVE",
"525.79 586.1 OFFCURVE",
"542.02 567.51 CURVE SMOOTH",
"559.25 547.78 OFFCURVE",
"571.44 524.03 OFFCURVE",
"579.69 499.13 CURVE",
"414.73 415.76 LINE",
"414.73 483.17 OFFCURVE",
"414.73 550.58 OFFCURVE",
"414.73 617.99 CURVE"
);
},
{
closed = 1;
nodes = (
"348.31 156.97 OFFCURVE",
"309.52 157.61 OFFCURVE",
"271.66 151.92 CURVE",
"279.31 160.18 OFFCURVE",
"286.79 168.68 OFFCURVE",
"293.98 177.52 CURVE SMOOTH",
"306.48 192.91 OFFCURVE",
"318.17 210.21 OFFCURVE",
"325.33 230.24 CURVE SMOOTH",
"332.61 250.59 OFFCURVE",
"333.73 271.51 OFFCURVE",
"333.73 291.02 CURVE SMOOTH",
"333.73 393.01 LINE",
"333.8 471.01 LINE SMOOTH",
"333.82 500.74 OFFCURVE",
"335.11 529.57 OFFCURVE",
"344.4 554.99 CURVE SMOOTH",
"352.67 577.61 OFFCURVE",
"367.26 597.97 OFFCURVE",
"386.07 612.56 CURVE",
"386.07 458.5 OFFCURVE",
"386.07 304.43 OFFCURVE",
"386.07 150.37 CURVE"
);
},
{
closed = 1;
nodes = (
"414.73 383.66 LINE",
"587.39 470.92 LINE",
"591.79 450.92 OFFCURVE",
"594.24 430.48 OFFCURVE",
"595.52 410.03 CURVE SMOOTH",
"595.75 406.31 OFFCURVE",
"595.95 402.59 OFFCURVE",
"596.12 398.87 CURVE",
"414.73 306.92 LINE"
);
}
);
width = 747;
}
);
note = Dcroat;
unicode = 0110;
},
{
color = 5;
glyphname = E;
lastChange = "2019-11-11 17:09:01 +0000";
layers = (
{
layerId = "350E41D6-91B0-4895-AA67-C01AEB764728";
paths = (
{
closed = 1;
nodes = (
"514 -17 OFFCURVE",
"640 95 OFFCURVE",
"648 240 CURVE",
"628 240 LINE",
"588 165 OFFCURVE",
"512 110 OFFCURVE",
"422 97 CURVE",
"422 333 LINE",
"533 333 LINE",
"655 460 LINE",
"422 460 LINE",
"422 635 LINE",
"457 612 OFFCURVE",
"501 592 OFFCURVE",
"544 576 CURVE",
"663 700 LINE",
"654 710 LINE",
"623 683 LINE",
"559 705 OFFCURVE",
"508 730 OFFCURVE",
"454 769 CURVE",
"190 608 LINE",
"216 650 OFFCURVE",
"253 686 OFFCURVE",
"297 709 CURVE",
"288 723 LINE",
"128 672 OFFCURVE",
"15 525 OFFCURVE",
"15 358 CURVE SMOOTH",
"15 154 OFFCURVE",
"162 -17 OFFCURVE",
"376 -17 CURVE SMOOTH"
);
},
{
closed = 1;
nodes = (
"147 287 OFFCURVE",
"138 328 OFFCURVE",
"138 386 CURVE SMOOTH",
"138 472 OFFCURVE",
"150 518 OFFCURVE",
"166 559 CURVE",
"219 592 LINE",
"219 272 LINE",
"164 249 LINE"
);
},
{
closed = 1;
nodes = (
"298 95 OFFCURVE",
"217 144 OFFCURVE",
"176 225 CURVE",
"348 298 LINE",
"348 671 LINE",
"356 676 LINE",
"368 668 OFFCURVE",
"380 660 OFFCURVE",
"393 652 CURVE",
"393 95 LINE"
);
}
);
width = 677;
},
{
associatedMasterId = "350E41D6-91B0-4895-AA67-C01AEB764728";
layerId = "7BA12516-A4DA-4345-83C0-431720594215";
name = "Nov 11 19, 12:04";
paths = (
{
closed = 1;
nodes = (
"287.56 722.86 LINE",
"210.45 698.1 OFFCURVE",
"141.4 648.87 OFFCURVE",
"92.89 584.03 CURVE SMOOTH",
"44.38 519.18 OFFCURVE",
"16.63 438.98 OFFCURVE",
"15.07 358.01 CURVE SMOOTH",
"13.2 261 OFFCURVE",
"49.55 163.38 OFFCURVE",
"115.96 92.65 CURVE SMOOTH",
"182.38 21.92 OFFCURVE",
"279.12 -20.93 OFFCURVE",
"376.07 -16.99 CURVE SMOOTH",
"426.67 -14.94 OFFCURVE",
"476.87 -0.3 OFFCURVE",
"519.96 26.31 CURVE SMOOTH",
"563.05 52.92 OFFCURVE",
"598.76 91.55 OFFCURVE",
"621.07 137.01 CURVE SMOOTH",
"636.8 169.06 OFFCURVE",
"645.9 204.35 OFFCURVE",
"647.57 240.01 CURVE",
"628.4 240.01 LINE",
"606.96 200.78 OFFCURVE",
"576.03 166.76 OFFCURVE",
"538.95 141.78 CURVE SMOOTH",
"503.92 118.18 OFFCURVE",
"463.41 102.65 OFFCURVE",
"421.52 97.31 CURVE",
"421.52 175.88 OFFCURVE",
"421.52 254.44 OFFCURVE",
"421.52 333.01 CURVE",
"532.72 333.01 LINE",
"654.72 460.01 LINE",
"421.52 460.01 LINE",
"421.52 518.29 OFFCURVE",
"421.52 576.57 OFFCURVE",
"421.52 634.86 CURVE",
"427 632 OFFCURVE",
"432 629 OFFCURVE",
"437 626 CURVE SMOOTH",
"471 607 OFFCURVE",
"507 590 OFFCURVE",
"543.64 575.7 CURVE",
"662.58 699.93 LINE",
"654.4 709.57 LINE",
"622.86 683.39 LINE",
"600 691 OFFCURVE",
"578 699 OFFCURVE",
"556 709 CURVE SMOOTH",
"520 725 OFFCURVE",
"486 746 OFFCURVE",
"454 769 CURVE",
"454 769 LINE",
"454 769 LINE",
"189.51 607.68 LINE",
"215.65 650.09 OFFCURVE",
"252.91 685.69 OFFCURVE",
"297.17 708.5 CURVE"
);
},
{
closed = 1;
nodes = (
"164.19 249 LINE",
"157 267 OFFCURVE",
"151 285 OFFCURVE",
"147 304 CURVE SMOOTH",
"137 348 OFFCURVE",
"135 394 OFFCURVE",
"139.17 439.5 CURVE SMOOTH",
"142.49 480.44 OFFCURVE",
"150.55 521.33 OFFCURVE",
"165.57 559.47 CURVE",
"219.17 592.22 LINE",
"219.17 485.63 OFFCURVE",
"219.17 379.04 OFFCURVE",
"219.17 272.44 CURVE"
);
},
{
closed = 1;
nodes = (
"348.17 297.51 LINE",
"348.23 671.07 LINE",
"355.96 675.79 LINE",
"368.09 667.56 OFFCURVE",
"380.39 659.59 OFFCURVE",
"392.87 651.9 CURVE",
"392.87 466.37 OFFCURVE",
"392.87 280.84 OFFCURVE",
"392.87 95.32 CURVE",
"360.63 94.86 OFFCURVE",
"328.29 100.52 OFFCURVE",
"298.36 112.48 CURVE SMOOTH",
"261.83 127.08 OFFCURVE",
"229.17 151.14 OFFCURVE",
"204.17 181.51 CURVE SMOOTH",
"193.12 194.93 OFFCURVE",
"183.6 209.49 OFFCURVE",
"175.51 224.84 CURVE"
);
}
);
visible = 1;
width = 677;
}
);
note = E;
rightKerningGroup = A;
unicode = 0045;
},
{
glyphname = Eacute;
layers = (
{
layerId = "350E41D6-91B0-4895-AA67-C01AEB764728";
paths = (
{
closed = 1;
nodes = (
"524.67 959 LINE",
"473.34 998.67 LINE",
"387.67 823 LINE",
"396.34 816.33 LINE"
);
},
{
closed = 1;
nodes = (
"287.57 722.85 LINE",
"210.46 698.09 OFFCURVE",
"141.41 648.86 OFFCURVE",
"92.9 584.02 CURVE SMOOTH",
"44.39 519.17 OFFCURVE",
"16.64 438.97 OFFCURVE",
"15.08 358 CURVE SMOOTH",
"13.21 260.99 OFFCURVE",
"49.56 163.37 OFFCURVE",
"115.97 92.64 CURVE SMOOTH",
"182.39 21.91 OFFCURVE",
"279.13 -20.94 OFFCURVE",
"376.08 -17 CURVE SMOOTH",
"426.68 -14.95 OFFCURVE",
"476.88 -0.31 OFFCURVE",
"519.97 26.3 CURVE SMOOTH",
"563.06 52.91 OFFCURVE",
"598.77 91.54 OFFCURVE",
"621.08 137 CURVE SMOOTH",
"636.81 169.05 OFFCURVE",
"645.91 204.34 OFFCURVE",
"647.58 240 CURVE",
"628.41 240 LINE",
"606.97 200.77 OFFCURVE",
"576.04 166.75 OFFCURVE",
"538.96 141.77 CURVE SMOOTH",
"503.93 118.17 OFFCURVE",
"463.42 102.64 OFFCURVE",
"421.53 97.3 CURVE",
"421.53 175.87 OFFCURVE",
"421.53 254.43 OFFCURVE",
"421.53 333 CURVE",
"532.73 333 LINE",
"654.73 460 LINE",
"421.53 460 LINE",
"421.53 518.28 OFFCURVE",
"421.53 576.56 OFFCURVE",
"421.53 634.85 CURVE",
"426.51 632 OFFCURVE",
"431.52 629.2 OFFCURVE",
"436.55 626.44 CURVE SMOOTH",
"471.21 607.42 OFFCURVE",
"506.99 590.47 OFFCURVE",
"543.65 575.69 CURVE",
"662.59 699.92 LINE",
"654.41 709.56 LINE",
"622.87 683.38 LINE",
"600.08 690.54 OFFCURVE",
"577.73 699.12 OFFCURVE",
"555.99 709.03 CURVE SMOOTH",
"519.95 725.47 OFFCURVE",
"485.6 745.61 OFFCURVE",
"453.66 769.03 CURVE",
"453.66 769.03 LINE",
"453.66 769.03 LINE",
"189.52 607.67 LINE",
"215.66 650.08 OFFCURVE",
"252.92 685.68 OFFCURVE",
"297.18 708.49 CURVE"
);
},
{
closed = 1;
nodes = (
"164.2 248.99 LINE",
"156.86 266.71 OFFCURVE",
"151.2 285.16 OFFCURVE",
"147.09 303.88 CURVE SMOOTH",
"137.34 348.26 OFFCURVE",
"135.5 394.19 OFFCURVE",
"139.18 439.49 CURVE SMOOTH",
"142.5 480.43 OFFCURVE",
"150.56 521.32 OFFCURVE",
"165.58 559.46 CURVE",
"219.18 592.21 LINE",
"219.18 485.62 OFFCURVE",
"219.18 379.03 OFFCURVE",
"219.18 272.43 CURVE"
);
},
{
closed = 1;
nodes = (
"348.18 297.5 LINE",
"348.24 671.06 LINE",
"355.97 675.78 LINE",
"368.1 667.55 OFFCURVE",
"380.4 659.58 OFFCURVE",
"392.88 651.89 CURVE",
"392.88 466.36 OFFCURVE",
"392.88 280.83 OFFCURVE",
"392.88 95.31 CURVE",
"360.64 94.85 OFFCURVE",
"328.3 100.51 OFFCURVE",
"298.37 112.47 CURVE SMOOTH",
"261.84 127.07 OFFCURVE",
"229.18 151.13 OFFCURVE",
"204.18 181.5 CURVE SMOOTH",
"193.13 194.92 OFFCURVE",
"183.61 209.48 OFFCURVE",
"175.52 224.83 CURVE"
);
}
);
width = 677;
}
);
note = Eacute;
rightKerningGroup = A;
unicode = 00C9;
},
{
glyphname = Ebreve;
layers = (
{
layerId = "350E41D6-91B0-4895-AA67-C01AEB764728";
paths = (
{
closed = 1;
nodes = (
"350.34 843.24 OFFCURVE",
"317.81 867.7 OFFCURVE",
"294.82 899 CURVE",
"362.82 959 LINE",
"372.26 945.75 OFFCURVE",
"384.45 934.49 OFFCURVE",
"398.34 926.02 CURVE SMOOTH",
"414.62 916.09 OFFCURVE",
"433.07 909.95 OFFCURVE",
"451.92 907.09 CURVE SMOOTH",
"470.77 904.22 OFFCURVE",
"490.24 904.27 OFFCURVE",
"508.73 908.93 CURVE SMOOTH",
"518.51 911.39 OFFCURVE",
"527.99 915.29 OFFCURVE",
"536.25 921.08 CURVE SMOOTH",
"545.41 927.5 OFFCURVE",
"552.93 936.25 OFFCURVE",
"557.71 946.36 CURVE",
"583.4 933.96 LINE",
"575.78 916.94 OFFCURVE",
"566.23 900.77 OFFCURVE",
"554.81 886.02 CURVE SMOOTH",
"540.07 866.98 OFFCURVE",
"521.99 850.26 OFFCURVE",
"500.72 839 CURVE SMOOTH",
"483.49 829.88 OFFCURVE",
"464.3 824.51 OFFCURVE",
"444.84 823.33 CURVE SMOOTH",
"425.38 822.15 OFFCURVE",
"405.75 825.04 OFFCURVE",
"387.23 831.12 CURVE SMOOTH"
);
},
{
closed = 1;
nodes = (
"287.55 722.86 LINE",
"210.44 698.1 OFFCURVE",
"141.39 648.87 OFFCURVE",
"92.88 584.03 CURVE SMOOTH",
"44.37 519.18 OFFCURVE",
"16.62 438.98 OFFCURVE",
"15.06 358.01 CURVE SMOOTH",
"13.19 261 OFFCURVE",
"49.54 163.38 OFFCURVE",
"115.95 92.65 CURVE SMOOTH",
"182.37 21.92 OFFCURVE",
"279.11 -20.93 OFFCURVE",
"376.06 -16.99 CURVE SMOOTH",
"426.66 -14.94 OFFCURVE",
"476.86 -0.3 OFFCURVE",
"519.95 26.31 CURVE SMOOTH",
"563.04 52.92 OFFCURVE",
"598.75 91.55 OFFCURVE",
"621.06 137.01 CURVE SMOOTH",
"636.79 169.06 OFFCURVE",
"645.89 204.35 OFFCURVE",
"647.56 240.01 CURVE",
"628.39 240.01 LINE",
"606.95 200.78 OFFCURVE",
"576.02 166.76 OFFCURVE",
"538.94 141.78 CURVE SMOOTH",
"503.91 118.18 OFFCURVE",
"463.4 102.65 OFFCURVE",
"421.51 97.31 CURVE",
"421.51 175.88 OFFCURVE",
"421.51 254.44 OFFCURVE",
"421.51 333.01 CURVE",
"532.71 333.01 LINE",
"654.71 460.01 LINE",
"421.51 460.01 LINE",
"421.51 518.29 OFFCURVE",
"421.51 576.57 OFFCURVE",
"421.51 634.86 CURVE",
"426.49 632.01 OFFCURVE",
"431.5 629.21 OFFCURVE",
"436.53 626.45 CURVE SMOOTH",
"471.19 607.43 OFFCURVE",
"506.97 590.48 OFFCURVE",
"543.63 575.7 CURVE",
"662.57 699.93 LINE",
"654.39 709.57 LINE",
"622.85 683.39 LINE",
"600.06 690.55 OFFCURVE",
"577.71 699.13 OFFCURVE",
"555.97 709.04 CURVE SMOOTH",
"519.93 725.48 OFFCURVE",
"485.58 745.62 OFFCURVE",
"453.64 769.04 CURVE",
"453.64 769.04 LINE",
"453.64 769.04 LINE",
"189.5 607.68 LINE",
"215.64 650.09 OFFCURVE",
"252.9 685.69 OFFCURVE",
"297.16 708.5 CURVE"
);
},
{
closed = 1;
nodes = (
"164.18 249 LINE",
"156.84 266.72 OFFCURVE",
"151.18 285.17 OFFCURVE",
"147.07 303.89 CURVE SMOOTH",
"137.32 348.27 OFFCURVE",
"135.48 394.2 OFFCURVE",
"139.16 439.5 CURVE SMOOTH",
"142.48 480.44 OFFCURVE",
"150.54 521.33 OFFCURVE",
"165.56 559.47 CURVE",
"219.16 592.22 LINE",
"219.16 485.63 OFFCURVE",
"219.16 379.04 OFFCURVE",
"219.16 272.44 CURVE"
);
},
{
closed = 1;
nodes = (
"348.16 297.51 LINE",
"348.22 671.07 LINE",
"355.95 675.79 LINE",
"368.08 667.56 OFFCURVE",
"380.38 659.59 OFFCURVE",
"392.86 651.9 CURVE",
"392.86 466.37 OFFCURVE",
"392.86 280.84 OFFCURVE",
"392.86 95.32 CURVE",
"360.62 94.86 OFFCURVE",
"328.28 100.52 OFFCURVE",
"298.35 112.48 CURVE SMOOTH",
"261.82 127.08 OFFCURVE",
"229.16 151.14 OFFCURVE",
"204.16 181.51 CURVE SMOOTH",
"193.11 194.93 OFFCURVE",
"183.59 209.49 OFFCURVE",
"175.5 224.84 CURVE"
);
}
);
width = 677;
}
);
note = Ebreve;
rightKerningGroup = A;
unicode = 0114;
},
{
glyphname = Ecaron;
layers = (
{
layerId = "350E41D6-91B0-4895-AA67-C01AEB764728";
paths = (
{
closed = 1;
nodes = (
"644.9 1079.37 LINE",
"643.6 1040.59 LINE",
"444.36 838.45 LINE",
"438.77 842.75 LINE",
"437.63 843.8 LINE",
"268.14 1000.11 LINE",
"318.64 1079.36 LINE",
"324.23 1075.06 LINE",
"489.73 922.42 LINE"
);
},
{
closed = 1;
nodes = (
"287.56 722.85 LINE",
"210.45 698.09 OFFCURVE",
"141.4 648.86 OFFCURVE",
"92.89 584.02 CURVE SMOOTH",
"44.38 519.17 OFFCURVE",
"16.63 438.97 OFFCURVE",
"15.07 358 CURVE SMOOTH",
"13.2 260.99 OFFCURVE",
"49.55 163.37 OFFCURVE",
"115.96 92.64 CURVE SMOOTH",
"182.38 21.91 OFFCURVE",
"279.12 -20.94 OFFCURVE",
"376.07 -17 CURVE SMOOTH",
"426.67 -14.95 OFFCURVE",
"476.87 -0.31 OFFCURVE",
"519.96 26.3 CURVE SMOOTH",
"563.05 52.91 OFFCURVE",
"598.76 91.54 OFFCURVE",
"621.07 137 CURVE SMOOTH",
"636.8 169.05 OFFCURVE",
"645.9 204.34 OFFCURVE",
"647.57 240 CURVE",
"628.4 240 LINE",
"606.96 200.77 OFFCURVE",
"576.03 166.75 OFFCURVE",
"538.95 141.77 CURVE SMOOTH",
"503.92 118.17 OFFCURVE",
"463.41 102.64 OFFCURVE",
"421.52 97.3 CURVE",
"421.52 175.87 OFFCURVE",
"421.52 254.43 OFFCURVE",
"421.52 333 CURVE",
"532.72 333 LINE",
"654.72 460 LINE",
"421.52 460 LINE",
"421.52 518.28 OFFCURVE",
"421.52 576.56 OFFCURVE",
"421.52 634.85 CURVE",
"426.5 632 OFFCURVE",
"431.51 629.2 OFFCURVE",
"436.54 626.44 CURVE SMOOTH",
"471.2 607.42 OFFCURVE",
"506.98 590.47 OFFCURVE",
"543.64 575.69 CURVE",
"662.58 699.92 LINE",
"654.4 709.56 LINE",
"622.86 683.38 LINE",
"600.07 690.54 OFFCURVE",
"577.72 699.12 OFFCURVE",
"555.98 709.03 CURVE SMOOTH",
"519.94 725.47 OFFCURVE",
"485.59 745.61 OFFCURVE",
"453.65 769.03 CURVE",
"453.65 769.03 LINE",
"453.65 769.03 LINE",
"189.51 607.67 LINE",
"215.65 650.08 OFFCURVE",
"252.91 685.68 OFFCURVE",
"297.17 708.49 CURVE"
);
},
{
closed = 1;
nodes = (
"164.19 248.99 LINE",
"156.85 266.71 OFFCURVE",
"151.19 285.16 OFFCURVE",
"147.08 303.88 CURVE SMOOTH",
"137.33 348.26 OFFCURVE",
"135.49 394.19 OFFCURVE",
"139.17 439.49 CURVE SMOOTH",
"142.49 480.43 OFFCURVE",
"150.55 521.32 OFFCURVE",
"165.57 559.46 CURVE",
"219.17 592.21 LINE",
"219.17 485.62 OFFCURVE",
"219.17 379.03 OFFCURVE",
"219.17 272.43 CURVE"
);
},
{
closed = 1;
nodes = (
"348.17 297.5 LINE",
"348.23 671.06 LINE",
"355.96 675.78 LINE",
"368.09 667.55 OFFCURVE",
"380.39 659.58 OFFCURVE",
"392.87 651.89 CURVE",
"392.87 466.36 OFFCURVE",
"392.87 280.83 OFFCURVE",
"392.87 95.31 CURVE",
"360.63 94.85 OFFCURVE",
"328.29 100.51 OFFCURVE",
"298.36 112.47 CURVE SMOOTH",
"261.83 127.07 OFFCURVE",
"229.17 151.13 OFFCURVE",
"204.17 181.5 CURVE SMOOTH",
"193.12 194.92 OFFCURVE",
"183.6 209.48 OFFCURVE",
"175.51 224.83 CURVE"
);
}
);
width = 677;
}
);
note = Ecaron;
rightKerningGroup = A;
unicode = 011A;
},
{
glyphname = Ecircumflex;
layers = (
{
layerId = "350E41D6-91B0-4895-AA67-C01AEB764728";
paths = (
{
closed = 1;
nodes = (
"248.1 818.45 LINE",
"249.4 857.23 LINE",
"448.64 1059.37 LINE",
"454.23 1055.07 LINE",
"455.37 1054.02 LINE",
"624.86 897.71 LINE",
"574.36 818.46 LINE",
"568.77 822.76 LINE",
"403.27 975.4 LINE"
);
},
{
closed = 1;
nodes = (
"287.57 722.87 LINE",
"210.46 698.11 OFFCURVE",
"141.41 648.88 OFFCURVE",
"92.9 584.04 CURVE SMOOTH",
"44.39 519.19 OFFCURVE",
"16.64 438.99 OFFCURVE",
"15.08 358.02 CURVE SMOOTH",
"13.21 261.01 OFFCURVE",
"49.56 163.39 OFFCURVE",
"115.97 92.66 CURVE SMOOTH",
"182.39 21.93 OFFCURVE",
"279.13 -20.92 OFFCURVE",
"376.08 -16.98 CURVE SMOOTH",
"426.68 -14.93 OFFCURVE",
"476.88 -0.29 OFFCURVE",
"519.97 26.32 CURVE SMOOTH",
"563.06 52.93 OFFCURVE",
"598.77 91.56 OFFCURVE",
"621.08 137.02 CURVE SMOOTH",
"636.81 169.07 OFFCURVE",
"645.91 204.36 OFFCURVE",
"647.58 240.02 CURVE",
"628.41 240.02 LINE",
"606.97 200.79 OFFCURVE",
"576.04 166.77 OFFCURVE",
"538.96 141.79 CURVE SMOOTH",
"503.93 118.19 OFFCURVE",
"463.42 102.66 OFFCURVE",
"421.53 97.32 CURVE",
"421.53 175.89 OFFCURVE",
"421.53 254.45 OFFCURVE",
"421.53 333.02 CURVE",
"532.73 333.02 LINE",
"654.73 460.02 LINE",
"421.53 460.02 LINE",
"421.53 518.3 OFFCURVE",
"421.53 576.58 OFFCURVE",
"421.53 634.87 CURVE",
"426.51 632.02 OFFCURVE",
"431.52 629.22 OFFCURVE",
"436.55 626.46 CURVE SMOOTH",
"471.21 607.44 OFFCURVE",
"506.99 590.49 OFFCURVE",
"543.65 575.71 CURVE",
"662.59 699.94 LINE",
"654.41 709.58 LINE",
"622.87 683.4 LINE",
"600.08 690.56 OFFCURVE",
"577.73 699.14 OFFCURVE",
"555.99 709.05 CURVE SMOOTH",
"519.95 725.49 OFFCURVE",
"485.6 745.63 OFFCURVE",
"453.66 769.05 CURVE",
"453.66 769.05 LINE",
"453.66 769.05 LINE",
"189.52 607.69 LINE",
"215.66 650.1 OFFCURVE",
"252.92 685.7 OFFCURVE",
"297.18 708.51 CURVE"
);
},
{
closed = 1;
nodes = (
"164.2 249.01 LINE",
"156.86 266.73 OFFCURVE",
"151.2 285.18 OFFCURVE",
"147.09 303.9 CURVE SMOOTH",
"137.34 348.28 OFFCURVE",
"135.5 394.21 OFFCURVE",
"139.18 439.51 CURVE SMOOTH",
"142.5 480.45 OFFCURVE",
"150.56 521.34 OFFCURVE",
"165.58 559.48 CURVE",
"219.18 592.23 LINE",
"219.18 485.64 OFFCURVE",
"219.18 379.05 OFFCURVE",
"219.18 272.45 CURVE"
);
},
{
closed = 1;
nodes = (
"348.18 297.52 LINE",
"348.24 671.08 LINE",
"355.97 675.8 LINE",
"368.1 667.57 OFFCURVE",
"380.4 659.6 OFFCURVE",
"392.88 651.91 CURVE",
"392.88 466.38 OFFCURVE",
"392.88 280.85 OFFCURVE",
"392.88 95.33 CURVE",
"360.64 94.87 OFFCURVE",
"328.3 100.53 OFFCURVE",
"298.37 112.49 CURVE SMOOTH",
"261.84 127.09 OFFCURVE",
"229.18 151.15 OFFCURVE",
"204.18 181.52 CURVE SMOOTH",
"193.13 194.94 OFFCURVE",
"183.61 209.5 OFFCURVE",
"175.52 224.85 CURVE"
);
}
);
width = 677;
}
);
note = Ecircumflex;
rightKerningGroup = A;
unicode = 00CA;
},
{
glyphname = Edieresis;
layers = (
{
layerId = "350E41D6-91B0-4895-AA67-C01AEB764728";
paths = (
{
closed = 1;
nodes = (
"234.88 929.47 LINE",
"326.23 838.12 LINE",
"416.11 928 LINE",
"324.76 1019.35 LINE"
);
},
{
closed = 1;
nodes = (
"464.88 929.47 LINE",
"556.23 838.12 LINE",
"646.11 928 LINE",
"554.76 1019.35 LINE"
);
},
{
closed = 1;
nodes = (
"287.57 722.86 LINE",
"210.46 698.1 OFFCURVE",
"141.41 648.87 OFFCURVE",
"92.9 584.03 CURVE SMOOTH",
"44.39 519.18 OFFCURVE",
"16.64 438.98 OFFCURVE",
"15.08 358.01 CURVE SMOOTH",
"13.21 261 OFFCURVE",
"49.56 163.38 OFFCURVE",
"115.97 92.65 CURVE SMOOTH",
"182.39 21.92 OFFCURVE",
"279.13 -20.93 OFFCURVE",
"376.08 -16.99 CURVE SMOOTH",
"426.68 -14.94 OFFCURVE",
"476.88 -0.3 OFFCURVE",
"519.97 26.31 CURVE SMOOTH",
"563.06 52.92 OFFCURVE",
"598.77 91.55 OFFCURVE",
"621.08 137.01 CURVE SMOOTH",
"636.81 169.06 OFFCURVE",
"645.91 204.35 OFFCURVE",
"647.58 240.01 CURVE",
"628.41 240.01 LINE",
"606.97 200.78 OFFCURVE",
"576.04 166.76 OFFCURVE",
"538.96 141.78 CURVE SMOOTH",
"503.93 118.18 OFFCURVE",
"463.42 102.65 OFFCURVE",
"421.53 97.31 CURVE",
"421.53 175.88 OFFCURVE",
"421.53 254.44 OFFCURVE",
"421.53 333.01 CURVE",
"532.73 333.01 LINE",
"654.73 460.01 LINE",
"421.53 460.01 LINE",
"421.53 518.29 OFFCURVE",
"421.53 576.57 OFFCURVE",
"421.53 634.86 CURVE",
"426.51 632.01 OFFCURVE",
"431.52 629.21 OFFCURVE",
"436.55 626.45 CURVE SMOOTH",
"471.21 607.43 OFFCURVE",
"506.99 590.48 OFFCURVE",
"543.65 575.7 CURVE",
"662.59 699.93 LINE",
"654.41 709.57 LINE",
"622.87 683.39 LINE",
"600.08 690.55 OFFCURVE",
"577.73 699.13 OFFCURVE",
"555.99 709.04 CURVE SMOOTH",
"519.95 725.48 OFFCURVE",
"485.6 745.62 OFFCURVE",
"453.66 769.04 CURVE",
"453.66 769.04 LINE",
"453.66 769.04 LINE",
"189.52 607.68 LINE",
"215.66 650.09 OFFCURVE",
"252.92 685.69 OFFCURVE",
"297.18 708.5 CURVE"
);
},
{
closed = 1;
nodes = (
"164.2 249 LINE",
"156.86 266.72 OFFCURVE",
"151.2 285.17 OFFCURVE",
"147.09 303.89 CURVE SMOOTH",
"137.34 348.27 OFFCURVE",
"135.5 394.2 OFFCURVE",
"139.18 439.5 CURVE SMOOTH",
"142.5 480.44 OFFCURVE",
"150.56 521.33 OFFCURVE",
"165.58 559.47 CURVE",
"219.18 592.22 LINE",
"219.18 485.63 OFFCURVE",
"219.18 379.04 OFFCURVE",
"219.18 272.44 CURVE"
);
},
{
closed = 1;
nodes = (
"348.18 297.51 LINE",
"348.24 671.07 LINE",
"355.97 675.79 LINE",
"368.1 667.56 OFFCURVE",
"380.4 659.59 OFFCURVE",
"392.88 651.9 CURVE",
"392.88 466.37 OFFCURVE",
"392.88 280.84 OFFCURVE",
"392.88 95.32 CURVE",
"360.64 94.86 OFFCURVE",
"328.3 100.52 OFFCURVE",
"298.37 112.48 CURVE SMOOTH",
"261.84 127.08 OFFCURVE",
"229.18 151.14 OFFCURVE",
"204.18 181.51 CURVE SMOOTH",
"193.13 194.93 OFFCURVE",
"183.61 209.49 OFFCURVE",
"175.52 224.84 CURVE"
);
}
);
width = 677;
}
);
note = Edieresis;
rightKerningGroup = A;
unicode = 00CB;
},
{
glyphname = Edotaccent;
layers = (
{
layerId = "350E41D6-91B0-4895-AA67-C01AEB764728";
paths = (
{
closed = 1;
nodes = (
"354.88 937.37 LINE",
"446.23 846.02 LINE",
"536.11 935.9 LINE",
"444.76 1027.25 LINE"
);
},
{
closed = 1;
nodes = (
"287.57 722.86 LINE",
"210.46 698.1 OFFCURVE",
"141.41 648.87 OFFCURVE",
"92.9 584.03 CURVE SMOOTH",
"44.39 519.18 OFFCURVE",
"16.64 438.98 OFFCURVE",
"15.08 358.01 CURVE SMOOTH",
"13.21 261 OFFCURVE",
"49.56 163.38 OFFCURVE",
"115.97 92.65 CURVE SMOOTH",
"182.39 21.92 OFFCURVE",
"279.13 -20.93 OFFCURVE",
"376.08 -16.99 CURVE SMOOTH",
"426.68 -14.94 OFFCURVE",
"476.88 -0.3 OFFCURVE",
"519.97 26.31 CURVE SMOOTH",
"563.06 52.92 OFFCURVE",
"598.77 91.55 OFFCURVE",
"621.08 137.01 CURVE SMOOTH",
"636.81 169.06 OFFCURVE",
"645.91 204.35 OFFCURVE",
"647.58 240.01 CURVE",
"628.41 240.01 LINE",
"606.97 200.78 OFFCURVE",
"576.04 166.76 OFFCURVE",
"538.96 141.78 CURVE SMOOTH",
"503.93 118.18 OFFCURVE",
"463.42 102.65 OFFCURVE",
"421.53 97.31 CURVE",
"421.53 175.88 OFFCURVE",
"421.53 254.44 OFFCURVE",
"421.53 333.01 CURVE",
"532.73 333.01 LINE",
"654.73 460.01 LINE",
"421.53 460.01 LINE",
"421.53 518.29 OFFCURVE",
"421.53 576.57 OFFCURVE",
"421.53 634.86 CURVE",
"426.51 632.01 OFFCURVE",
"431.52 629.21 OFFCURVE",
"436.55 626.45 CURVE SMOOTH",
"471.21 607.43 OFFCURVE",
"506.99 590.48 OFFCURVE",
"543.65 575.7 CURVE",
"662.59 699.93 LINE",
"654.41 709.57 LINE",
"622.87 683.39 LINE",
"600.08 690.55 OFFCURVE",
"577.73 699.13 OFFCURVE",
"555.99 709.04 CURVE SMOOTH",
"519.95 725.48 OFFCURVE",
"485.6 745.62 OFFCURVE",
"453.66 769.04 CURVE",
"453.66 769.04 LINE",
"453.66 769.04 LINE",
"189.52 607.68 LINE",
"215.66 650.09 OFFCURVE",
"252.92 685.69 OFFCURVE",
"297.18 708.5 CURVE"
);
},
{
closed = 1;
nodes = (
"164.2 249 LINE",
"156.86 266.72 OFFCURVE",
"151.2 285.17 OFFCURVE",
"147.09 303.89 CURVE SMOOTH",
"137.34 348.27 OFFCURVE",
"135.5 394.2 OFFCURVE",
"139.18 439.5 CURVE SMOOTH",
"142.5 480.44 OFFCURVE",
"150.56 521.33 OFFCURVE",
"165.58 559.47 CURVE",
"219.18 592.22 LINE",
"219.18 485.63 OFFCURVE",
"219.18 379.04 OFFCURVE",
"219.18 272.44 CURVE"
);
},
{
closed = 1;
nodes = (
"348.18 297.51 LINE",
"348.24 671.07 LINE",
"355.97 675.79 LINE",
"368.1 667.56 OFFCURVE",
"380.4 659.59 OFFCURVE",
"392.88 651.9 CURVE",
"392.88 466.37 OFFCURVE",
"392.88 280.84 OFFCURVE",
"392.88 95.32 CURVE",
"360.64 94.86 OFFCURVE",
"328.3 100.52 OFFCURVE",
"298.37 112.48 CURVE SMOOTH",
"261.84 127.08 OFFCURVE",
"229.18 151.14 OFFCURVE",
"204.18 181.51 CURVE SMOOTH",
"193.13 194.93 OFFCURVE",
"183.61 209.49 OFFCURVE",
"175.52 224.84 CURVE"
);
}
);
width = 677;
}
);
note = Edotaccent;
rightKerningGroup = A;
unicode = 0116;
},
{
glyphname = Egrave;
layers = (
{
layerId = "350E41D6-91B0-4895-AA67-C01AEB764728";
paths = (
{
closed = 1;
nodes = (
"387.67 959 LINE",
"439 998.67 LINE",
"524.67 823 LINE",
"516 816.33 LINE"
);
},
{
closed = 1;
nodes = (
"287.56 722.85 LINE",
"210.45 698.09 OFFCURVE",
"141.4 648.86 OFFCURVE",
"92.89 584.02 CURVE SMOOTH",
"44.38 519.17 OFFCURVE",
"16.63 438.97 OFFCURVE",
"15.07 358 CURVE SMOOTH",
"13.2 260.99 OFFCURVE",
"49.55 163.37 OFFCURVE",
"115.96 92.64 CURVE SMOOTH",
"182.38 21.91 OFFCURVE",
"279.12 -20.94 OFFCURVE",
"376.07 -17 CURVE SMOOTH",
"426.67 -14.95 OFFCURVE",
"476.87 -0.31 OFFCURVE",
"519.96 26.3 CURVE SMOOTH",
"563.05 52.91 OFFCURVE",
"598.76 91.54 OFFCURVE",
"621.07 137 CURVE SMOOTH",
"636.8 169.05 OFFCURVE",
"645.9 204.34 OFFCURVE",
"647.57 240 CURVE",
"628.4 240 LINE",
"606.96 200.77 OFFCURVE",
"576.03 166.75 OFFCURVE",
"538.95 141.77 CURVE SMOOTH",
"503.92 118.17 OFFCURVE",
"463.41 102.64 OFFCURVE",
"421.52 97.3 CURVE",
"421.52 175.87 OFFCURVE",
"421.52 254.43 OFFCURVE",
"421.52 333 CURVE",
"532.72 333 LINE",
"654.72 460 LINE",
"421.52 460 LINE",
"421.52 518.28 OFFCURVE",
"421.52 576.56 OFFCURVE",
"421.52 634.85 CURVE",
"426.5 632 OFFCURVE",
"431.51 629.2 OFFCURVE",
"436.54 626.44 CURVE SMOOTH",
"471.2 607.42 OFFCURVE",
"506.98 590.47 OFFCURVE",
"543.64 575.69 CURVE",
"662.58 699.92 LINE",
"654.4 709.56 LINE",
"622.86 683.38 LINE",
"600.07 690.54 OFFCURVE",
"577.72 699.12 OFFCURVE",
"555.98 709.03 CURVE SMOOTH",
"519.94 725.47 OFFCURVE",
"485.59 745.61 OFFCURVE",
"453.65 769.03 CURVE",
"453.65 769.03 LINE",
"453.65 769.03 LINE",
"189.51 607.67 LINE",
"215.65 650.08 OFFCURVE",
"252.91 685.68 OFFCURVE",
"297.17 708.49 CURVE"
);
},
{
closed = 1;
nodes = (
"164.19 248.99 LINE",
"156.85 266.71 OFFCURVE",
"151.19 285.16 OFFCURVE",
"147.08 303.88 CURVE SMOOTH",
"137.33 348.26 OFFCURVE",
"135.49 394.19 OFFCURVE",
"139.17 439.49 CURVE SMOOTH",
"142.49 480.43 OFFCURVE",
"150.55 521.32 OFFCURVE",
"165.57 559.46 CURVE",
"219.17 592.21 LINE",
"219.17 485.62 OFFCURVE",
"219.17 379.03 OFFCURVE",
"219.17 272.43 CURVE"
);
},
{
closed = 1;
nodes = (
"348.17 297.5 LINE",
"348.23 671.06 LINE",
"355.96 675.78 LINE",
"368.09 667.55 OFFCURVE",
"380.39 659.58 OFFCURVE",
"392.87 651.89 CURVE",
"392.87 466.36 OFFCURVE",
"392.87 280.83 OFFCURVE",
"392.87 95.31 CURVE",
"360.63 94.85 OFFCURVE",
"328.29 100.51 OFFCURVE",
"298.36 112.47 CURVE SMOOTH",
"261.83 127.07 OFFCURVE",
"229.17 151.13 OFFCURVE",
"204.17 181.5 CURVE SMOOTH",
"193.12 194.92 OFFCURVE",
"183.6 209.48 OFFCURVE",
"175.51 224.83 CURVE"
);
}
);
width = 677;
}
);
note = Egrave;
rightKerningGroup = A;
unicode = 00C8;
},
{
glyphname = Emacron;
layers = (
{
layerId = "350E41D6-91B0-4895-AA67-C01AEB764728";
paths = (
{
closed = 1;
nodes = (
"317.87 844.22 LINE",
"590.84 843.22 LINE",
"590.84 950.22 LINE",
"317.87 951.22 LINE"
);
},
{
closed = 1;
nodes = (
"287.56 722.86 LINE",
"210.45 698.1 OFFCURVE",
"141.4 648.87 OFFCURVE",
"92.89 584.03 CURVE SMOOTH",
"44.38 519.18 OFFCURVE",
"16.63 438.98 OFFCURVE",
"15.07 358.01 CURVE SMOOTH",
"13.2 261 OFFCURVE",
"49.55 163.38 OFFCURVE",
"115.96 92.65 CURVE SMOOTH",
"182.38 21.92 OFFCURVE",
"279.12 -20.93 OFFCURVE",
"376.07 -16.99 CURVE SMOOTH",
"426.67 -14.94 OFFCURVE",
"476.87 -0.3 OFFCURVE",
"519.96 26.31 CURVE SMOOTH",
"563.05 52.92 OFFCURVE",
"598.76 91.55 OFFCURVE",
"621.07 137.01 CURVE SMOOTH",
"636.8 169.06 OFFCURVE",
"645.9 204.35 OFFCURVE",
"647.57 240.01 CURVE",
"628.4 240.01 LINE",
"606.96 200.78 OFFCURVE",
"576.03 166.76 OFFCURVE",
"538.95 141.78 CURVE SMOOTH",
"503.92 118.18 OFFCURVE",
"463.41 102.65 OFFCURVE",
"421.52 97.31 CURVE",
"421.52 175.88 OFFCURVE",
"421.52 254.44 OFFCURVE",
"421.52 333.01 CURVE",
"532.72 333.01 LINE",
"654.72 460.01 LINE",
"421.52 460.01 LINE",
"421.52 518.29 OFFCURVE",
"421.52 576.57 OFFCURVE",
"421.52 634.86 CURVE",
"426.5 632.01 OFFCURVE",
"431.51 629.21 OFFCURVE",
"436.54 626.45 CURVE SMOOTH",
"471.2 607.43 OFFCURVE",
"506.98 590.48 OFFCURVE",
"543.64 575.7 CURVE",
"662.58 699.93 LINE",
"654.4 709.57 LINE",
"622.86 683.39 LINE",
"600.07 690.55 OFFCURVE",
"577.72 699.13 OFFCURVE",
"555.98 709.04 CURVE SMOOTH",
"519.94 725.48 OFFCURVE",
"485.59 745.62 OFFCURVE",
"453.65 769.04 CURVE",
"453.65 769.04 LINE",
"453.65 769.04 LINE",
"189.51 607.68 LINE",
"215.65 650.09 OFFCURVE",
"252.91 685.69 OFFCURVE",
"297.17 708.5 CURVE"
);
},
{
closed = 1;
nodes = (
"164.19 249 LINE",
"156.85 266.72 OFFCURVE",
"151.19 285.17 OFFCURVE",
"147.08 303.89 CURVE SMOOTH",
"137.33 348.27 OFFCURVE",
"135.49 394.2 OFFCURVE",
"139.17 439.5 CURVE SMOOTH",
"142.49 480.44 OFFCURVE",
"150.55 521.33 OFFCURVE",
"165.57 559.47 CURVE",
"219.17 592.22 LINE",
"219.17 485.63 OFFCURVE",
"219.17 379.04 OFFCURVE",
"219.17 272.44 CURVE"
);
},
{
closed = 1;
nodes = (
"348.17 297.51 LINE",
"348.23 671.07 LINE",
"355.96 675.79 LINE",
"368.09 667.56 OFFCURVE",
"380.39 659.59 OFFCURVE",
"392.87 651.9 CURVE",
"392.87 466.37 OFFCURVE",
"392.87 280.84 OFFCURVE",
"392.87 95.32 CURVE",
"360.63 94.86 OFFCURVE",
"328.29 100.52 OFFCURVE",
"298.36 112.48 CURVE SMOOTH",
"261.83 127.08 OFFCURVE",
"229.17 151.14 OFFCURVE",
"204.17 181.51 CURVE SMOOTH",
"193.12 194.93 OFFCURVE",
"183.6 209.49 OFFCURVE",
"175.51 224.84 CURVE"
);
}
);
width = 677;
}
);
note = Emacron;
rightKerningGroup = A;
unicode = 0112;
},
{
glyphname = Eogonek;
layers = (
{
layerId = "350E41D6-91B0-4895-AA67-C01AEB764728";
paths = (
{
closed = 1;
nodes = (
"466.31 -230.31 LINE",
"434.92 -212.96 OFFCURVE",
"411.07 -182.46 OFFCURVE",
"401.81 -147.81 CURVE SMOOTH",
"393.06 -115.07 OFFCURVE",
"397.36 -79.04 OFFCURVE",
"413.58 -49.28 CURVE SMOOTH",
"423.59 -30.92 OFFCURVE",
"438.07 -15.07 OFFCURVE",
"455.27 -3.18 CURVE",
"477.94 3.97 OFFCURVE",
"499.73 13.82 OFFCURVE",
"519.96 26.31 CURVE SMOOTH",
"563.05 52.92 OFFCURVE",
"598.76 91.55 OFFCURVE",
"621.07 137.01 CURVE SMOOTH",
"636.8 169.06 OFFCURVE",
"645.9 204.35 OFFCURVE",
"647.57 240.01 CURVE",
"628.4 240.01 LINE",
"606.96 200.78 OFFCURVE",
"576.03 166.76 OFFCURVE",
"538.95 141.78 CURVE SMOOTH",
"503.92 118.18 OFFCURVE",
"463.41 102.65 OFFCURVE",
"421.52 97.31 CURVE",
"421.52 175.88 OFFCURVE",
"421.52 254.44 OFFCURVE",
"421.52 333.01 CURVE",
"532.72 333.01 LINE",
"654.72 460.01 LINE",
"421.52 460.01 LINE",
"421.52 518.29 OFFCURVE",
"421.52 576.57 OFFCURVE",
"421.52 634.86 CURVE",
"426.5 632.01 OFFCURVE",
"431.51 629.21 OFFCURVE",
"436.54 626.45 CURVE SMOOTH",
"471.2 607.43 OFFCURVE",
"506.98 590.48 OFFCURVE",
"543.64 575.7 CURVE",
"662.58 699.93 LINE",
"654.4 709.57 LINE",
"622.86 683.39 LINE",
"600.07 690.55 OFFCURVE",
"577.72 699.13 OFFCURVE",
"555.98 709.04 CURVE SMOOTH",
"519.94 725.48 OFFCURVE",
"485.59 745.62 OFFCURVE",
"453.65 769.04 CURVE",
"453.65 769.04 LINE",
"453.65 769.04 LINE",
"189.51 607.68 LINE",
"215.65 650.09 OFFCURVE",
"252.91 685.69 OFFCURVE",
"297.17 708.5 CURVE",
"287.58 722.88 LINE",
"210.47 698.12 OFFCURVE",
"141.42 648.89 OFFCURVE",
"92.91 584.05 CURVE SMOOTH",
"44.4 519.2 OFFCURVE",
"16.65 439 OFFCURVE",
"15.09 358.03 CURVE SMOOTH",
"13.22 261.02 OFFCURVE",
"49.57 163.4 OFFCURVE",
"115.98 92.67 CURVE SMOOTH",
"167.53 37.77 OFFCURVE",
"237.35 -0.33 OFFCURVE",
"311.35 -12.79 CURVE",
"308.88 -24.1 OFFCURVE",
"307.82 -35.71 OFFCURVE",
"308.33 -47.28 CURVE SMOOTH",
"309.32 -69.63 OFFCURVE",
"316.1 -91.54 OFFCURVE",
"326.66 -111.27 CURVE SMOOTH",
"337.22 -131 OFFCURVE",
"351.33 -148.65 OFFCURVE",
"366.83 -164.78 CURVE SMOOTH",
"394.57 -193.66 OFFCURVE",
"426.4 -218.41 OFFCURVE",
"459.83 -240.45 CURVE"
);
},
{
closed = 1;
nodes = (
"164.19 249.01 LINE",
"156.85 266.73 OFFCURVE",
"151.19 285.18 OFFCURVE",
"147.08 303.9 CURVE SMOOTH",
"137.33 348.28 OFFCURVE",
"135.49 394.21 OFFCURVE",
"139.17 439.51 CURVE SMOOTH",
"142.49 480.45 OFFCURVE",
"150.55 521.34 OFFCURVE",
"165.57 559.48 CURVE",
"219.17 592.23 LINE",
"219.17 485.64 OFFCURVE",
"219.17 379.05 OFFCURVE",
"219.17 272.45 CURVE"
);
},
{
closed = 1;
nodes = (
"348.17 297.52 LINE",
"348.23 671.08 LINE",
"355.96 675.8 LINE",
"368.09 667.57 OFFCURVE",
"380.39 659.6 OFFCURVE",
"392.87 651.91 CURVE",
"392.87 466.38 OFFCURVE",
"392.87 280.85 OFFCURVE",
"392.87 95.33 CURVE",
"360.63 94.87 OFFCURVE",
"328.29 100.53 OFFCURVE",
"298.36 112.49 CURVE SMOOTH",
"261.83 127.09 OFFCURVE",
"229.17 151.15 OFFCURVE",
"204.17 181.52 CURVE SMOOTH",
"193.12 194.94 OFFCURVE",
"183.6 209.5 OFFCURVE",
"175.51 224.85 CURVE"
);
}
);
width = 677;
}
);
note = Eogonek;
rightKerningGroup = A;
unicode = 0118;
},
{
color = 5;
glyphname = F;
lastChange = "2019-11-11 18:19:28 +0000";
layers = (
{
layerId = "350E41D6-91B0-4895-AA67-C01AEB764728";
paths = (
{
closed = 1;
nodes = (
"141 -139 LINE",
"112 -132 OFFCURVE",
"96 -113 OFFCURVE",
"96 -90 CURVE SMOOTH",
"96 -71 OFFCURVE",
"107 -57 OFFCURVE",
"134 -57 CURVE SMOOTH",
"201 -56 LINE SMOOTH",
"263 -55 OFFCURVE",
"407 111 OFFCURVE",
"483 221 CURVE",
"483 364 LINE",
"569 364 LINE",
"683 481 LINE",
"483 481 LINE",
"483 664 LINE",
"523 635 OFFCURVE",
"580 608 OFFCURVE",
"628 595 CURVE",
"751 716 LINE",
"723 737 LINE",
"691 708 LINE",
"636 726 OFFCURVE",
"580 754 OFFCURVE",
"536 784 CURVE",
"342 613 LINE",
"342 107 LINE SMOOTH",
"342 82 OFFCURVE",
"337 66 OFFCURVE",
"320 55 CURVE",
"277 55 OFFCURVE",
"198 72 OFFCURVE",
"161 72 CURVE",
"237 114 LINE SMOOTH",
"271 133 OFFCURVE",
"293 168 OFFCURVE",
"293 208 CURVE SMOOTH",
"293 539 LINE SMOOTH",
"293 631 OFFCURVE",
"317 670 OFFCURVE",
"394 720 CURVE",
"446 753 LINE",
"447 779 LINE",
"421 762 OFFCURVE",
"383 754 OFFCURVE",
"358 754 CURVE SMOOTH",
"306 754 OFFCURVE",
"258 779 OFFCURVE",
"208 779 CURVE SMOOTH",
"133 779 OFFCURVE",
"60 722 OFFCURVE",
"35 648 CURVE",
"59 648 LINE",
"69 677 OFFCURVE",
"96 695 OFFCURVE",
"129 695 CURVE SMOOTH",
"176 695 OFFCURVE",
"212 664 OFFCURVE",
"262 664 CURVE SMOOTH",
"273 664 OFFCURVE",
"289 666 OFFCURVE",
"300 670 CURVE",
"205 585 LINE SMOOTH",
"173 556 OFFCURVE",
"164 544 OFFCURVE",
"164 502 CURVE SMOOTH",
"164 477 LINE",
"98 477 OFFCURVE",
"26 442 OFFCURVE",
"26 361 CURVE SMOOTH",
"26 341 OFFCURVE",
"31 320 OFFCURVE",
"41 302 CURVE",
"60 302 LINE",
"59 306 OFFCURVE",
"58 311 OFFCURVE",
"58 317 CURVE SMOOTH",
"58 346 OFFCURVE",
"80 366 OFFCURVE",
"112 366 CURVE",
"164 366 LINE",
"164 235 LINE SMOOTH",
"164 173 OFFCURVE",
"160 115 OFFCURVE",
"129 71 CURVE",
"80 71 OFFCURVE",
"14 23 OFFCURVE",
"14 -38 CURVE SMOOTH",
"14 -115 OFFCURVE",
"68 -165 OFFCURVE",
"141 -165 CURVE"
);
}
);
width = 765;
},
{
associatedMasterId = "350E41D6-91B0-4895-AA67-C01AEB764728";
layerId = "F16F0500-861D-4075-B351-4C3EEFC67C4F";
name = "Nov 11 19, 12:12";
paths = (
{
closed = 1;
nodes = (
"26.68 376.72 OFFCURVE",
"25.96 369.04 OFFCURVE",
"25.96 361.36 CURVE SMOOTH",
"25.96 340.86 OFFCURVE",
"31.1 320.33 OFFCURVE",
"40.69 302.18 CURVE",
"59.82 302.18 LINE",
"58.24 310.68 OFFCURVE",
"58.42 319.51 OFFCURVE",
"60.48 327.9 CURVE SMOOTH",
"63.44 340.01 OFFCURVE",
"70.65 351.25 OFFCURVE",
"81.14 357.98 CURVE SMOOTH",
"86.39 361.34 OFFCURVE",
"92.34 363.54 OFFCURVE",
"98.47 364.69 CURVE SMOOTH",
"104.6 365.83 OFFCURVE",
"110.87 365.91 OFFCURVE",
"117.1 365.91 CURVE SMOOTH",
"132.62 365.91 OFFCURVE",
"148.15 365.91 OFFCURVE",
"163.67 365.91 CURVE",
"163.67 342.15 OFFCURVE",
"163.67 318.4 OFFCURVE",
"163.67 294.64 CURVE SMOOTH",
"163.67 274.89 OFFCURVE",
"164.06 255.11 OFFCURVE",
"164.06 235.35 CURVE SMOOTH",
"164.06 214.89 OFFCURVE",
"163.64 194.45 OFFCURVE",
"161.94 174.08 CURVE SMOOTH",
"158.91 137.7 OFFCURVE",
"149.84 100.74 OFFCURVE",
"129.26 70.85 CURVE",
"103.38 67.59 OFFCURVE",
"78.06 59.04 OFFCURVE",
"57.66 43 CURVE SMOOTH",
"39.3 28.57 OFFCURVE",
"25.49 8.36 OFFCURVE",
"19.14 -14.11 CURVE SMOOTH",
"12.78 -36.58 OFFCURVE",
"13.85 -61 OFFCURVE",
"21.66 -83 CURVE SMOOTH",
"30.27 -107.26 OFFCURVE",
"46.95 -128.53 OFFCURVE",
"68.25 -142.98 CURVE SMOOTH",
"89.55 -157.44 OFFCURVE",
"115.42 -165.05 OFFCURVE",
"141.16 -164.5 CURVE",
"141.16 -138.5 LINE",
"128.24 -136.37 OFFCURVE",
"116.07 -129.71 OFFCURVE",
"107.52 -119.8 CURVE SMOOTH",
"103.24 -114.84 OFFCURVE",
"99.87 -109.09 OFFCURVE",
"97.83 -102.87 CURVE SMOOTH",
"95.79 -96.65 OFFCURVE",
"95.08 -89.95 OFFCURVE",
"96.17 -83.5 CURVE SMOOTH",
"96.87 -79.33 OFFCURVE",
"98.33 -75.28 OFFCURVE",
"100.56 -71.69 CURVE SMOOTH",
"102.79 -68.1 OFFCURVE",
"105.8 -64.99 OFFCURVE",
"109.33 -62.67 CURVE SMOOTH",
"112.86 -60.35 OFFCURVE",
"116.89 -58.83 OFFCURVE",
"121.04 -58.01 CURVE SMOOTH",
"125.19 -57.19 OFFCURVE",
"129.44 -57.07 OFFCURVE",
"133.67 -57 CURVE SMOOTH",
"192.67 -56 LINE SMOOTH",
"200.4 -55.87 OFFCURVE",
"208.18 -55.58 OFFCURVE",
"215.74 -53.97 CURVE SMOOTH",
"223.31 -52.36 OFFCURVE",
"230.59 -49.51 OFFCURVE",
"237.32 -45.71 CURVE SMOOTH",
"250.79 -38.1 OFFCURVE",
"262.15 -27.33 OFFCURVE",
"273.67 -17 CURVE SMOOTH",
"288.99 -3.27 OFFCURVE",
"304 10.82 OFFCURVE",
"318.67 25.25 CURVE SMOOTH",
"379.45 85.03 OFFCURVE",
"434.46 150.69 OFFCURVE",
"482.67 221 CURVE",
"482.67 363.6 LINE",
"568.99 363.6 LINE",
"682.64 480.6 LINE",
"482.67 480.6 LINE",
"482.67 663.67 LINE",
"504.25 648.74 OFFCURVE",
"527.01 635.52 OFFCURVE",
"550.67 624.17 CURVE SMOOTH",
"575.62 612.2 OFFCURVE",
"601.58 602.33 OFFCURVE",
"628.17 594.67 CURVE",
"750.67 715.67 LINE",
"722.67 736.67 LINE",
"691.17 707.67 LINE",
"673.21 713.51 OFFCURVE",
"655.51 720.18 OFFCURVE",
"638.17 727.67 CURVE SMOOTH",
"602.29 743.15 OFFCURVE",
"567.92 762.1 OFFCURVE",
"535.67 784.17 CURVE",
"341.67 613 LINE",
"341.67 107 LINE SMOOTH",
"341.67 97.11 OFFCURVE",
"341.3 87.03 OFFCURVE",
"337.86 77.76 CURVE SMOOTH",
"334.41 68.49 OFFCURVE",
"328.02 60.3 OFFCURVE",
"319.67 55 CURVE",
"292.27 57.71 OFFCURVE",
"264.96 61.29 OFFCURVE",
"237.67 65 CURVE SMOOTH",
"212.17 68.47 OFFCURVE",
"186.54 72.13 OFFCURVE",
"160.86 72.45 CURVE",
"163.68 74.46 OFFCURVE",
"166.55 76.42 OFFCURVE",
"169.45 78.31 CURVE SMOOTH",
"197.28 96.46 OFFCURVE",
"229.07 108.25 OFFCURVE",
"255.67 128.16 CURVE SMOOTH",
"267.97 137.37 OFFCURVE",
"278.81 148.94 OFFCURVE",
"285.2 162.91 CURVE SMOOTH",
"291.58 176.89 OFFCURVE",
"292.67 192.62 OFFCURVE",
"292.67 207.99 CURVE SMOOTH",
"292.67 397.64 LINE",
"292.73 538.99 LINE SMOOTH",
"292.75 571.55 OFFCURVE",
"295.71 604.76 OFFCURVE",
"309.16 634.4 CURVE SMOOTH",
"317.6 653.01 OFFCURVE",
"329.92 669.8 OFFCURVE",
"344.91 683.68 CURVE SMOOTH",
"359.9 697.56 OFFCURVE",
"377.1 708.83 OFFCURVE",
"394.33 719.82 CURVE SMOOTH",
"411.48 730.76 OFFCURVE",
"428.7 741.59 OFFCURVE",
"445.66 752.82 CURVE",
"447.16 779.34 LINE",
"435.54 771.95 OFFCURVE",
"423 766.03 OFFCURVE",
"409.91 761.77 CURVE SMOOTH",
"393.29 756.36 OFFCURVE",
"375.81 753.71 OFFCURVE",
"358.33 753.71 CURVE SMOOTH",
"355.77 753.71 OFFCURVE",
"353.22 753.77 OFFCURVE",
"350.66 753.88 CURVE SMOOTH",
"326.01 754.97 OFFCURVE",
"301.95 761.33 OFFCURVE",
"278.07 767.48 CURVE SMOOTH",
"255.06 773.41 OFFCURVE",
"231.61 778.73 OFFCURVE",
"207.87 778.73 CURVE SMOOTH",
"206.97 778.73 OFFCURVE",
"206.07 778.72 OFFCURVE",
"205.16 778.71 CURVE SMOOTH",
"176.89 778.22 OFFCURVE",
"148.96 769.73 OFFCURVE",
"124.66 755.28 CURVE SMOOTH",
"83.92 731.05 OFFCURVE",
"52.68 692.02 OFFCURVE",
"35.16 647.98 CURVE",
"58.66 647.98 LINE",
"62.73 659.31 OFFCURVE",
"69.85 669.51 OFFCURVE",
"79.03 677.3 CURVE SMOOTH",
"88.21 685.08 OFFCURVE",
"99.41 690.39 OFFCURVE",
"111.16 692.96 CURVE SMOOTH",
"117.2 694.28 OFFCURVE",
"123.31 694.86 OFFCURVE",
"129.44 694.86 CURVE SMOOTH",
"146.38 694.86 OFFCURVE",
"163.45 690.43 OFFCURVE",
"179.64 684.93 CURVE SMOOTH",
"201.69 677.44 OFFCURVE",
"223.54 668.57 OFFCURVE",
"246.66 665.79 CURVE SMOOTH",
"251.77 665.17 OFFCURVE",
"256.91 664.87 OFFCURVE",
"262.05 664.87 CURVE SMOOTH",
"275.19 664.87 OFFCURVE",
"288.33 666.83 OFFCURVE",
"301.01 670.44 CURVE",
"274.14 649.28 OFFCURVE",
"248.34 626.75 OFFCURVE",
"223.75 602.98 CURVE SMOOTH",
"209.01 588.73 OFFCURVE",
"192.99 575.59 OFFCURVE",
"180.56 559.3 CURVE SMOOTH",
"174.34 551.15 OFFCURVE",
"169.41 541.96 OFFCURVE",
"166.69 532.08 CURVE SMOOTH",
"163.97 522.2 OFFCURVE",
"163.62 511.84 OFFCURVE",
"163.63 501.59 CURVE SMOOTH",
"163.64 476.81 LINE",
"163.32 476.76 OFFCURVE",
"162.99 476.7 OFFCURVE",
"162.67 476.65 CURVE SMOOTH",
"136.01 472.25 OFFCURVE",
"108.48 469.54 OFFCURVE",
"84.17 457.75 CURVE SMOOTH",
"69.79 450.77 OFFCURVE",
"56.93 440.54 OFFCURVE",
"47.3 427.79 CURVE SMOOTH",
"37.67 415.03 OFFCURVE",
"31.25 399.94 OFFCURVE",
"28.17 384.25 CURVE SMOOTH"
);
}
);
visible = 1;
width = 765;
}
);
note = F;
rightKerningGroup = F;
unicode = 0046;
},
{
color = 5;
glyphname = G;
lastChange = "2019-11-11 18:28:00 +0000";
layers = (
{
layerId = "350E41D6-91B0-4895-AA67-C01AEB764728";
paths = (
{
closed = 1;
nodes = (
"167 268 OFFCURVE",
"153 357 OFFCURVE",
"153 424 CURVE SMOOTH",
"153 501 OFFCURVE",
"168 577 OFFCURVE",
"219 623 CURVE",
"219 338 LINE",
"219 291 OFFCURVE",
"218 240 OFFCURVE",
"184 206 CURVE"
);
},
{
closed = 1;
nodes = (
"430 138 LINE",
"583 215 LINE",
"583 117 OFFCURVE",
"533 33 OFFCURVE",
"430 15 CURVE"
);
},
{
closed = 1;
nodes = (
"430 243 LINE",
"558 307 LINE",
"568 288 OFFCURVE",
"575 267 OFFCURVE",
"579 245 CURVE",
"430 170 LINE"
);
},
{
closed = 1;
nodes = (
"430 422 LINE",
"472 406 OFFCURVE",
"516 374 OFFCURVE",
"544 332 CURVE",
"430 275 LINE"
);
},
{
closed = 1;
nodes = (
"313 13 OFFCURVE",
"235 77 OFFCURVE",
"202 160 CURVE",
"287 183 OFFCURVE",
"348 241 OFFCURVE",
"348 330 CURVE SMOOTH",
"348 360 LINE",
"402 413 LINE",
"402 13 LINE"
);
},
{
closed = 1;
nodes = (
"348 679 LINE",
"351 680 OFFCURVE",
"355 680 OFFCURVE",
"357 680 CURVE",
"411 643 OFFCURVE",
"469 607 OFFCURVE",
"529 580 CURVE",
"348 400 LINE"
);
},
{
closed = 1;
nodes = (
"539 -24 OFFCURVE",
"710 113 OFFCURVE",
"710 294 CURVE SMOOTH",
"710 395 OFFCURVE",
"645 497 OFFCURVE",
"518 528 CURVE",
"684 693 LINE",
"664 713 LINE",
"631 680 LINE",
"568 703 OFFCURVE",
"508 736 OFFCURVE",
"456 778 CURVE",
"358 701 LINE",
"170 683 OFFCURVE",
"14 513 OFFCURVE",
"14 325 CURVE SMOOTH",
"14 130 OFFCURVE",
"168 -24 OFFCURVE",
"360 -24 CURVE SMOOTH"
);
}
);
width = 725;
},
{
associatedMasterId = "350E41D6-91B0-4895-AA67-C01AEB764728";
layerId = "7A496C32-3D64-49AB-ABE0-C99898D3BDD9";
name = "Nov 11 19, 13:20";
paths = (
{
closed = 1;
nodes = (
"194.18 217.87 OFFCURVE",
"189.61 211.82 OFFCURVE",
"184.48 206.3 CURVE",
"176.96 230.9 OFFCURVE",
"171.43 256.17 OFFCURVE",
"167.04 281.52 CURVE SMOOTH",
"158.89 328.58 OFFCURVE",
"153.96 376.24 OFFCURVE",
"153.24 423.99 CURVE SMOOTH",
"152.54 470.19 OFFCURVE",
"156.63 517.42 OFFCURVE",
"174.92 559.85 CURVE SMOOTH",
"185.17 583.64 OFFCURVE",
"200.38 605.23 OFFCURVE",
"219.16 623 CURVE",
"219.16 528.11 OFFCURVE",
"219.16 433.21 OFFCURVE",
"219.16 338.32 CURVE SMOOTH",
"219.16 318.74 OFFCURVE",
"219.18 299.08 OFFCURVE",
"216.47 279.69 CURVE SMOOTH",
"213.76 260.3 OFFCURVE",
"208.15 241.11 OFFCURVE",
"198.07 224.32 CURVE SMOOTH"
);
},
{
closed = 1;
nodes = (
"581.81 159.01 OFFCURVE",
"567.82 116.65 OFFCURVE",
"541.83 83.03 CURVE SMOOTH",
"515.85 49.41 OFFCURVE",
"477.84 25.14 OFFCURVE",
"436.24 16.49 CURVE SMOOTH",
"434.23 16.07 OFFCURVE",
"432.21 15.69 OFFCURVE",
"430.19 15.35 CURVE",
"430.19 56.14 OFFCURVE",
"430.19 96.93 OFFCURVE",
"430.19 137.72 CURVE",
"582.62 214.67 LINE",
"582.8 210.28 OFFCURVE",
"582.84 205.89 OFFCURVE",
"582.74 201.5 CURVE SMOOTH"
);
},
{
closed = 1;
nodes = (
"430.19 242.68 LINE",
"558.31 307.36 LINE",
"568.19 287.71 OFFCURVE",
"575.3 266.67 OFFCURVE",
"579.23 245.07 CURVE",
"430.19 169.82 LINE"
);
},
{
closed = 1;
nodes = (
"430.19 274.78 LINE",
"430.19 323.95 OFFCURVE",
"430.19 373.12 OFFCURVE",
"430.19 422.3 CURVE",
"469.14 407.43 OFFCURVE",
"504.23 382.42 OFFCURVE",
"530.61 350.13 CURVE SMOOTH",
"535.32 344.37 OFFCURVE",
"539.74 338.38 OFFCURVE",
"543.87 332.18 CURVE"
);
},
{
closed = 1;
nodes = (
"366.36 12.72 OFFCURVE",
"331.1 22.79 OFFCURVE",
"300.94 41.04 CURVE SMOOTH",
"260.79 65.34 OFFCURVE",
"229.83 103.06 OFFCURVE",
"208.73 144.99 CURVE SMOOTH",
"206.26 149.89 OFFCURVE",
"203.92 154.85 OFFCURVE",
"201.69 159.85 CURVE",
"211.38 162.42 OFFCURVE",
"220.91 165.56 OFFCURVE",
"230.22 169.26 CURVE SMOOTH",
"258.43 180.49 OFFCURVE",
"284.8 196.97 OFFCURVE",
"305.72 218.98 CURVE SMOOTH",
"321.22 235.29 OFFCURVE",
"333.44 254.84 OFFCURVE",
"340.31 276.26 CURVE SMOOTH",
"347.19 297.68 OFFCURVE",
"348.14 320.49 OFFCURVE",
"348.14 342.98 CURVE SMOOTH",
"348.14 359.97 LINE",
"401.51 412.8 LINE",
"401.51 279.49 OFFCURVE",
"401.51 146.18 OFFCURVE",
"401.51 12.86 CURVE"
);
},
{
closed = 1;
nodes = (
"348.21 678.93 LINE",
"350.6 679.29 OFFCURVE",
"353 679.64 OFFCURVE",
"355.4 679.97 CURVE SMOOTH",
"355.94 680.04 OFFCURVE",
"356.49 680.12 OFFCURVE",
"357.03 680.19 CURVE",
"382.75 661.53 OFFCURVE",
"409.35 644.1 OFFCURVE",
"436.73 627.97 CURVE SMOOTH",
"466.75 610.29 OFFCURVE",
"497.69 594.17 OFFCURVE",
"529.39 579.72 CURVE",
"348.15 400.3 LINE",
"348.15 480.64 LINE"
);
},
{
closed = 1;
nodes = (
"684.25 692.69 LINE",
"664.09 713.06 LINE",
"631.15 680.45 LINE",
"605.83 689.46 OFFCURVE",
"581.12 700.16 OFFCURVE",
"557.23 712.47 CURVE SMOOTH",
"521.29 730.99 OFFCURVE",
"487.23 753.14 OFFCURVE",
"455.73 778.47 CURVE",
"357.99 700.6 LINE",
"262.03 689.74 OFFCURVE",
"170.43 642.08 OFFCURVE",
"107.23 568.97 CURVE SMOOTH",
"51.77 504.82 OFFCURVE",
"18.31 421.71 OFFCURVE",
"15.23 336.97 CURVE SMOOTH",
"12.53 262.76 OFFCURVE",
"33.28 187.67 OFFCURVE",
"74.88 126.16 CURVE SMOOTH",
"116.48 64.65 OFFCURVE",
"178.79 17.45 OFFCURVE",
"249.23 -6.03 CURVE SMOOTH",
"305 -25 OFFCURVE",
"366 -29 OFFCURVE",
"425 -18 CURVE SMOOTH",
"483 -8 OFFCURVE",
"539 16 OFFCURVE",
"586.23 51.97 CURVE SMOOTH",
"638.18 91.51 OFFCURVE",
"679.52 146.07 OFFCURVE",
"698.73 208.47 CURVE SMOOTH",
"719.78 276.83 OFFCURVE",
"712.35 354.1 OFFCURVE",
"675.72 415.53 CURVE SMOOTH",
"641.69 472.61 OFFCURVE",
"583.09 514.41 OFFCURVE",
"518.18 528.29 CURVE"
);
}
);
visible = 1;
width = 725;
}
);
note = G;
rightKerningGroup = A;
unicode = 0047;
},
{
glyphname = Gbreve;
layers = (
{
layerId = "350E41D6-91B0-4895-AA67-C01AEB764728";
paths = (
{
closed = 1;
nodes = (
"338.34 855.24 OFFCURVE",
"305.81 879.7 OFFCURVE",
"282.82 911 CURVE",
"350.82 971 LINE",
"360.26 957.75 OFFCURVE",
"372.45 946.49 OFFCURVE",
"386.34 938.02 CURVE SMOOTH",
"402.62 928.09 OFFCURVE",
"421.07 921.95 OFFCURVE",
"439.92 919.09 CURVE SMOOTH",
"458.77 916.22 OFFCURVE",
"478.24 916.27 OFFCURVE",
"496.73 920.93 CURVE SMOOTH",
"506.51 923.39 OFFCURVE",
"515.99 927.29 OFFCURVE",
"524.25 933.08 CURVE SMOOTH",
"533.41 939.5 OFFCURVE",
"540.93 948.25 OFFCURVE",
"545.71 958.36 CURVE",
"571.4 945.96 LINE",
"563.78 928.94 OFFCURVE",
"554.23 912.77 OFFCURVE",
"542.81 898.02 CURVE SMOOTH",
"528.07 878.98 OFFCURVE",
"509.99 862.26 OFFCURVE",
"488.72 851 CURVE SMOOTH",
"471.49 841.88 OFFCURVE",
"452.3 836.51 OFFCURVE",
"432.84 835.33 CURVE SMOOTH",
"413.38 834.15 OFFCURVE",
"393.75 837.04 OFFCURVE",
"375.23 843.12 CURVE SMOOTH"
);
},
{
closed = 1;
nodes = (
"194.17 217.88 OFFCURVE",
"189.6 211.83 OFFCURVE",
"184.47 206.31 CURVE",
"176.95 230.91 OFFCURVE",
"171.42 256.18 OFFCURVE",
"167.03 281.53 CURVE SMOOTH",
"158.88 328.59 OFFCURVE",
"153.95 376.25 OFFCURVE",
"153.23 424 CURVE SMOOTH",
"152.53 470.2 OFFCURVE",
"156.62 517.43 OFFCURVE",
"174.91 559.86 CURVE SMOOTH",
"185.16 583.65 OFFCURVE",
"200.37 605.24 OFFCURVE",
"219.15 623.01 CURVE",
"219.15 528.12 OFFCURVE",
"219.15 433.22 OFFCURVE",
"219.15 338.33 CURVE SMOOTH",
"219.15 318.75 OFFCURVE",
"219.17 299.09 OFFCURVE",
"216.46 279.7 CURVE SMOOTH",
"213.75 260.31 OFFCURVE",
"208.14 241.12 OFFCURVE",
"198.06 224.33 CURVE SMOOTH"
);
},
{
closed = 1;
nodes = (
"581.8 159.02 OFFCURVE",
"567.81 116.66 OFFCURVE",
"541.82 83.04 CURVE SMOOTH",
"515.84 49.42 OFFCURVE",
"477.83 25.15 OFFCURVE",
"436.23 16.5 CURVE SMOOTH",
"434.22 16.08 OFFCURVE",
"432.2 15.7 OFFCURVE",
"430.18 15.36 CURVE",
"430.18 56.15 OFFCURVE",
"430.18 96.94 OFFCURVE",
"430.18 137.73 CURVE",
"582.61 214.68 LINE",
"582.79 210.29 OFFCURVE",
"582.83 205.9 OFFCURVE",
"582.73 201.51 CURVE SMOOTH"
);
},
{
closed = 1;
nodes = (
"430.18 242.69 LINE",
"558.3 307.37 LINE",
"568.18 287.72 OFFCURVE",
"575.29 266.68 OFFCURVE",
"579.22 245.08 CURVE",
"430.18 169.83 LINE"
);
},
{
closed = 1;
nodes = (
"430.18 274.79 LINE",
"430.18 323.96 OFFCURVE",
"430.18 373.13 OFFCURVE",
"430.18 422.31 CURVE",
"469.13 407.44 OFFCURVE",
"504.22 382.43 OFFCURVE",
"530.6 350.14 CURVE SMOOTH",
"535.31 344.38 OFFCURVE",
"539.73 338.39 OFFCURVE",
"543.86 332.19 CURVE"
);
},
{
closed = 1;
nodes = (
"366.35 12.73 OFFCURVE",
"331.09 22.8 OFFCURVE",
"300.93 41.05 CURVE SMOOTH",
"260.78 65.35 OFFCURVE",
"229.82 103.07 OFFCURVE",
"208.72 145 CURVE SMOOTH",
"206.25 149.9 OFFCURVE",
"203.91 154.86 OFFCURVE",
"201.68 159.86 CURVE",
"211.37 162.43 OFFCURVE",
"220.9 165.57 OFFCURVE",
"230.21 169.27 CURVE SMOOTH",
"258.42 180.5 OFFCURVE",
"284.79 196.98 OFFCURVE",
"305.71 218.99 CURVE SMOOTH",
"321.21 235.3 OFFCURVE",
"333.43 254.85 OFFCURVE",
"340.3 276.27 CURVE SMOOTH",
"347.18 297.69 OFFCURVE",
"348.13 320.5 OFFCURVE",
"348.13 342.99 CURVE SMOOTH",
"348.13 359.98 LINE",
"401.5 412.81 LINE",
"401.5 279.5 OFFCURVE",
"401.5 146.19 OFFCURVE",
"401.5 12.87 CURVE"
);
},
{
closed = 1;
nodes = (
"348.2 678.94 LINE",
"350.59 679.3 OFFCURVE",
"352.99 679.65 OFFCURVE",
"355.39 679.98 CURVE SMOOTH",
"355.93 680.05 OFFCURVE",
"356.48 680.13 OFFCURVE",
"357.02 680.2 CURVE",
"382.74 661.54 OFFCURVE",
"409.34 644.11 OFFCURVE",
"436.72 627.98 CURVE SMOOTH",
"466.74 610.3 OFFCURVE",
"497.68 594.18 OFFCURVE",
"529.38 579.73 CURVE",
"348.14 400.31 LINE",
"348.14 480.65 LINE"
);
},
{
closed = 1;
nodes = (
"684.24 692.7 LINE",
"664.07 713.07 LINE",
"631.13 680.46 LINE",
"605.81 689.47 OFFCURVE",
"581.1 700.17 OFFCURVE",
"557.21 712.48 CURVE SMOOTH",
"521.27 731 OFFCURVE",
"487.21 753.15 OFFCURVE",
"455.71 778.48 CURVE",
"357.97 700.61 LINE",
"262.01 689.75 OFFCURVE",
"170.41 642.09 OFFCURVE",
"107.21 568.98 CURVE SMOOTH",
"51.75 504.83 OFFCURVE",
"18.29 421.72 OFFCURVE",
"15.21 336.98 CURVE SMOOTH",
"12.51 262.77 OFFCURVE",
"33.26 187.68 OFFCURVE",
"74.86 126.17 CURVE SMOOTH",
"116.46 64.66 OFFCURVE",
"178.77 17.46 OFFCURVE",
"249.21 -6.02 CURVE SMOOTH",
"305.43 -24.76 OFFCURVE",
"366.38 -28.66 OFFCURVE",
"424.75 -18.38 CURVE SMOOTH",
"483.12 -8.11 OFFCURVE",
"539.05 16.09 OFFCURVE",
"586.21 51.98 CURVE SMOOTH",
"638.16 91.52 OFFCURVE",
"679.5 146.08 OFFCURVE",
"698.71 208.48 CURVE SMOOTH",
"719.76 276.84 OFFCURVE",
"712.33 354.11 OFFCURVE",
"675.7 415.54 CURVE SMOOTH",
"641.67 472.62 OFFCURVE",
"583.07 514.42 OFFCURVE",
"518.16 528.3 CURVE"
);
}
);
width = 725;
}
);
note = Gbreve;
rightKerningGroup = A;
unicode = 011E;
},
{
glyphname = Gcircumflex;
layers = (
{
layerId = "350E41D6-91B0-4895-AA67-C01AEB764728";
paths = (
{
closed = 1;
nodes = (
"236.1 830.45 LINE",
"237.4 869.23 LINE",
"436.64 1071.37 LINE",
"442.23 1067.07 LINE",
"443.37 1066.02 LINE",
"612.86 909.71 LINE",
"562.36 830.46 LINE",
"556.77 834.76 LINE",
"391.27 987.4 LINE"
);
},
{
closed = 1;
nodes = (
"194.19 217.88 OFFCURVE",
"189.62 211.83 OFFCURVE",
"184.49 206.31 CURVE",
"176.97 230.91 OFFCURVE",
"171.44 256.18 OFFCURVE",
"167.05 281.53 CURVE SMOOTH",
"158.9 328.59 OFFCURVE",
"153.97 376.25 OFFCURVE",
"153.25 424 CURVE SMOOTH",
"152.55 470.2 OFFCURVE",
"156.64 517.43 OFFCURVE",
"174.93 559.86 CURVE SMOOTH",
"185.18 583.65 OFFCURVE",
"200.39 605.24 OFFCURVE",
"219.17 623.01 CURVE",
"219.17 528.12 OFFCURVE",
"219.17 433.22 OFFCURVE",
"219.17 338.33 CURVE SMOOTH",
"219.17 318.75 OFFCURVE",
"219.19 299.09 OFFCURVE",
"216.48 279.7 CURVE SMOOTH",
"213.77 260.31 OFFCURVE",
"208.16 241.12 OFFCURVE",
"198.08 224.33 CURVE SMOOTH"
);
},
{
closed = 1;
nodes = (
"581.82 159.02 OFFCURVE",
"567.83 116.66 OFFCURVE",
"541.84 83.04 CURVE SMOOTH",
"515.86 49.42 OFFCURVE",
"477.85 25.15 OFFCURVE",
"436.25 16.5 CURVE SMOOTH",
"434.24 16.08 OFFCURVE",
"432.22 15.7 OFFCURVE",
"430.2 15.36 CURVE",
"430.2 56.15 OFFCURVE",
"430.2 96.94 OFFCURVE",
"430.2 137.73 CURVE",
"582.63 214.68 LINE",
"582.81 210.29 OFFCURVE",
"582.85 205.9 OFFCURVE",
"582.75 201.51 CURVE SMOOTH"
);
},
{
closed = 1;
nodes = (
"430.2 242.69 LINE",
"558.32 307.37 LINE",
"568.2 287.72 OFFCURVE",
"575.31 266.68 OFFCURVE",
"579.24 245.08 CURVE",
"430.2 169.83 LINE"
);
},
{
closed = 1;
nodes = (
"430.2 274.79 LINE",
"430.2 323.96 OFFCURVE",
"430.2 373.13 OFFCURVE",
"430.2 422.31 CURVE",
"469.15 407.44 OFFCURVE",
"504.24 382.43 OFFCURVE",
"530.62 350.14 CURVE SMOOTH",
"535.33 344.38 OFFCURVE",
"539.75 338.39 OFFCURVE",
"543.88 332.19 CURVE"
);
},
{
closed = 1;
nodes = (
"366.37 12.73 OFFCURVE",
"331.11 22.8 OFFCURVE",
"300.95 41.05 CURVE SMOOTH",
"260.8 65.35 OFFCURVE",
"229.84 103.07 OFFCURVE",
"208.74 145 CURVE SMOOTH",
"206.27 149.9 OFFCURVE",
"203.93 154.86 OFFCURVE",
"201.7 159.86 CURVE",
"211.39 162.43 OFFCURVE",
"220.92 165.57 OFFCURVE",
"230.23 169.27 CURVE SMOOTH",
"258.44 180.5 OFFCURVE",
"284.81 196.98 OFFCURVE",
"305.73 218.99 CURVE SMOOTH",
"321.23 235.3 OFFCURVE",
"333.45 254.85 OFFCURVE",
"340.32 276.27 CURVE SMOOTH",
"347.2 297.69 OFFCURVE",
"348.15 320.5 OFFCURVE",
"348.15 342.99 CURVE SMOOTH",
"348.15 359.98 LINE",
"401.52 412.81 LINE",
"401.52 279.5 OFFCURVE",
"401.52 146.19 OFFCURVE",
"401.52 12.87 CURVE"
);
},
{
closed = 1;
nodes = (
"348.22 678.94 LINE",
"350.61 679.3 OFFCURVE",
"353.01 679.65 OFFCURVE",
"355.41 679.98 CURVE SMOOTH",
"355.95 680.05 OFFCURVE",
"356.5 680.13 OFFCURVE",
"357.05 680.2 CURVE",
"382.77 661.54 OFFCURVE",
"409.37 644.11 OFFCURVE",
"436.75 627.98 CURVE SMOOTH",
"466.77 610.3 OFFCURVE",
"497.71 594.18 OFFCURVE",
"529.41 579.73 CURVE",
"348.17 400.31 LINE",
"348.17 480.65 LINE"
);
},
{
closed = 1;
nodes = (
"684.27 692.7 LINE",
"664.11 713.07 LINE",
"631.17 680.46 LINE",
"605.85 689.47 OFFCURVE",
"581.14 700.17 OFFCURVE",
"557.25 712.48 CURVE SMOOTH",
"521.31 731 OFFCURVE",
"487.25 753.15 OFFCURVE",
"455.75 778.48 CURVE",
"358.01 700.61 LINE",
"262.05 689.75 OFFCURVE",
"170.45 642.09 OFFCURVE",
"107.25 568.98 CURVE SMOOTH",
"51.79 504.83 OFFCURVE",
"18.33 421.72 OFFCURVE",
"15.25 336.98 CURVE SMOOTH",
"12.55 262.77 OFFCURVE",
"33.3 187.68 OFFCURVE",
"74.9 126.17 CURVE SMOOTH",
"116.5 64.66 OFFCURVE",
"178.81 17.46 OFFCURVE",
"249.25 -6.02 CURVE SMOOTH",
"305.47 -24.76 OFFCURVE",
"366.42 -28.66 OFFCURVE",
"424.79 -18.38 CURVE SMOOTH",
"483.16 -8.11 OFFCURVE",
"539.09 16.09 OFFCURVE",
"586.25 51.98 CURVE SMOOTH",
"638.2 91.52 OFFCURVE",
"679.54 146.08 OFFCURVE",
"698.75 208.48 CURVE SMOOTH",
"719.8 276.84 OFFCURVE",
"712.37 354.11 OFFCURVE",
"675.74 415.54 CURVE SMOOTH",
"641.71 472.62 OFFCURVE",
"583.11 514.42 OFFCURVE",
"518.2 528.3 CURVE"
);
}
);
width = 725;
}
);
note = Gcircumflex;
rightKerningGroup = A;
unicode = 011C;
},
{
glyphname = Gdotaccent;
layers = (
{
layerId = "350E41D6-91B0-4895-AA67-C01AEB764728";
paths = (
{
closed = 1;
nodes = (
"342.88 949.37 LINE",
"434.23 858.02 LINE",
"524.11 947.9 LINE",
"432.76 1039.25 LINE"
);
},
{
closed = 1;
nodes = (
"194.18 217.88 OFFCURVE",
"189.61 211.83 OFFCURVE",
"184.48 206.31 CURVE",
"176.96 230.91 OFFCURVE",
"171.43 256.18 OFFCURVE",
"167.04 281.53 CURVE SMOOTH",
"158.89 328.59 OFFCURVE",
"153.96 376.25 OFFCURVE",
"153.24 424 CURVE SMOOTH",
"152.54 470.2 OFFCURVE",
"156.63 517.43 OFFCURVE",
"174.92 559.86 CURVE SMOOTH",
"185.17 583.65 OFFCURVE",
"200.38 605.24 OFFCURVE",
"219.16 623.01 CURVE",
"219.16 528.12 OFFCURVE",
"219.16 433.22 OFFCURVE",
"219.16 338.33 CURVE SMOOTH",
"219.16 318.75 OFFCURVE",
"219.18 299.09 OFFCURVE",
"216.47 279.7 CURVE SMOOTH",
"213.76 260.31 OFFCURVE",
"208.15 241.12 OFFCURVE",
"198.07 224.33 CURVE SMOOTH"
);
},
{
closed = 1;
nodes = (
"581.81 159.02 OFFCURVE",
"567.82 116.66 OFFCURVE",
"541.83 83.04 CURVE SMOOTH",
"515.85 49.42 OFFCURVE",
"477.84 25.15 OFFCURVE",
"436.24 16.5 CURVE SMOOTH",
"434.23 16.08 OFFCURVE",
"432.21 15.7 OFFCURVE",
"430.19 15.36 CURVE",
"430.19 56.15 OFFCURVE",
"430.19 96.94 OFFCURVE",
"430.19 137.73 CURVE",
"582.62 214.68 LINE",
"582.8 210.29 OFFCURVE",
"582.84 205.9 OFFCURVE",
"582.74 201.51 CURVE SMOOTH"
);
},
{
closed = 1;
nodes = (
"430.19 242.69 LINE",
"558.31 307.37 LINE",
"568.19 287.72 OFFCURVE",
"575.3 266.68 OFFCURVE",
"579.23 245.08 CURVE",
"430.19 169.83 LINE"
);
},
{
closed = 1;
nodes = (
"430.19 274.79 LINE",
"430.19 323.96 OFFCURVE",
"430.19 373.13 OFFCURVE",
"430.19 422.31 CURVE",
"469.14 407.44 OFFCURVE",
"504.23 382.43 OFFCURVE",
"530.61 350.14 CURVE SMOOTH",
"535.32 344.38 OFFCURVE",
"539.74 338.39 OFFCURVE",
"543.87 332.19 CURVE"
);
},
{
closed = 1;
nodes = (
"366.36 12.73 OFFCURVE",
"331.1 22.8 OFFCURVE",
"300.94 41.05 CURVE SMOOTH",
"260.79 65.35 OFFCURVE",
"229.83 103.07 OFFCURVE",
"208.73 145 CURVE SMOOTH",
"206.26 149.9 OFFCURVE",
"203.92 154.86 OFFCURVE",
"201.69 159.86 CURVE",
"211.38 162.43 OFFCURVE",
"220.91 165.57 OFFCURVE",
"230.22 169.27 CURVE SMOOTH",
"258.43 180.5 OFFCURVE",
"284.8 196.98 OFFCURVE",
"305.72 218.99 CURVE SMOOTH",
"321.22 235.3 OFFCURVE",
"333.44 254.85 OFFCURVE",
"340.31 276.27 CURVE SMOOTH",
"347.19 297.69 OFFCURVE",
"348.14 320.5 OFFCURVE",
"348.14 342.99 CURVE SMOOTH",
"348.14 359.98 LINE",
"401.51 412.81 LINE",
"401.51 279.5 OFFCURVE",
"401.51 146.19 OFFCURVE",
"401.51 12.87 CURVE"
);
},
{
closed = 1;
nodes = (
"348.21 678.94 LINE",
"350.6 679.3 OFFCURVE",
"353 679.65 OFFCURVE",
"355.4 679.98 CURVE SMOOTH",
"355.94 680.05 OFFCURVE",
"356.49 680.13 OFFCURVE",
"357.03 680.2 CURVE",
"382.75 661.54 OFFCURVE",
"409.35 644.11 OFFCURVE",
"436.73 627.98 CURVE SMOOTH",
"466.75 610.3 OFFCURVE",
"497.69 594.18 OFFCURVE",
"529.39 579.73 CURVE",
"348.15 400.31 LINE",
"348.15 480.65 LINE"
);
},
{
closed = 1;
nodes = (
"684.25 692.7 LINE",
"664.09 713.07 LINE",
"631.15 680.46 LINE",
"605.83 689.47 OFFCURVE",
"581.12 700.17 OFFCURVE",
"557.23 712.48 CURVE SMOOTH",
"521.29 731 OFFCURVE",
"487.23 753.15 OFFCURVE",
"455.73 778.48 CURVE",
"357.99 700.61 LINE",
"262.03 689.75 OFFCURVE",
"170.43 642.09 OFFCURVE",
"107.23 568.98 CURVE SMOOTH",
"51.77 504.83 OFFCURVE",
"18.31 421.72 OFFCURVE",
"15.23 336.98 CURVE SMOOTH",
"12.53 262.77 OFFCURVE",
"33.28 187.68 OFFCURVE",
"74.88 126.17 CURVE SMOOTH",
"116.48 64.66 OFFCURVE",
"178.79 17.46 OFFCURVE",
"249.23 -6.02 CURVE SMOOTH",
"305.45 -24.76 OFFCURVE",
"366.4 -28.66 OFFCURVE",
"424.77 -18.38 CURVE SMOOTH",
"483.14 -8.11 OFFCURVE",
"539.07 16.09 OFFCURVE",
"586.23 51.98 CURVE SMOOTH",
"638.18 91.52 OFFCURVE",
"679.52 146.08 OFFCURVE",
"698.73 208.48 CURVE SMOOTH",
"719.78 276.84 OFFCURVE",
"712.35 354.11 OFFCURVE",
"675.72 415.54 CURVE SMOOTH",
"641.69 472.62 OFFCURVE",
"583.09 514.42 OFFCURVE",
"518.18 528.3 CURVE"
);
}
);
width = 725;
}
);
note = Gdotaccent;
rightKerningGroup = A;
unicode = 0120;
},
{
color = 5;
glyphname = H;
lastChange = "2019-11-11 18:43:31 +0000";
layers = (
{
layerId = "350E41D6-91B0-4895-AA67-C01AEB764728";
paths = (
{
closed = 1;
nodes = (
"55 640 OFFCURVE",
"84 657 OFFCURVE",
"107 657 CURVE SMOOTH",
"151 657 OFFCURVE",
"187 648 OFFCURVE",
"225 648 CURVE SMOOTH",
"280 648 OFFCURVE",
"322 690 OFFCURVE",
"372 744 CURVE SMOOTH",
"385 758 LINE",
"366 768 LINE",
"334 753 OFFCURVE",
"312 745 OFFCURVE",
"293 745 CURVE SMOOTH",
"261 745 OFFCURVE",
"220 754 OFFCURVE",
"168 754 CURVE SMOOTH",
"98 754 OFFCURVE",
"50 703 OFFCURVE",
"22 626 CURVE",
"42 617 LINE"
);
},
{
closed = 1;
nodes = (
"84 7 OFFCURVE",
"142 27 OFFCURVE",
"188 27 CURVE SMOOTH",
"235 27 OFFCURVE",
"272 13 OFFCURVE",
"303 -9 CURVE",
"402 87 LINE",
"397 90 OFFCURVE",
"392 92 OFFCURVE",
"386 95 CURVE",
"386 343 LINE",
"523 343 LINE",
"523 121 LINE",
"472 81 LINE",
"483 66 LINE",
"507 85 LINE",
"604 -3 LINE",
"737 109 LINE",
"722 123 LINE",
"691 97 LINE",
"663 129 LINE",
"663 671 LINE",
"700 701 LINE",
"683 723 LINE",
"653 699 LINE",
"578 761 LINE",
"462 667 LINE",
"462 639 LINE",
"497 665 LINE",
"523 640 LINE",
"523 460 LINE",
"386 460 LINE",
"386 702 LINE",
"358 702 LINE",
"332 673 LINE SMOOTH",
"253 585 OFFCURVE",
"183 594 OFFCURVE",
"183 487 CURVE SMOOTH",
"183 456 LINE",
"113 446 OFFCURVE",
"67 418 OFFCURVE",
"67 342 CURVE SMOOTH",
"67 322 OFFCURVE",
"73 302 OFFCURVE",
"82 287 CURVE",
"101 287 LINE",
"100 291 OFFCURVE",
"100 295 OFFCURVE",
"100 299 CURVE SMOOTH",
"100 325 OFFCURVE",
"122 345 OFFCURVE",
"150 345 CURVE SMOOTH",
"183 345 LINE",
"184 254 LINE SMOOTH",
"184 205 OFFCURVE",
"168 166 OFFCURVE",
"129 143 CURVE",
"129 119 LINE",
"217 127 OFFCURVE",
"312 174 OFFCURVE",
"312 294 CURVE SMOOTH",
"312 527 LINE SMOOTH",
"312 584 OFFCURVE",
"320 639 OFFCURVE",
"358 672 CURVE",
"358 106 LINE",
"327 117 OFFCURVE",
"298 122 OFFCURVE",
"263 122 CURVE SMOOTH",
"158 122 OFFCURVE",
"61 60 OFFCURVE",
"15 -35 CURVE",
"46 -35 LINE"
);
}
);
width = 751;
},
{
associatedMasterId = "350E41D6-91B0-4895-AA67-C01AEB764728";
layerId = "58F2E0AF-A100-4291-B383-F3D940BE20BF";
name = "Nov 11 19, 13:28";
paths = (
{
closed = 1;
nodes = (
"313.17 748.33 LINE"
);
},
{
closed = 1;
nodes = (
"229.5 588.5 LINE"
);
},
{
closed = 1;
nodes = (
"41.52 616.75 LINE",
"48.07 627.6 OFFCURVE",
"57.23 636.86 OFFCURVE",
"67.96 643.59 CURVE SMOOTH",
"78.7 650.33 OFFCURVE",
"90.95 654.49 OFFCURVE",
"103.5 656.33 CURVE SMOOTH",
"112.43 657.63 OFFCURVE",
"121.49 657.8 OFFCURVE",
"130.5 657.33 CURVE SMOOTH",
"149.5 656.33 OFFCURVE",
"168.25 652.65 OFFCURVE",
"187.17 650.62 CURVE SMOOTH",
"206.09 648.59 OFFCURVE",
"225.34 648.33 OFFCURVE",
"244 651.99 CURVE SMOOTH",
"270.57 657.21 OFFCURVE",
"295.07 670.54 OFFCURVE",
"315.94 687.79 CURVE SMOOTH",
"336.82 705.03 OFFCURVE",
"354.79 725.46 OFFCURVE",
"373 745.5 CURVE SMOOTH",
"376.9 749.79 OFFCURVE",
"380.79 754.08 OFFCURVE",
"384.69 758.37 CURVE",
"365.51 767.96 LINE",
"349.62 757.99 OFFCURVE",
"331.68 751.38 OFFCURVE",
"313.17 748.32 CURVE SMOOTH",
"294.17 745.18 OFFCURVE",
"274.73 745.77 OFFCURVE",
"255.58 747.72 CURVE SMOOTH",
"236.42 749.67 OFFCURVE",
"217.39 752.84 OFFCURVE",
"198.17 754.15 CURVE SMOOTH",
"180.69 755.34 OFFCURVE",
"163.01 754.94 OFFCURVE",
"145.83 751.45 CURVE SMOOTH",
"128.66 747.96 OFFCURVE",
"112.1 741.36 OFFCURVE",
"97.39 731.84 CURVE SMOOTH",
"76.99 718.64 OFFCURVE",
"60.39 700.12 OFFCURVE",
"47.39 679.59 CURVE SMOOTH",
"36.87 662.97 OFFCURVE",
"28.52 645 OFFCURVE",
"22.35 626.32 CURVE"
);
},
{
closed = 1;
nodes = (
"128.5 118.73 LINE",
"167.68 122.28 OFFCURVE",
"206.39 134.23 OFFCURVE",
"239.5 155.48 CURVE SMOOTH",
"263.92 171.16 OFFCURVE",
"285.03 192.7 OFFCURVE",
"297.42 218.94 CURVE SMOOTH",
"303.62 232.06 OFFCURVE",
"307.61 246.18 OFFCURVE",
"309.69 260.54 CURVE SMOOTH",
"311.77 274.9 OFFCURVE",
"311.91 289.47 OFFCURVE",
"311.91 303.98 CURVE SMOOTH",
"311.91 448.98 LINE",
"311.98 526.98 LINE SMOOTH",
"312 555.76 OFFCURVE",
"312.25 585.06 OFFCURVE",
"321.09 612.45 CURVE SMOOTH",
"325.51 626.15 OFFCURVE",
"332 639.16 OFFCURVE",
"340.2 650.98 CURVE SMOOTH",
"345.46 658.56 OFFCURVE",
"351.4 665.62 OFFCURVE",
"357.62 672.44 CURVE",
"357.62 483.76 OFFCURVE",
"357.62 295.08 OFFCURVE",
"357.62 106.4 CURVE",
"298.31 126.61 OFFCURVE",
"232.15 126.86 OFFCURVE",
"173 105.98 CURVE SMOOTH",
"104.85 81.92 OFFCURVE",
"46.86 30.35 OFFCURVE",
"15 -34.52 CURVE",
"45.5 -34.52 LINE",
"84.22 6.45 OFFCURVE",
"141.18 29.5 OFFCURVE",
"197.5 26.98 CURVE SMOOTH",
"234.97 25.3 OFFCURVE",
"271.88 12.65 OFFCURVE",
"302.5 -9.02 CURVE",
"402.17 86.65 LINE",
"396.97 89.55 OFFCURVE",
"391.67 92.26 OFFCURVE",
"386.29 94.8 CURVE",
"386.29 177.53 OFFCURVE",
"386.29 260.25 OFFCURVE",
"386.29 342.98 CURVE",
"523.22 342.98 LINE",
"523.01 121.02 LINE",
"471.63 81.02 LINE",
"482.96 66.31 LINE",
"507.29 85.02 LINE",
"604.2 -3.23 LINE",
"736.5 108.97 LINE",
"722.12 123.35 LINE",
"691 96.97 LINE",
"662.5 128.78 LINE",
"662.5 670.61 LINE",
"700.25 701.22 LINE",
"682.61 722.97 LINE",
"653.17 699.09 LINE",
"577.5 760.96 LINE",
"461.58 666.88 LINE",
"462.25 639.21 LINE",
"496.5 665.46 LINE",
"523.49 639.96 LINE",
"523.32 459.96 LINE",
"386.28 459.96 LINE",
"386.28 540.79 OFFCURVE",
"386.28 621.63 OFFCURVE",
"386.28 702.46 CURVE",
"357.62 702.46 LINE",
"332 673.46 LINE SMOOTH",
"317.3 656.83 OFFCURVE",
"301.68 640.92 OFFCURVE",
"283.98 627.53 CURVE SMOOTH",
"266 614 OFFCURVE",
"247 603 OFFCURVE",
"230 589 CURVE SMOOTH",
"214 576 OFFCURVE",
"200 560 OFFCURVE",
"192.1 541.18 CURVE SMOOTH",
"184.11 522.34 OFFCURVE",
"182.87 501.43 OFFCURVE",
"182.88 480.96 CURVE SMOOTH",
"182.89 455.86 LINE",
"163.22 452.94 OFFCURVE",
"143.65 449.41 OFFCURVE",
"125.75 441 CURVE SMOOTH",
"111.73 434.41 OFFCURVE",
"99.1 424.77 OFFCURVE",
"89.46 412.65 CURVE SMOOTH",
"79.81 400.53 OFFCURVE",
"73.16 386.11 OFFCURVE",
"69.75 371 CURVE SMOOTH",
"63.39 342.81 OFFCURVE",
"68.21 312.37 OFFCURVE",
"82.27 287.11 CURVE",
"101.4 287.11 LINE",
"100.1 294.26 OFFCURVE",
"100.31 301.69 OFFCURVE",
"102.06 308.75 CURVE SMOOTH",
"105 320.65 OFFCURVE",
"112.6 331.43 OFFCURVE",
"123.14 337.69 CURVE SMOOTH",
"128.41 340.82 OFFCURVE",
"134.31 342.82 OFFCURVE",
"140.35 343.85 CURVE SMOOTH",
"146.39 344.88 OFFCURVE",
"152.55 344.95 OFFCURVE",
"158.68 344.95 CURVE SMOOTH",
"182.93 344.95 LINE",
"182.93 344.06 OFFCURVE",
"182.93 343.17 OFFCURVE",
"182.93 342.28 CURVE SMOOTH",
"182.93 312.95 OFFCURVE",
"184.62 283.63 OFFCURVE",
"183.9 254.32 CURVE SMOOTH",
"183.54 239.66 OFFCURVE",
"182.26 224.96 OFFCURVE",
"178.72 210.73 CURVE SMOOTH",
"175.18 196.5 OFFCURVE",
"169.28 182.77 OFFCURVE",
"160.6 170.96 CURVE SMOOTH",
"152.16 159.48 OFFCURVE",
"141.13 149.9 OFFCURVE",
"128.51 143.29 CURVE"
);
}
);
visible = 1;
width = 751;
}
);
note = H;
rightKerningGroup = A;
unicode = 0048;
},
{
glyphname = Hcircumflex;
layers = (
{
layerId = "350E41D6-91B0-4895-AA67-C01AEB764728";
paths = (
{
closed = 1;
nodes = (
"313.17 748.33 LINE"
);
},
{
closed = 1;
nodes = (
"229.5 588.5 LINE"
);
},
{
closed = 1;
nodes = (
"184.16 846.33 LINE",
"185.46 885.11 LINE",
"384.7 1087.25 LINE",
"390.29 1082.95 LINE",
"391.43 1081.9 LINE",
"560.92 925.59 LINE",
"510.42 846.34 LINE",
"504.83 850.64 LINE",
"339.33 1003.28 LINE"
);
},
{
closed = 1;
nodes = (
"41.54 616.76 LINE",
"48.09 627.61 OFFCURVE",
"57.25 636.87 OFFCURVE",
"67.98 643.6 CURVE SMOOTH",
"78.72 650.34 OFFCURVE",
"90.97 654.5 OFFCURVE",
"103.52 656.34 CURVE SMOOTH",
"112.45 657.64 OFFCURVE",
"121.51 657.81 OFFCURVE",
"130.52 657.34 CURVE SMOOTH",
"149.52 656.34 OFFCURVE",
"168.27 652.66 OFFCURVE",
"187.19 650.63 CURVE SMOOTH",
"206.11 648.6 OFFCURVE",
"225.36 648.34 OFFCURVE",
"244.02 652 CURVE SMOOTH",
"270.59 657.22 OFFCURVE",
"295.09 670.55 OFFCURVE",
"315.96 687.8 CURVE SMOOTH",
"336.84 705.04 OFFCURVE",
"354.81 725.47 OFFCURVE",
"373.02 745.51 CURVE SMOOTH",
"376.92 749.8 OFFCURVE",
"380.81 754.09 OFFCURVE",
"384.71 758.38 CURVE",
"365.53 767.97 LINE",
"349.64 758 OFFCURVE",
"331.7 751.39 OFFCURVE",
"313.19 748.33 CURVE SMOOTH",
"294.19 745.19 OFFCURVE",
"274.75 745.78 OFFCURVE",
"255.6 747.73 CURVE SMOOTH",
"236.44 749.68 OFFCURVE",
"217.41 752.85 OFFCURVE",
"198.19 754.16 CURVE SMOOTH",
"180.71 755.35 OFFCURVE",
"163.03 754.95 OFFCURVE",
"145.85 751.46 CURVE SMOOTH",
"128.68 747.97 OFFCURVE",
"112.12 741.37 OFFCURVE",
"97.41 731.85 CURVE SMOOTH",
"77.01 718.65 OFFCURVE",
"60.41 700.13 OFFCURVE",
"47.41 679.6 CURVE SMOOTH",
"36.89 662.98 OFFCURVE",
"28.54 645.01 OFFCURVE",
"22.37 626.33 CURVE"
);
},
{
closed = 1;
nodes = (
"128.52 118.74 LINE",
"167.7 122.29 OFFCURVE",
"206.41 134.24 OFFCURVE",
"239.52 155.49 CURVE SMOOTH",
"263.94 171.17 OFFCURVE",
"285.05 192.71 OFFCURVE",
"297.44 218.95 CURVE SMOOTH",
"303.64 232.07 OFFCURVE",
"307.63 246.19 OFFCURVE",
"309.71 260.55 CURVE SMOOTH",
"311.79 274.91 OFFCURVE",
"311.93 289.48 OFFCURVE",
"311.93 303.99 CURVE SMOOTH",
"311.93 448.99 LINE",
"312 526.99 LINE SMOOTH",
"312.02 555.77 OFFCURVE",
"312.27 585.07 OFFCURVE",
"321.11 612.46 CURVE SMOOTH",
"325.53 626.16 OFFCURVE",
"332.02 639.17 OFFCURVE",
"340.22 650.99 CURVE SMOOTH",
"345.48 658.57 OFFCURVE",
"351.42 665.63 OFFCURVE",
"357.64 672.45 CURVE",
"357.64 483.77 OFFCURVE",
"357.64 295.09 OFFCURVE",
"357.64 106.41 CURVE",
"298.33 126.62 OFFCURVE",
"232.17 126.87 OFFCURVE",
"173.02 105.99 CURVE SMOOTH",
"104.87 81.93 OFFCURVE",
"46.88 30.36 OFFCURVE",
"15.02 -34.51 CURVE",
"45.52 -34.51 LINE",
"84.24 6.46 OFFCURVE",
"141.2 29.51 OFFCURVE",
"197.52 26.99 CURVE SMOOTH",
"234.99 25.31 OFFCURVE",
"271.9 12.66 OFFCURVE",
"302.52 -9.01 CURVE",
"402.19 86.66 LINE",
"396.99 89.56 OFFCURVE",
"391.69 92.27 OFFCURVE",
"386.31 94.81 CURVE",
"386.31 177.54 OFFCURVE",
"386.31 260.26 OFFCURVE",
"386.31 342.99 CURVE",
"523.24 342.99 LINE",
"523.03 121.03 LINE",
"471.65 81.03 LINE",
"482.98 66.32 LINE",
"507.31 85.03 LINE",
"604.22 -3.22 LINE",
"736.52 108.98 LINE",
"722.14 123.36 LINE",
"691.02 96.98 LINE",
"662.52 128.79 LINE",
"662.52 670.62 LINE",
"700.27 701.23 LINE",
"682.63 722.98 LINE",
"653.19 699.1 LINE",
"577.52 760.97 LINE",
"461.6 666.89 LINE",
"462.27 639.22 LINE",
"496.52 665.47 LINE",
"523.51 639.97 LINE",
"523.34 459.97 LINE",
"386.3 459.97 LINE",
"386.3 540.8 OFFCURVE",
"386.3 621.64 OFFCURVE",
"386.3 702.47 CURVE",
"357.64 702.47 LINE",
"332.02 673.47 LINE SMOOTH",
"317.32 656.84 OFFCURVE",
"301.7 640.93 OFFCURVE",
"284 627.54 CURVE SMOOTH",
"266.3 614.14 OFFCURVE",
"247.07 602.82 OFFCURVE",
"229.86 588.81 CURVE SMOOTH",
"213.99 575.89 OFFCURVE",
"200.11 560.03 OFFCURVE",
"192.12 541.19 CURVE SMOOTH",
"184.13 522.35 OFFCURVE",
"182.89 501.44 OFFCURVE",
"182.9 480.97 CURVE SMOOTH",
"182.91 455.87 LINE",
"163.24 452.95 OFFCURVE",
"143.67 449.42 OFFCURVE",
"125.77 441.01 CURVE SMOOTH",
"111.75 434.42 OFFCURVE",
"99.12 424.78 OFFCURVE",
"89.48 412.66 CURVE SMOOTH",
"79.83 400.54 OFFCURVE",
"73.18 386.12 OFFCURVE",
"69.77 371.01 CURVE SMOOTH",
"63.41 342.82 OFFCURVE",
"68.23 312.38 OFFCURVE",
"82.29 287.12 CURVE",
"101.42 287.12 LINE",
"100.12 294.27 OFFCURVE",
"100.33 301.7 OFFCURVE",
"102.08 308.76 CURVE SMOOTH",
"105.02 320.66 OFFCURVE",
"112.62 331.44 OFFCURVE",
"123.16 337.7 CURVE SMOOTH",
"128.43 340.83 OFFCURVE",
"134.33 342.83 OFFCURVE",
"140.37 343.86 CURVE SMOOTH",
"146.41 344.89 OFFCURVE",
"152.57 344.96 OFFCURVE",
"158.7 344.96 CURVE SMOOTH",
"182.95 344.96 LINE",
"182.95 344.07 OFFCURVE",
"182.95 343.18 OFFCURVE",
"182.95 342.29 CURVE SMOOTH",
"182.95 312.96 OFFCURVE",
"184.64 283.64 OFFCURVE",
"183.92 254.33 CURVE SMOOTH",
"183.56 239.67 OFFCURVE",
"182.28 224.97 OFFCURVE",
"178.74 210.74 CURVE SMOOTH",
"175.2 196.51 OFFCURVE",
"169.3 182.78 OFFCURVE",
"160.62 170.97 CURVE SMOOTH",
"152.18 159.49 OFFCURVE",
"141.15 149.91 OFFCURVE",
"128.53 143.3 CURVE"
);
}
);
width = 751;
}
);
note = Hcircumflex;
rightKerningGroup = A;
unicode = 0124;
},
{
color = 5;
glyphname = I;
lastChange = "2019-11-11 18:57:18 +0000";
layers = (
{
layerId = "350E41D6-91B0-4895-AA67-C01AEB764728";
paths = (
{
closed = 1;
nodes = (
"80 432 OFFCURVE",
"80 361 CURVE SMOOTH",
"80 341 OFFCURVE",
"85 320 OFFCURVE",
"95 302 CURVE",
"115 302 LINE",
"114 308 OFFCURVE",
"113 316 OFFCURVE",
"113 324 CURVE SMOOTH",
"113 347 OFFCURVE",
"139 366 OFFCURVE",
"171 366 CURVE SMOOTH",
"208 366 LINE",
"208 295 LINE SMOOTH",
"208 235 OFFCURVE",
"201 179 OFFCURVE",
"146 150 CURVE",
"179 150 LINE",
"279 181 OFFCURVE",
"337 225 OFFCURVE",
"337 313 CURVE SMOOTH",
"337 398 LINE",
"337 539 LINE SMOOTH",
"337 635 OFFCURVE",
"362 663 OFFCURVE",
"439 720 CURVE SMOOTH",
"454 731 OFFCURVE",
"467 746 OFFCURVE",
"478 762 CURVE",
"479 789 LINE",
"450 766 OFFCURVE",
"431 757 OFFCURVE",
"393 757 CURVE SMOOTH",
"350 757 OFFCURVE",
"289 783 OFFCURVE",
"246 783 CURVE SMOOTH",
"172 783 OFFCURVE",
"89 717 OFFCURVE",
"65 637 CURVE",
"88 637 LINE",
"98 662 OFFCURVE",
"123 678 OFFCURVE",
"158 677 CURVE SMOOTH",
"202 676 OFFCURVE",
"231 663 OFFCURVE",
"284 663 CURVE SMOOTH",
"310 663 OFFCURVE",
"329 667 OFFCURVE",
"350 674 CURVE",
"270 611 LINE SMOOTH",
"226 576 OFFCURVE",
"208 557 OFFCURVE",
"208 502 CURVE SMOOTH",
"208 475 LINE",
"132 470 OFFCURVE"
);
},
{
closed = 1;
nodes = (
"125 -100 LINE",
"63 -95 OFFCURVE",
"14 -46 OFFCURVE",
"14 23 CURVE SMOOTH",
"14 84 OFFCURVE",
"70 132 OFFCURVE",
"139 132 CURVE SMOOTH",
"211 132 OFFCURVE",
"263 84 OFFCURVE",
"363 58 CURVE",
"387 70 OFFCURVE",
"393 93 OFFCURVE",
"393 120 CURVE SMOOTH",
"393 538 LINE SMOOTH",
"393 637 OFFCURVE",
"416 676 OFFCURVE",
"506 735 CURVE SMOOTH",
"565 774 LINE",
"580 757 LINE",
"542 733 OFFCURVE",
"534 696 OFFCURVE",
"534 649 CURVE SMOOTH",
"534 234 LINE",
"479 137 OFFCURVE",
"337 -20 OFFCURVE",
"264 -20 CURVE SMOOTH",
"220 -20 OFFCURVE",
"149 -3 OFFCURVE",
"108 -3 CURVE SMOOTH",
"94 -3 OFFCURVE",
"76 -14 OFFCURVE",
"76 -37 CURVE SMOOTH",
"76 -64 OFFCURVE",
"98 -83 OFFCURVE",
"125 -84 CURVE"
);
}
);
width = 595;
},
{
associatedMasterId = "350E41D6-91B0-4895-AA67-C01AEB764728";
layerId = "6740C4CA-3026-4E15-8402-696267C8AD31";
name = "Nov 11 19, 13:46";
paths = (
{
closed = 1;
nodes = (
"81.03 376.72 OFFCURVE",
"80.31 369.04 OFFCURVE",
"80.31 361.36 CURVE SMOOTH",
"80.31 340.86 OFFCURVE",
"85.45 320.33 OFFCURVE",
"95.04 302.18 CURVE",
"114.17 302.18 LINE",
"112.59 310.68 OFFCURVE",
"112.78 319.51 OFFCURVE",
"114.83 327.9 CURVE SMOOTH",
"117.79 340.01 OFFCURVE",
"125 351.25 OFFCURVE",
"135.49 357.98 CURVE SMOOTH",
"140.74 361.34 OFFCURVE",
"146.69 363.54 OFFCURVE",
"152.82 364.69 CURVE SMOOTH",
"158.95 365.83 OFFCURVE",
"165.22 365.91 OFFCURVE",
"171.45 365.91 CURVE SMOOTH",
"183.64 365.91 OFFCURVE",
"195.83 365.91 OFFCURVE",
"208.02 365.91 CURVE",
"208.02 342.15 OFFCURVE",
"208.02 318.4 OFFCURVE",
"208.02 294.64 CURVE SMOOTH",
"208.02 277.19 OFFCURVE",
"207.99 259.67 OFFCURVE",
"205.57 242.39 CURVE SMOOTH",
"203.15 225.11 OFFCURVE",
"198.23 208.04 OFFCURVE",
"189.68 192.83 CURVE SMOOTH",
"179.55 174.81 OFFCURVE",
"164.3 159.64 OFFCURVE",
"146.01 150 CURVE",
"179.01 150 LINE",
"209.76 159.23 OFFCURVE",
"239.78 171.48 OFFCURVE",
"267.01 188.5 CURVE SMOOTH",
"289.35 202.46 OFFCURVE",
"309.72 220.6 OFFCURVE",
"322.16 243.82 CURVE SMOOTH",
"328.38 255.43 OFFCURVE",
"332.51 268.12 OFFCURVE",
"334.68 281.11 CURVE SMOOTH",
"336.85 294.1 OFFCURVE",
"337.01 307.33 OFFCURVE",
"337.01 320.5 CURVE SMOOTH",
"337.01 397.65 LINE",
"337.08 539 LINE SMOOTH",
"337.09 571.56 OFFCURVE",
"340.06 604.77 OFFCURVE",
"353.51 634.41 CURVE SMOOTH",
"361.93 652.97 OFFCURVE",
"374.64 669.45 OFFCURVE",
"390.06 682.77 CURVE SMOOTH",
"405.48 696.1 OFFCURVE",
"422.9 706.92 OFFCURVE",
"438.67 719.83 CURVE SMOOTH",
"453.61 732.06 OFFCURVE",
"467 746.28 OFFCURVE",
"477.5 762.47 CURVE",
"479 788.99 LINE",
"468 779 OFFCURVE",
"455 770 OFFCURVE",
"441 765 CURVE SMOOTH",
"421 757 OFFCURVE",
"399 756 OFFCURVE",
"378 757.49 CURVE SMOOTH",
"353.27 759.74 OFFCURVE",
"329.32 766.99 OFFCURVE",
"305.21 772.91 CURVE SMOOTH",
"281.09 778.83 OFFCURVE",
"256.25 783.1 OFFCURVE",
"231.5 780.99 CURVE SMOOTH",
"198.78 778.21 OFFCURVE",
"167.62 764.03 OFFCURVE",
"142 743.49 CURVE SMOOTH",
"107.39 715.73 OFFCURVE",
"81.28 678.06 OFFCURVE",
"64.5 636.99 CURVE",
"88 636.99 LINE",
"93.48 651.19 OFFCURVE",
"104.77 662.93 OFFCURVE",
"118.5 669.49 CURVE SMOOTH",
"130.7 675.32 OFFCURVE",
"144.48 677.21 OFFCURVE",
"158 676.99 CURVE SMOOTH",
"179.16 676.65 OFFCURVE",
"199.97 671.92 OFFCURVE",
"220.84 668.45 CURVE SMOOTH",
"241.72 664.97 OFFCURVE",
"262.84 662.55 OFFCURVE",
"284 662.99 CURVE SMOOTH",
"306.48 663.46 OFFCURVE",
"328.77 667.34 OFFCURVE",
"350.17 674.15 CURVE",
"323.75 652.72 OFFCURVE",
"297.02 631.66 OFFCURVE",
"270 610.99 CURVE SMOOTH",
"252.45 597.56 OFFCURVE",
"234.37 583.9 OFFCURVE",
"222.59 565.2 CURVE SMOOTH",
"216.7 555.85 OFFCURVE",
"212.55 545.42 OFFCURVE",
"210.35 534.59 CURVE SMOOTH",
"208.15 523.76 OFFCURVE",
"207.96 512.64 OFFCURVE",
"207.96 501.59 CURVE SMOOTH",
"207.97 475.22 LINE",
"184.18 471.53 OFFCURVE",
"160.07 468.22 OFFCURVE",
"138.5 457.76 CURVE SMOOTH",
"124.12 450.78 OFFCURVE",
"111.26 440.55 OFFCURVE",
"101.63 427.8 CURVE SMOOTH",
"92 415.04 OFFCURVE",
"85.58 399.95 OFFCURVE",
"82.5 384.26 CURVE SMOOTH"
);
},
{
closed = 1;
nodes = (
"124.99 -99.88 LINE",
"101.01 -97.98 OFFCURVE",
"77.67 -88.69 OFFCURVE",
"58.95 -73.59 CURVE SMOOTH",
"40.24 -58.48 OFFCURVE",
"26.22 -37.6 OFFCURVE",
"19.49 -14.51 CURVE SMOOTH",
"10.57 16.1 OFFCURVE",
"14.99 50.46 OFFCURVE",
"31.9 77.49 CURVE SMOOTH",
"48.81 104.52 OFFCURVE",
"77.72 123.25 OFFCURVE",
"108.99 129.49 CURVE SMOOTH",
"142.68 136.22 OFFCURVE",
"177.73 129.17 OFFCURVE",
"210.02 117.47 CURVE SMOOTH",
"242.31 105.76 OFFCURVE",
"273.03 90.1 OFFCURVE",
"304.99 77.49 CURVE SMOOTH",
"324.12 69.94 OFFCURVE",
"343.64 63.36 OFFCURVE",
"363.49 57.99 CURVE",
"374.42 63.36 OFFCURVE",
"383.11 72.96 OFFCURVE",
"387.79 84.21 CURVE SMOOTH",
"392.47 95.45 OFFCURVE",
"392.99 107.93 OFFCURVE",
"392.99 120.11 CURVE SMOOTH",
"392.99 538.49 LINE SMOOTH",
"392.99 558.56 OFFCURVE",
"393.27 578.76 OFFCURVE",
"397 598.48 CURVE SMOOTH",
"400.73 618.21 OFFCURVE",
"407.86 637.32 OFFCURVE",
"418.36 654.43 CURVE SMOOTH",
"439.36 688.65 OFFCURVE",
"473.08 712.72 OFFCURVE",
"506.49 734.99 CURVE SMOOTH",
"564.99 773.99 LINE",
"579.99 757.49 LINE",
"562.55 746.46 OFFCURVE",
"549.17 729.36 OFFCURVE",
"541.97 710.02 CURVE SMOOTH",
"534.76 690.68 OFFCURVE",
"533.99 669.63 OFFCURVE",
"533.99 648.99 CURVE SMOOTH",
"533.99 234.11 LINE",
"511.51 195.98 OFFCURVE",
"485.71 159.8 OFFCURVE",
"456.99 126.11 CURVE SMOOTH",
"417.72 80.05 OFFCURVE",
"372.97 38.67 OFFCURVE",
"323.99 3.11 CURVE SMOOTH",
"316.54 -2.3 OFFCURVE",
"308.86 -7.48 OFFCURVE",
"300.49 -11.31 CURVE SMOOTH",
"292.12 -15.14 OFFCURVE",
"283.14 -17.62 OFFCURVE",
"274.01 -18.77 CURVE SMOOTH",
"255.74 -21.05 OFFCURVE",
"237.26 -18.28 OFFCURVE",
"219 -15.9 CURVE SMOOTH",
"127 -3.9 LINE SMOOTH",
"120.77 -3.09 OFFCURVE",
"114.47 -2.36 OFFCURVE",
"108.22 -2.99 CURVE SMOOTH",
"101.97 -3.63 OFFCURVE",
"95.81 -5.64 OFFCURVE",
"90.63 -9.2 CURVE SMOOTH",
"85.45 -12.76 OFFCURVE",
"81.32 -17.81 OFFCURVE",
"78.82 -23.57 CURVE SMOOTH",
"76.31 -29.33 OFFCURVE",
"75.41 -35.75 OFFCURVE",
"76 -42.01 CURVE SMOOTH",
"77.1 -53.74 OFFCURVE",
"83.37 -64.76 OFFCURVE",
"92.4 -72.32 CURVE SMOOTH",
"101.43 -79.89 OFFCURVE",
"113.21 -84.08 OFFCURVE",
"125 -84.01 CURVE"
);
}
);
visible = 1;
width = 595;
}
);
note = I;
rightKerningGroup = A;
unicode = 0049;
},
{
glyphname = IJ;
layers = (
{
hints = (
{
horizontal = 1;
place = "{-99.88, 15.88}";
type = Stem;
},
{
horizontal = 1;
place = "{19.04, 135.46}";
type = Stem;
},
{
horizontal = 1;
place = "{329.5, 110.99}";
type = Stem;
},
{
horizontal = 1;
place = "{523, 21}";
target = up;
type = BottomGhost;
},
{
horizontal = 1;
place = "{638.67, 110.83}";
type = Stem;
},
{
place = "{208.01, 129}";
type = Stem;
},
{
place = "{393, 141}";
type = Stem;
},
{
place = "{637.41, 53.5}";
type = Stem;
},
{
place = "{826.91, 132}";
type = Stem;
},
{
place = "{1001.91, 132}";
type = Stem;
},
{
horizontal = 1;
place = "{645, 132}";
type = Stem;
},
{
place = "{610.91, 163.5}";
type = Stem;
},
{
horizontal = 1;
place = "{365.91, 109.31}";
type = Stem;
},
{
horizontal = 1;
place = "{789, -20}";
target = down;
type = TopGhost;
},
{
horizontal = 1;
place = "{663, 118}";
type = Stem;
}
);
layerId = "350E41D6-91B0-4895-AA67-C01AEB764728";
paths = (
{
closed = 1;
nodes = (
"744.81 271.66 LINE",
"743.51 278.81 OFFCURVE",
"743.72 286.24 OFFCURVE",
"745.47 293.3 CURVE SMOOTH",
"748.41 305.2 OFFCURVE",
"756.01 315.98 OFFCURVE",
"766.55 322.24 CURVE SMOOTH",
"771.82 325.37 OFFCURVE",
"777.72 327.37 OFFCURVE",
"783.76 328.4 CURVE SMOOTH",
"789.8 329.43 OFFCURVE",
"795.96 329.5 OFFCURVE",
"802.09 329.5 CURVE SMOOTH",
"810.37 329.5 OFFCURVE",
"818.64 329.5 OFFCURVE",
"826.92 329.5 CURVE",
"826.92 50 LINE SMOOTH",
"826.92 41.41 OFFCURVE",
"826.51 32.69 OFFCURVE",
"823.67 24.58 CURVE SMOOTH",
"820.84 16.47 OFFCURVE",
"815.87 9.19 OFFCURVE",
"809.67 3.25 CURVE SMOOTH",
"801.1 -4.96 OFFCURVE",
"790.36 -10.82 OFFCURVE",
"778.92 -14 CURVE",
"778.92 -47 LINE",
"828.13 -35.81 OFFCURVE",
"876.66 -16.03 OFFCURVE",
"913.92 18 CURVE SMOOTH",
"929.56 32.28 OFFCURVE",
"942.63 49.67 OFFCURVE",
"950.18 69.46 CURVE SMOOTH",
"957.73 89.25 OFFCURVE",
"958.92 110.81 OFFCURVE",
"958.92 132 CURVE SMOOTH",
"958.92 563 LINE SMOOTH",
"958.92 589.1 OFFCURVE",
"960.96 615.74 OFFCURVE",
"971.41 639.66 CURVE SMOOTH",
"981.86 663.58 OFFCURVE",
"999.05 683.97 OFFCURVE",
"1017.92 702 CURVE SMOOTH",
"1041.57 724.6 OFFCURVE",
"1067.51 744.69 OFFCURVE",
"1093.92 764 CURVE",
"1071.42 784.5 LINE",
"1043.78 763.17 OFFCURVE",
"1009.29 751.3 OFFCURVE",
"974.42 749.5 CURVE SMOOTH",
"943.45 747.9 OFFCURVE",
"912.61 753.92 OFFCURVE",
"882.42 761 CURVE SMOOTH",
"852.22 768.08 OFFCURVE",
"821.92 775.9 OFFCURVE",
"790.92 777 CURVE SMOOTH",
"756.22 778.23 OFFCURVE",
"720.6 770.25 OFFCURVE",
"692.11 750.42 CURVE SMOOTH",
"663.62 730.58 OFFCURVE",
"643.23 699.23 OFFCURVE",
"637.42 665 CURVE SMOOTH",
"632.43 635.58 OFFCURVE",
"638.11 604.46 OFFCURVE",
"653.22 578.74 CURVE SMOOTH",
"668.34 553.01 OFFCURVE",
"692.77 532.9 OFFCURVE",
"720.92 523 CURVE",
"724.92 531.33 LINE",
"713.38 535.15 OFFCURVE",
"703.33 543.31 OFFCURVE",
"697.19 553.81 CURVE SMOOTH",
"691.05 564.31 OFFCURVE",
"688.89 577.01 OFFCURVE",
"690.92 589 CURVE SMOOTH",
"693.64 605.06 OFFCURVE",
"703.75 619.37 OFFCURVE",
"717.03 628.81 CURVE SMOOTH",
"730.31 638.25 OFFCURVE",
"746.41 643.1 OFFCURVE",
"762.59 645 CURVE SMOOTH",
"800.56 649.47 OFFCURVE",
"838.72 640.22 OFFCURVE",
"876.92 638.67 CURVE SMOOTH",
"900.11 637.73 OFFCURVE",
"923.43 639.1 OFFCURVE",
"946.25 643.34 CURVE",
"911.86 618.27 OFFCURVE",
"876.71 592.85 OFFCURVE",
"850.92 559.01 CURVE SMOOTH",
"842.49 547.95 OFFCURVE",
"835.53 535.64 OFFCURVE",
"831.54 522.32 CURVE SMOOTH",
"827.55 508.99 OFFCURVE",
"826.92 494.92 OFFCURVE",
"826.92 481.01 CURVE SMOOTH",
"826.92 440.5 LINE",
"807.04 437.56 OFFCURVE",
"787.25 434.05 OFFCURVE",
"769.16 425.55 CURVE SMOOTH",
"755.14 418.96 OFFCURVE",
"742.51 409.32 OFFCURVE",
"732.87 397.2 CURVE SMOOTH",
"723.22 385.08 OFFCURVE",
"716.57 370.66 OFFCURVE",
"713.16 355.55 CURVE SMOOTH",
"706.8 327.36 OFFCURVE",
"711.62 296.92 OFFCURVE",
"725.68 271.66 CURVE"
);
},
{
closed = 1;
nodes = (
"1175.91 753 LINE",
"1158.85 724.12 OFFCURVE",
"1147.13 692.17 OFFCURVE",
"1140.83 659.22 CURVE SMOOTH",
"1134.53 626.27 OFFCURVE",
"1133.91 592.54 OFFCURVE",
"1133.91 559 CURVE SMOOTH",
"1133.91 263 LINE SMOOTH",
"1133.91 205.81 OFFCURVE",
"1131.43 147.43 OFFCURVE",
"1110.74 94.12 CURVE SMOOTH",
"1090.05 40.81 OFFCURVE",
"1052.33 -5.53 OFFCURVE",
"1004.91 -37.5 CURVE SMOOTH",
"964.83 -64.52 OFFCURVE",
"918.57 -81.97 OFFCURVE",
"870.91 -90 CURVE SMOOTH",
"812.72 -99.8 OFFCURVE",
"750.67 -95.98 OFFCURVE",
"698.01 -69.34 CURVE SMOOTH",
"671.68 -56.02 OFFCURVE",
"648.06 -36.71 OFFCURVE",
"631.82 -12.08 CURVE SMOOTH",
"615.58 12.55 OFFCURVE",
"607.07 42.75 OFFCURVE",
"610.91 72 CURVE SMOOTH",
"613.74 93.56 OFFCURVE",
"623.38 114.35 OFFCURVE",
"638.86 129.61 CURVE SMOOTH",
"654.34 144.88 OFFCURVE",
"675.67 154.3 OFFCURVE",
"697.41 154.5 CURVE SMOOTH",
"717.54 154.68 OFFCURVE",
"737.7 146.85 OFFCURVE",
"752.11 132.8 CURVE SMOOTH",
"766.51 118.74 OFFCURVE",
"774.87 98.62 OFFCURVE",
"774.41 78.5 CURVE SMOOTH",
"774.14 66.63 OFFCURVE",
"770.9 54.83 OFFCURVE",
"765.04 44.5 CURVE SMOOTH",
"759.18 34.17 OFFCURVE",
"750.71 25.33 OFFCURVE",
"740.63 19.04 CURVE SMOOTH",
"720.48 6.47 OFFCURVE",
"693.9 4.89 OFFCURVE",
"672.41 15 CURVE",
"690.49 -24.25 OFFCURVE",
"726.87 -54.37 OFFCURVE",
"768.58 -65.67 CURVE SMOOTH",
"796.69 -73.29 OFFCURVE",
"826.79 -72.75 OFFCURVE",
"854.97 -65.42 CURVE SMOOTH",
"883.16 -58.08 OFFCURVE",
"909.55 -44.16 OFFCURVE",
"931.91 -25.51 CURVE SMOOTH",
"957.35 -4.29 OFFCURVE",
"977.46 23.44 OFFCURVE",
"988.87 54.54 CURVE SMOOTH",
"1000.28 85.65 OFFCURVE",
"1001.91 119.36 OFFCURVE",
"1001.91 152.49 CURVE SMOOTH",
"1001.91 476.99 LINE SMOOTH",
"1001.91 508.65 OFFCURVE",
"1001.54 540.48 OFFCURVE",
"1006.26 571.79 CURVE SMOOTH",
"1010.98 603.1 OFFCURVE",
"1021.74 633.76 OFFCURVE",
"1039.95 659.66 CURVE SMOOTH",
"1066.3 697.13 OFFCURVE",
"1105.7 722.88 OFFCURVE",
"1142.62 749.99 CURVE SMOOTH",
"1149.59 755.11 OFFCURVE",
"1156.52 760.27 OFFCURVE",
"1163.41 765.49 CURVE"
);
},
{
closed = 1;
nodes = (
"81.03 376.71 OFFCURVE",
"80.31 369.03 OFFCURVE",
"80.31 361.35 CURVE SMOOTH",
"80.31 340.85 OFFCURVE",
"85.45 320.32 OFFCURVE",
"95.04 302.17 CURVE",
"114.17 302.17 LINE",
"112.59 310.67 OFFCURVE",
"112.78 319.5 OFFCURVE",
"114.83 327.89 CURVE SMOOTH",
"117.79 340 OFFCURVE",
"125 351.24 OFFCURVE",
"135.49 357.97 CURVE SMOOTH",
"140.74 361.33 OFFCURVE",
"146.69 363.53 OFFCURVE",
"152.82 364.68 CURVE SMOOTH",
"158.95 365.82 OFFCURVE",
"165.22 365.9 OFFCURVE",
"171.45 365.9 CURVE SMOOTH",
"183.64 365.9 OFFCURVE",
"195.83 365.9 OFFCURVE",
"208.02 365.9 CURVE",
"208.02 342.14 OFFCURVE",
"208.02 318.39 OFFCURVE",
"208.02 294.63 CURVE SMOOTH",
"208.02 277.18 OFFCURVE",
"207.99 259.66 OFFCURVE",
"205.57 242.38 CURVE SMOOTH",
"203.15 225.1 OFFCURVE",
"198.23 208.03 OFFCURVE",
"189.68 192.82 CURVE SMOOTH",
"179.55 174.8 OFFCURVE",
"164.3 159.63 OFFCURVE",
"146.01 149.99 CURVE",
"179.01 149.99 LINE",
"209.76 159.22 OFFCURVE",
"239.78 171.47 OFFCURVE",
"267.01 188.49 CURVE SMOOTH",
"289.35 202.45 OFFCURVE",
"309.72 220.59 OFFCURVE",
"322.16 243.81 CURVE SMOOTH",
"328.38 255.42 OFFCURVE",
"332.51 268.11 OFFCURVE",
"334.68 281.1 CURVE SMOOTH",
"336.85 294.09 OFFCURVE",
"337.01 307.32 OFFCURVE",
"337.01 320.49 CURVE SMOOTH",
"337.01 397.64 LINE",
"337.08 538.99 LINE SMOOTH",
"337.09 571.55 OFFCURVE",
"340.06 604.76 OFFCURVE",
"353.51 634.4 CURVE SMOOTH",
"361.93 652.96 OFFCURVE",
"374.64 669.44 OFFCURVE",
"390.06 682.76 CURVE SMOOTH",
"405.48 696.09 OFFCURVE",
"422.9 706.91 OFFCURVE",
"438.67 719.82 CURVE SMOOTH",
"453.61 732.05 OFFCURVE",
"467 746.27 OFFCURVE",
"477.5 762.46 CURVE",
"479 788.98 LINE",
"467.92 778.54 OFFCURVE",
"454.74 770.35 OFFCURVE",
"440.5 764.96 CURVE SMOOTH",
"420.71 757.47 OFFCURVE",
"399.08 755.56 OFFCURVE",
"378 757.48 CURVE SMOOTH",
"353.27 759.73 OFFCURVE",
"329.32 766.98 OFFCURVE",
"305.21 772.9 CURVE SMOOTH",
"281.09 778.82 OFFCURVE",
"256.25 783.09 OFFCURVE",
"231.5 780.98 CURVE SMOOTH",
"198.78 778.2 OFFCURVE",
"167.62 764.02 OFFCURVE",
"142 743.48 CURVE SMOOTH",
"107.39 715.72 OFFCURVE",
"81.28 678.05 OFFCURVE",
"64.5 636.98 CURVE",
"88 636.98 LINE",
"93.48 651.18 OFFCURVE",
"104.77 662.92 OFFCURVE",
"118.5 669.48 CURVE SMOOTH",
"130.7 675.31 OFFCURVE",
"144.48 677.2 OFFCURVE",
"158 676.98 CURVE SMOOTH",
"179.16 676.64 OFFCURVE",
"199.97 671.91 OFFCURVE",
"220.84 668.44 CURVE SMOOTH",
"241.72 664.96 OFFCURVE",
"262.84 662.54 OFFCURVE",
"284 662.98 CURVE SMOOTH",
"306.48 663.45 OFFCURVE",
"328.77 667.33 OFFCURVE",
"350.17 674.14 CURVE",
"323.75 652.71 OFFCURVE",
"297.02 631.65 OFFCURVE",
"270 610.98 CURVE SMOOTH",
"252.45 597.55 OFFCURVE",
"234.37 583.89 OFFCURVE",
"222.59 565.19 CURVE SMOOTH",
"216.7 555.84 OFFCURVE",
"212.55 545.41 OFFCURVE",
"210.35 534.58 CURVE SMOOTH",
"208.15 523.75 OFFCURVE",
"207.96 512.63 OFFCURVE",
"207.96 501.58 CURVE SMOOTH",
"207.97 475.21 LINE",
"184.18 471.52 OFFCURVE",
"160.07 468.21 OFFCURVE",
"138.5 457.75 CURVE SMOOTH",
"124.12 450.77 OFFCURVE",
"111.26 440.54 OFFCURVE",
"101.63 427.79 CURVE SMOOTH",
"92 415.03 OFFCURVE",
"85.58 399.94 OFFCURVE",
"82.5 384.25 CURVE SMOOTH"
);
},
{
closed = 1;
nodes = (
"124.99 -99.89 LINE",
"101.01 -97.99 OFFCURVE",
"77.67 -88.7 OFFCURVE",
"58.95 -73.6 CURVE SMOOTH",
"40.24 -58.49 OFFCURVE",
"26.22 -37.61 OFFCURVE",
"19.49 -14.52 CURVE SMOOTH",
"10.57 16.09 OFFCURVE",
"14.99 50.45 OFFCURVE",
"31.9 77.48 CURVE SMOOTH",
"48.81 104.51 OFFCURVE",
"77.72 123.24 OFFCURVE",
"108.99 129.48 CURVE SMOOTH",
"142.68 136.21 OFFCURVE",
"177.73 129.16 OFFCURVE",
"210.02 117.46 CURVE SMOOTH",
"242.31 105.75 OFFCURVE",
"273.03 90.09 OFFCURVE",
"304.99 77.48 CURVE SMOOTH",
"324.12 69.93 OFFCURVE",
"343.64 63.35 OFFCURVE",
"363.49 57.98 CURVE",
"374.42 63.35 OFFCURVE",
"383.11 72.95 OFFCURVE",
"387.79 84.2 CURVE SMOOTH",
"392.47 95.44 OFFCURVE",
"392.99 107.92 OFFCURVE",
"392.99 120.1 CURVE SMOOTH",
"392.99 538.48 LINE SMOOTH",
"392.99 558.55 OFFCURVE",
"393.27 578.75 OFFCURVE",
"397 598.47 CURVE SMOOTH",
"400.73 618.2 OFFCURVE",
"407.86 637.31 OFFCURVE",
"418.36 654.42 CURVE SMOOTH",
"439.36 688.64 OFFCURVE",
"473.08 712.71 OFFCURVE",
"506.49 734.98 CURVE SMOOTH",
"564.99 773.98 LINE",
"579.99 757.48 LINE",
"562.55 746.45 OFFCURVE",
"549.17 729.35 OFFCURVE",
"541.97 710.01 CURVE SMOOTH",
"534.76 690.67 OFFCURVE",
"533.99 669.62 OFFCURVE",
"533.99 648.98 CURVE SMOOTH",
"533.99 234.1 LINE",
"511.51 195.97 OFFCURVE",
"485.71 159.79 OFFCURVE",
"456.99 126.1 CURVE SMOOTH",
"417.72 80.04 OFFCURVE",
"372.97 38.66 OFFCURVE",
"323.99 3.1 CURVE SMOOTH",
"316.54 -2.31 OFFCURVE",
"308.86 -7.49 OFFCURVE",
"300.49 -11.32 CURVE SMOOTH",
"292.12 -15.15 OFFCURVE",
"283.14 -17.63 OFFCURVE",
"274.01 -18.78 CURVE SMOOTH",
"255.74 -21.06 OFFCURVE",
"237.26 -18.29 OFFCURVE",
"219 -15.91 CURVE SMOOTH",
"127 -3.91 LINE SMOOTH",
"120.77 -3.1 OFFCURVE",
"114.47 -2.37 OFFCURVE",
"108.22 -3 CURVE SMOOTH",
"101.97 -3.64 OFFCURVE",
"95.81 -5.65 OFFCURVE",
"90.63 -9.21 CURVE SMOOTH",
"85.45 -12.77 OFFCURVE",
"81.32 -17.82 OFFCURVE",
"78.82 -23.58 CURVE SMOOTH",
"76.31 -29.34 OFFCURVE",
"75.41 -35.76 OFFCURVE",
"76 -42.02 CURVE SMOOTH",
"77.1 -53.75 OFFCURVE",
"83.37 -64.77 OFFCURVE",
"92.4 -72.33 CURVE SMOOTH",
"101.43 -79.9 OFFCURVE",
"113.21 -84.09 OFFCURVE",
"125 -84.02 CURVE"
);
}
);
width = 1190;
}
);
note = IJ;
unicode = 0132;
},
{
glyphname = Iacute;
layers = (
{
layerId = "350E41D6-91B0-4895-AA67-C01AEB764728";
paths = (
{
closed = 1;
nodes = (
"440.67 999 LINE",
"389.34 1038.67 LINE",
"303.67 863 LINE",
"312.34 856.33 LINE"
);
},
{
closed = 1;
nodes = (
"81.04 376.72 OFFCURVE",
"80.32 369.04 OFFCURVE",
"80.32 361.36 CURVE SMOOTH",
"80.32 340.86 OFFCURVE",
"85.46 320.33 OFFCURVE",
"95.05 302.18 CURVE",
"114.18 302.18 LINE",
"112.6 310.68 OFFCURVE",
"112.79 319.51 OFFCURVE",
"114.84 327.9 CURVE SMOOTH",
"117.8 340.01 OFFCURVE",
"125.01 351.25 OFFCURVE",
"135.5 357.98 CURVE SMOOTH",
"140.75 361.34 OFFCURVE",
"146.7 363.54 OFFCURVE",
"152.83 364.69 CURVE SMOOTH",
"158.96 365.83 OFFCURVE",
"165.23 365.91 OFFCURVE",
"171.46 365.91 CURVE SMOOTH",
"183.65 365.91 OFFCURVE",
"195.84 365.91 OFFCURVE",
"208.03 365.91 CURVE",
"208.03 342.15 OFFCURVE",
"208.03 318.4 OFFCURVE",
"208.03 294.64 CURVE SMOOTH",
"208.03 277.19 OFFCURVE",
"208 259.67 OFFCURVE",
"205.58 242.39 CURVE SMOOTH",
"203.16 225.11 OFFCURVE",
"198.24 208.04 OFFCURVE",
"189.69 192.83 CURVE SMOOTH",
"179.56 174.81 OFFCURVE",
"164.31 159.64 OFFCURVE",
"146.02 150 CURVE",
"179.02 150 LINE",
"209.77 159.23 OFFCURVE",
"239.79 171.48 OFFCURVE",
"267.02 188.5 CURVE SMOOTH",
"289.36 202.46 OFFCURVE",
"309.73 220.6 OFFCURVE",
"322.17 243.82 CURVE SMOOTH",
"328.39 255.43 OFFCURVE",
"332.52 268.12 OFFCURVE",
"334.69 281.11 CURVE SMOOTH",
"336.86 294.1 OFFCURVE",
"337.02 307.33 OFFCURVE",
"337.02 320.5 CURVE SMOOTH",
"337.02 397.65 LINE",
"337.09 539 LINE SMOOTH",
"337.1 571.56 OFFCURVE",
"340.07 604.77 OFFCURVE",
"353.52 634.41 CURVE SMOOTH",
"361.94 652.97 OFFCURVE",
"374.65 669.45 OFFCURVE",
"390.07 682.77 CURVE SMOOTH",
"405.49 696.1 OFFCURVE",
"422.91 706.92 OFFCURVE",
"438.68 719.83 CURVE SMOOTH",
"453.62 732.06 OFFCURVE",
"467.01 746.28 OFFCURVE",
"477.51 762.47 CURVE",
"479.01 788.99 LINE",
"467.93 778.55 OFFCURVE",
"454.75 770.36 OFFCURVE",
"440.51 764.97 CURVE SMOOTH",
"420.72 757.48 OFFCURVE",
"399.09 755.57 OFFCURVE",
"378.01 757.49 CURVE SMOOTH",
"353.28 759.74 OFFCURVE",
"329.33 766.99 OFFCURVE",
"305.22 772.91 CURVE SMOOTH",
"281.1 778.83 OFFCURVE",
"256.26 783.1 OFFCURVE",
"231.51 780.99 CURVE SMOOTH",
"198.79 778.21 OFFCURVE",
"167.63 764.03 OFFCURVE",
"142.01 743.49 CURVE SMOOTH",
"107.4 715.73 OFFCURVE",
"81.29 678.06 OFFCURVE",
"64.51 636.99 CURVE",
"88.01 636.99 LINE",
"93.49 651.19 OFFCURVE",
"104.78 662.93 OFFCURVE",
"118.51 669.49 CURVE SMOOTH",
"130.71 675.32 OFFCURVE",
"144.49 677.21 OFFCURVE",
"158.01 676.99 CURVE SMOOTH",
"179.17 676.65 OFFCURVE",
"199.98 671.92 OFFCURVE",
"220.85 668.45 CURVE SMOOTH",
"241.73 664.97 OFFCURVE",
"262.85 662.55 OFFCURVE",
"284.01 662.99 CURVE SMOOTH",
"306.49 663.46 OFFCURVE",
"328.78 667.34 OFFCURVE",
"350.18 674.15 CURVE",
"323.76 652.72 OFFCURVE",
"297.03 631.66 OFFCURVE",
"270.01 610.99 CURVE SMOOTH",
"252.46 597.56 OFFCURVE",
"234.38 583.9 OFFCURVE",
"222.6 565.2 CURVE SMOOTH",
"216.71 555.85 OFFCURVE",
"212.56 545.42 OFFCURVE",
"210.36 534.59 CURVE SMOOTH",
"208.16 523.76 OFFCURVE",
"207.97 512.64 OFFCURVE",
"207.97 501.59 CURVE SMOOTH",
"207.98 475.22 LINE",
"184.19 471.53 OFFCURVE",
"160.08 468.22 OFFCURVE",
"138.51 457.76 CURVE SMOOTH",
"124.13 450.78 OFFCURVE",
"111.27 440.55 OFFCURVE",
"101.64 427.8 CURVE SMOOTH",
"92.01 415.04 OFFCURVE",
"85.59 399.95 OFFCURVE",
"82.51 384.26 CURVE SMOOTH"
);
},
{
closed = 1;
nodes = (
"125 -99.88 LINE",
"101.02 -97.98 OFFCURVE",
"77.68 -88.69 OFFCURVE",
"58.96 -73.59 CURVE SMOOTH",
"40.25 -58.48 OFFCURVE",
"26.23 -37.6 OFFCURVE",
"19.5 -14.51 CURVE SMOOTH",
"10.58 16.1 OFFCURVE",
"15 50.46 OFFCURVE",
"31.91 77.49 CURVE SMOOTH",
"48.82 104.52 OFFCURVE",
"77.73 123.25 OFFCURVE",
"109 129.49 CURVE SMOOTH",
"142.69 136.22 OFFCURVE",
"177.74 129.17 OFFCURVE",
"210.03 117.47 CURVE SMOOTH",
"242.32 105.76 OFFCURVE",
"273.04 90.1 OFFCURVE",
"305 77.49 CURVE SMOOTH",
"324.13 69.94 OFFCURVE",
"343.65 63.36 OFFCURVE",
"363.5 57.99 CURVE",
"374.43 63.36 OFFCURVE",
"383.12 72.96 OFFCURVE",
"387.8 84.21 CURVE SMOOTH",
"392.48 95.45 OFFCURVE",
"393 107.93 OFFCURVE",
"393 120.11 CURVE SMOOTH",
"393 538.49 LINE SMOOTH",
"393 558.56 OFFCURVE",
"393.28 578.76 OFFCURVE",
"397.01 598.48 CURVE SMOOTH",
"400.74 618.21 OFFCURVE",
"407.87 637.32 OFFCURVE",
"418.37 654.43 CURVE SMOOTH",
"439.37 688.65 OFFCURVE",
"473.09 712.72 OFFCURVE",
"506.5 734.99 CURVE SMOOTH",
"565 773.99 LINE",
"580 757.49 LINE",
"562.56 746.46 OFFCURVE",
"549.18 729.36 OFFCURVE",
"541.98 710.02 CURVE SMOOTH",
"534.77 690.68 OFFCURVE",
"534 669.63 OFFCURVE",
"534 648.99 CURVE SMOOTH",
"534 234.11 LINE",
"511.52 195.98 OFFCURVE",
"485.72 159.8 OFFCURVE",
"457 126.11 CURVE SMOOTH",
"417.73 80.05 OFFCURVE",
"372.98 38.67 OFFCURVE",
"324 3.11 CURVE SMOOTH",
"316.55 -2.3 OFFCURVE",
"308.87 -7.48 OFFCURVE",
"300.5 -11.31 CURVE SMOOTH",
"292.13 -15.14 OFFCURVE",
"283.15 -17.62 OFFCURVE",
"274.02 -18.77 CURVE SMOOTH",
"255.75 -21.05 OFFCURVE",
"237.27 -18.28 OFFCURVE",
"219.01 -15.9 CURVE SMOOTH",
"127.01 -3.9 LINE SMOOTH",
"120.78 -3.09 OFFCURVE",
"114.48 -2.36 OFFCURVE",
"108.23 -2.99 CURVE SMOOTH",
"101.98 -3.63 OFFCURVE",
"95.82 -5.64 OFFCURVE",
"90.64 -9.2 CURVE SMOOTH",
"85.46 -12.76 OFFCURVE",
"81.33 -17.81 OFFCURVE",
"78.83 -23.57 CURVE SMOOTH",
"76.32 -29.33 OFFCURVE",
"75.42 -35.75 OFFCURVE",
"76.01 -42.01 CURVE SMOOTH",
"77.11 -53.74 OFFCURVE",
"83.38 -64.76 OFFCURVE",
"92.41 -72.32 CURVE SMOOTH",
"101.44 -79.89 OFFCURVE",
"113.22 -84.08 OFFCURVE",
"125.01 -84.01 CURVE"
);
}
);
width = 595;
}
);
note = Iacute;
rightKerningGroup = A;
unicode = 00CD;
},
{
glyphname = Ibreve;
layers = (
{
layerId = "350E41D6-91B0-4895-AA67-C01AEB764728";
paths = (
{
closed = 1;
nodes = (
"266.34 883.24 OFFCURVE",
"233.81 907.7 OFFCURVE",
"210.82 939 CURVE",
"278.82 999 LINE",
"288.26 985.75 OFFCURVE",
"300.45 974.49 OFFCURVE",
"314.34 966.02 CURVE SMOOTH",
"330.62 956.09 OFFCURVE",
"349.07 949.95 OFFCURVE",
"367.92 947.09 CURVE SMOOTH",
"386.77 944.22 OFFCURVE",
"406.24 944.27 OFFCURVE",
"424.73 948.93 CURVE SMOOTH",
"434.51 951.39 OFFCURVE",
"443.99 955.29 OFFCURVE",
"452.25 961.08 CURVE SMOOTH",
"461.41 967.5 OFFCURVE",
"468.93 976.25 OFFCURVE",
"473.71 986.36 CURVE",
"499.4 973.96 LINE",
"491.78 956.94 OFFCURVE",
"482.23 940.77 OFFCURVE",
"470.81 926.02 CURVE SMOOTH",
"456.07 906.98 OFFCURVE",
"437.99 890.26 OFFCURVE",
"416.72 879 CURVE SMOOTH",
"399.49 869.88 OFFCURVE",
"380.3 864.51 OFFCURVE",
"360.84 863.33 CURVE SMOOTH",
"341.38 862.15 OFFCURVE",
"321.75 865.04 OFFCURVE",
"303.23 871.12 CURVE SMOOTH"
);
},
{
closed = 1;
nodes = (
"81.02 376.73 OFFCURVE",
"80.3 369.05 OFFCURVE",
"80.3 361.37 CURVE SMOOTH",
"80.3 340.87 OFFCURVE",
"85.44 320.34 OFFCURVE",
"95.03 302.19 CURVE",
"114.16 302.19 LINE",
"112.58 310.69 OFFCURVE",
"112.77 319.52 OFFCURVE",
"114.82 327.91 CURVE SMOOTH",
"117.78 340.02 OFFCURVE",
"124.99 351.26 OFFCURVE",
"135.48 357.99 CURVE SMOOTH",
"140.73 361.35 OFFCURVE",
"146.68 363.55 OFFCURVE",
"152.81 364.7 CURVE SMOOTH",
"158.94 365.84 OFFCURVE",
"165.21 365.92 OFFCURVE",
"171.44 365.92 CURVE SMOOTH",
"183.63 365.92 OFFCURVE",
"195.82 365.92 OFFCURVE",
"208.01 365.92 CURVE",
"208.01 342.16 OFFCURVE",
"208.01 318.41 OFFCURVE",
"208.01 294.65 CURVE SMOOTH",
"208.01 277.2 OFFCURVE",
"207.98 259.68 OFFCURVE",
"205.56 242.4 CURVE SMOOTH",
"203.14 225.12 OFFCURVE",
"198.22 208.05 OFFCURVE",
"189.67 192.84 CURVE SMOOTH",
"179.54 174.82 OFFCURVE",
"164.29 159.65 OFFCURVE",
"146 150.01 CURVE",
"179 150.01 LINE",
"209.75 159.24 OFFCURVE",
"239.77 171.49 OFFCURVE",
"267 188.51 CURVE SMOOTH",
"289.34 202.47 OFFCURVE",
"309.71 220.61 OFFCURVE",
"322.15 243.83 CURVE SMOOTH",
"328.37 255.44 OFFCURVE",
"332.5 268.13 OFFCURVE",
"334.67 281.12 CURVE SMOOTH",
"336.84 294.11 OFFCURVE",
"337 307.34 OFFCURVE",
"337 320.51 CURVE SMOOTH",
"337 397.66 LINE",
"337.07 539.01 LINE SMOOTH",
"337.08 571.57 OFFCURVE",
"340.05 604.78 OFFCURVE",
"353.5 634.42 CURVE SMOOTH",
"361.92 652.98 OFFCURVE",
"374.63 669.46 OFFCURVE",
"390.05 682.78 CURVE SMOOTH",
"405.47 696.11 OFFCURVE",
"422.89 706.93 OFFCURVE",
"438.66 719.84 CURVE SMOOTH",
"453.6 732.07 OFFCURVE",
"466.99 746.29 OFFCURVE",
"477.49 762.48 CURVE",
"478.99 789 LINE",
"467.91 778.56 OFFCURVE",
"454.73 770.37 OFFCURVE",
"440.49 764.98 CURVE SMOOTH",
"420.7 757.49 OFFCURVE",
"399.07 755.58 OFFCURVE",
"377.99 757.5 CURVE SMOOTH",
"353.26 759.75 OFFCURVE",
"329.31 767 OFFCURVE",
"305.2 772.92 CURVE SMOOTH",
"281.08 778.84 OFFCURVE",
"256.24 783.11 OFFCURVE",
"231.49 781 CURVE SMOOTH",
"198.77 778.22 OFFCURVE",
"167.61 764.04 OFFCURVE",
"141.99 743.5 CURVE SMOOTH",
"107.38 715.74 OFFCURVE",
"81.27 678.07 OFFCURVE",
"64.49 637 CURVE",
"87.99 637 LINE",
"93.47 651.2 OFFCURVE",
"104.76 662.94 OFFCURVE",
"118.49 669.5 CURVE SMOOTH",
"130.69 675.33 OFFCURVE",
"144.47 677.22 OFFCURVE",
"157.99 677 CURVE SMOOTH",
"179.15 676.66 OFFCURVE",
"199.96 671.93 OFFCURVE",
"220.83 668.46 CURVE SMOOTH",
"241.71 664.98 OFFCURVE",
"262.83 662.56 OFFCURVE",
"283.99 663 CURVE SMOOTH",
"306.47 663.47 OFFCURVE",
"328.76 667.35 OFFCURVE",
"350.16 674.16 CURVE",
"323.74 652.73 OFFCURVE",
"297.01 631.67 OFFCURVE",
"269.99 611 CURVE SMOOTH",
"252.44 597.57 OFFCURVE",
"234.36 583.91 OFFCURVE",
"222.58 565.21 CURVE SMOOTH",
"216.69 555.86 OFFCURVE",
"212.54 545.43 OFFCURVE",
"210.34 534.6 CURVE SMOOTH",
"208.14 523.77 OFFCURVE",
"207.95 512.65 OFFCURVE",
"207.95 501.6 CURVE SMOOTH",
"207.96 475.23 LINE",
"184.17 471.54 OFFCURVE",
"160.06 468.23 OFFCURVE",
"138.49 457.77 CURVE SMOOTH",
"124.11 450.79 OFFCURVE",
"111.25 440.56 OFFCURVE",
"101.62 427.81 CURVE SMOOTH",
"91.99 415.05 OFFCURVE",
"85.57 399.96 OFFCURVE",
"82.49 384.27 CURVE SMOOTH"
);
},
{
closed = 1;
nodes = (
"124.98 -99.87 LINE",
"101 -97.97 OFFCURVE",
"77.66 -88.68 OFFCURVE",
"58.94 -73.58 CURVE SMOOTH",
"40.23 -58.47 OFFCURVE",
"26.21 -37.59 OFFCURVE",
"19.48 -14.5 CURVE SMOOTH",
"10.56 16.11 OFFCURVE",
"14.98 50.47 OFFCURVE",
"31.89 77.5 CURVE SMOOTH",
"48.8 104.53 OFFCURVE",
"77.71 123.26 OFFCURVE",
"108.98 129.5 CURVE SMOOTH",
"142.67 136.23 OFFCURVE",
"177.72 129.18 OFFCURVE",
"210.01 117.48 CURVE SMOOTH",
"242.3 105.77 OFFCURVE",
"273.02 90.11 OFFCURVE",
"304.98 77.5 CURVE SMOOTH",
"324.11 69.95 OFFCURVE",
"343.63 63.37 OFFCURVE",
"363.48 58 CURVE",
"374.41 63.37 OFFCURVE",
"383.1 72.97 OFFCURVE",
"387.78 84.22 CURVE SMOOTH",
"392.46 95.46 OFFCURVE",
"392.98 107.94 OFFCURVE",
"392.98 120.12 CURVE SMOOTH",
"392.98 538.5 LINE SMOOTH",
"392.98 558.57 OFFCURVE",
"393.26 578.77 OFFCURVE",
"396.99 598.49 CURVE SMOOTH",
"400.72 618.22 OFFCURVE",
"407.85 637.33 OFFCURVE",
"418.35 654.44 CURVE SMOOTH",
"439.35 688.66 OFFCURVE",
"473.07 712.73 OFFCURVE",
"506.48 735 CURVE SMOOTH",
"564.98 774 LINE",
"579.98 757.5 LINE",
"562.54 746.47 OFFCURVE",
"549.16 729.37 OFFCURVE",
"541.96 710.03 CURVE SMOOTH",
"534.75 690.69 OFFCURVE",
"533.98 669.64 OFFCURVE",
"533.98 649 CURVE SMOOTH",
"533.98 234.12 LINE",
"511.5 195.99 OFFCURVE",
"485.7 159.81 OFFCURVE",
"456.98 126.12 CURVE SMOOTH",
"417.71 80.06 OFFCURVE",
"372.96 38.68 OFFCURVE",
"323.98 3.12 CURVE SMOOTH",
"316.53 -2.29 OFFCURVE",
"308.85 -7.47 OFFCURVE",
"300.48 -11.3 CURVE SMOOTH",
"292.11 -15.13 OFFCURVE",
"283.13 -17.61 OFFCURVE",
"274 -18.76 CURVE SMOOTH",
"255.73 -21.04 OFFCURVE",
"237.25 -18.27 OFFCURVE",
"218.99 -15.89 CURVE SMOOTH",
"126.99 -3.89 LINE SMOOTH",
"120.76 -3.08 OFFCURVE",
"114.46 -2.35 OFFCURVE",
"108.21 -2.98 CURVE SMOOTH",
"101.96 -3.62 OFFCURVE",
"95.8 -5.63 OFFCURVE",
"90.62 -9.19 CURVE SMOOTH",
"85.44 -12.75 OFFCURVE",
"81.31 -17.8 OFFCURVE",
"78.81 -23.56 CURVE SMOOTH",
"76.3 -29.32 OFFCURVE",
"75.4 -35.74 OFFCURVE",
"75.99 -42 CURVE SMOOTH",
"77.09 -53.73 OFFCURVE",
"83.36 -64.75 OFFCURVE",
"92.39 -72.31 CURVE SMOOTH",
"101.42 -79.88 OFFCURVE",
"113.2 -84.07 OFFCURVE",
"124.99 -84 CURVE"
);
}
);
width = 595;
}
);
note = Ibreve;
rightKerningGroup = A;
unicode = 012C;
},
{
glyphname = Icircumflex;
layers = (
{
layerId = "350E41D6-91B0-4895-AA67-C01AEB764728";
paths = (
{
closed = 1;
nodes = (
"164.1 858.45 LINE",
"165.4 897.23 LINE",
"364.64 1099.37 LINE",
"370.23 1095.07 LINE",
"371.37 1094.02 LINE",
"540.86 937.71 LINE",
"490.36 858.46 LINE",
"484.77 862.76 LINE",
"319.27 1015.4 LINE"
);
},
{
closed = 1;
nodes = (
"81.04 376.73 OFFCURVE",
"80.32 369.05 OFFCURVE",
"80.32 361.37 CURVE SMOOTH",
"80.32 340.87 OFFCURVE",
"85.46 320.34 OFFCURVE",
"95.05 302.19 CURVE",
"114.18 302.19 LINE",
"112.6 310.69 OFFCURVE",
"112.79 319.52 OFFCURVE",
"114.84 327.91 CURVE SMOOTH",
"117.8 340.02 OFFCURVE",
"125.01 351.26 OFFCURVE",
"135.5 357.99 CURVE SMOOTH",
"140.75 361.35 OFFCURVE",
"146.7 363.55 OFFCURVE",
"152.83 364.7 CURVE SMOOTH",
"158.96 365.84 OFFCURVE",
"165.23 365.92 OFFCURVE",
"171.46 365.92 CURVE SMOOTH",
"183.65 365.92 OFFCURVE",
"195.84 365.92 OFFCURVE",
"208.03 365.92 CURVE",
"208.03 342.16 OFFCURVE",
"208.03 318.41 OFFCURVE",
"208.03 294.65 CURVE SMOOTH",
"208.03 277.2 OFFCURVE",
"208 259.68 OFFCURVE",
"205.58 242.4 CURVE SMOOTH",
"203.16 225.12 OFFCURVE",
"198.24 208.05 OFFCURVE",
"189.69 192.84 CURVE SMOOTH",
"179.56 174.82 OFFCURVE",
"164.31 159.65 OFFCURVE",
"146.02 150.01 CURVE",
"179.02 150.01 LINE",
"209.77 159.24 OFFCURVE",
"239.79 171.49 OFFCURVE",
"267.02 188.51 CURVE SMOOTH",
"289.36 202.47 OFFCURVE",
"309.73 220.61 OFFCURVE",
"322.17 243.83 CURVE SMOOTH",
"328.39 255.44 OFFCURVE",
"332.52 268.13 OFFCURVE",
"334.69 281.12 CURVE SMOOTH",
"336.86 294.11 OFFCURVE",
"337.02 307.34 OFFCURVE",
"337.02 320.51 CURVE SMOOTH",
"337.02 397.66 LINE",
"337.09 539.01 LINE SMOOTH",
"337.1 571.57 OFFCURVE",
"340.07 604.78 OFFCURVE",
"353.52 634.42 CURVE SMOOTH",
"361.94 652.98 OFFCURVE",
"374.65 669.46 OFFCURVE",
"390.07 682.78 CURVE SMOOTH",
"405.49 696.11 OFFCURVE",
"422.91 706.93 OFFCURVE",
"438.68 719.84 CURVE SMOOTH",
"453.62 732.07 OFFCURVE",
"467.01 746.29 OFFCURVE",
"477.51 762.48 CURVE",
"479.01 789 LINE",
"467.93 778.56 OFFCURVE",
"454.75 770.37 OFFCURVE",
"440.51 764.98 CURVE SMOOTH",
"420.72 757.49 OFFCURVE",
"399.09 755.58 OFFCURVE",
"378.01 757.5 CURVE SMOOTH",
"353.28 759.75 OFFCURVE",
"329.33 767 OFFCURVE",
"305.22 772.92 CURVE SMOOTH",
"281.1 778.84 OFFCURVE",
"256.26 783.11 OFFCURVE",
"231.51 781 CURVE SMOOTH",
"198.79 778.22 OFFCURVE",
"167.63 764.04 OFFCURVE",
"142.01 743.5 CURVE SMOOTH",
"107.4 715.74 OFFCURVE",
"81.29 678.07 OFFCURVE",
"64.51 637 CURVE",
"88.01 637 LINE",
"93.49 651.2 OFFCURVE",
"104.78 662.94 OFFCURVE",
"118.51 669.5 CURVE SMOOTH",
"130.71 675.33 OFFCURVE",
"144.49 677.22 OFFCURVE",
"158.01 677 CURVE SMOOTH",
"179.17 676.66 OFFCURVE",
"199.98 671.93 OFFCURVE",
"220.85 668.46 CURVE SMOOTH",
"241.73 664.98 OFFCURVE",
"262.85 662.56 OFFCURVE",
"284.01 663 CURVE SMOOTH",
"306.49 663.47 OFFCURVE",
"328.78 667.35 OFFCURVE",
"350.18 674.16 CURVE",
"323.76 652.73 OFFCURVE",
"297.03 631.67 OFFCURVE",
"270.01 611 CURVE SMOOTH",
"252.46 597.57 OFFCURVE",
"234.38 583.91 OFFCURVE",
"222.6 565.21 CURVE SMOOTH",
"216.71 555.86 OFFCURVE",
"212.56 545.43 OFFCURVE",
"210.36 534.6 CURVE SMOOTH",
"208.16 523.77 OFFCURVE",
"207.97 512.65 OFFCURVE",
"207.97 501.6 CURVE SMOOTH",
"207.98 475.23 LINE",
"184.19 471.54 OFFCURVE",
"160.08 468.23 OFFCURVE",
"138.51 457.77 CURVE SMOOTH",
"124.13 450.79 OFFCURVE",
"111.27 440.56 OFFCURVE",
"101.64 427.81 CURVE SMOOTH",
"92.01 415.05 OFFCURVE",
"85.59 399.96 OFFCURVE",
"82.51 384.27 CURVE SMOOTH"
);
},
{
closed = 1;
nodes = (
"125 -99.87 LINE",
"101.02 -97.97 OFFCURVE",
"77.68 -88.68 OFFCURVE",
"58.96 -73.58 CURVE SMOOTH",
"40.25 -58.47 OFFCURVE",
"26.23 -37.59 OFFCURVE",
"19.5 -14.5 CURVE SMOOTH",
"10.58 16.11 OFFCURVE",
"15 50.47 OFFCURVE",
"31.91 77.5 CURVE SMOOTH",
"48.82 104.53 OFFCURVE",
"77.73 123.26 OFFCURVE",
"109 129.5 CURVE SMOOTH",
"142.69 136.23 OFFCURVE",
"177.74 129.18 OFFCURVE",
"210.03 117.48 CURVE SMOOTH",
"242.32 105.77 OFFCURVE",
"273.04 90.11 OFFCURVE",
"305 77.5 CURVE SMOOTH",
"324.13 69.95 OFFCURVE",
"343.65 63.37 OFFCURVE",
"363.5 58 CURVE",
"374.43 63.37 OFFCURVE",
"383.12 72.97 OFFCURVE",
"387.8 84.22 CURVE SMOOTH",
"392.48 95.46 OFFCURVE",
"393 107.94 OFFCURVE",
"393 120.12 CURVE SMOOTH",
"393 538.5 LINE SMOOTH",
"393 558.57 OFFCURVE",
"393.28 578.77 OFFCURVE",
"397.01 598.49 CURVE SMOOTH",
"400.74 618.22 OFFCURVE",
"407.87 637.33 OFFCURVE",
"418.37 654.44 CURVE SMOOTH",
"439.37 688.66 OFFCURVE",
"473.09 712.73 OFFCURVE",
"506.5 735 CURVE SMOOTH",
"565 774 LINE",
"580 757.5 LINE",
"562.56 746.47 OFFCURVE",
"549.18 729.37 OFFCURVE",
"541.98 710.03 CURVE SMOOTH",
"534.77 690.69 OFFCURVE",
"534 669.64 OFFCURVE",
"534 649 CURVE SMOOTH",
"534 234.12 LINE",
"511.52 195.99 OFFCURVE",
"485.72 159.81 OFFCURVE",
"457 126.12 CURVE SMOOTH",
"417.73 80.06 OFFCURVE",
"372.98 38.68 OFFCURVE",
"324 3.12 CURVE SMOOTH",
"316.55 -2.29 OFFCURVE",
"308.87 -7.47 OFFCURVE",
"300.5 -11.3 CURVE SMOOTH",
"292.13 -15.13 OFFCURVE",
"283.15 -17.61 OFFCURVE",
"274.02 -18.76 CURVE SMOOTH",
"255.75 -21.04 OFFCURVE",
"237.27 -18.27 OFFCURVE",
"219.01 -15.89 CURVE SMOOTH",
"127.01 -3.89 LINE SMOOTH",
"120.78 -3.08 OFFCURVE",
"114.48 -2.35 OFFCURVE",
"108.23 -2.98 CURVE SMOOTH",
"101.98 -3.62 OFFCURVE",
"95.82 -5.63 OFFCURVE",
"90.64 -9.19 CURVE SMOOTH",
"85.46 -12.75 OFFCURVE",
"81.33 -17.8 OFFCURVE",
"78.83 -23.56 CURVE SMOOTH",
"76.32 -29.32 OFFCURVE",
"75.42 -35.74 OFFCURVE",
"76.01 -42 CURVE SMOOTH",
"77.11 -53.73 OFFCURVE",
"83.38 -64.75 OFFCURVE",
"92.41 -72.31 CURVE SMOOTH",
"101.44 -79.88 OFFCURVE",
"113.22 -84.07 OFFCURVE",
"125.01 -84 CURVE"
);
}
);
width = 595;
}
);
note = Icircumflex;
rightKerningGroup = A;
unicode = 00CE;
},
{
glyphname = Idieresis;
layers = (
{
layerId = "350E41D6-91B0-4895-AA67-C01AEB764728";
paths = (
{
closed = 1;
nodes = (
"150.88 969.47 LINE",
"242.23 878.12 LINE",
"332.11 968 LINE",
"240.76 1059.35 LINE"
);
},
{
closed = 1;
nodes = (
"380.88 969.47 LINE",
"472.23 878.12 LINE",
"562.11 968 LINE",
"470.76 1059.35 LINE"
);
},
{
closed = 1;
nodes = (
"81.03 376.73 OFFCURVE",
"80.31 369.05 OFFCURVE",
"80.31 361.37 CURVE SMOOTH",
"80.31 340.87 OFFCURVE",
"85.45 320.34 OFFCURVE",
"95.04 302.19 CURVE",
"114.17 302.19 LINE",
"112.59 310.69 OFFCURVE",
"112.78 319.52 OFFCURVE",
"114.83 327.91 CURVE SMOOTH",
"117.79 340.02 OFFCURVE",
"125 351.26 OFFCURVE",
"135.49 357.99 CURVE SMOOTH",
"140.74 361.35 OFFCURVE",
"146.69 363.55 OFFCURVE",
"152.82 364.7 CURVE SMOOTH",
"158.95 365.84 OFFCURVE",
"165.22 365.92 OFFCURVE",
"171.45 365.92 CURVE SMOOTH",
"183.64 365.92 OFFCURVE",
"195.83 365.92 OFFCURVE",
"208.02 365.92 CURVE",
"208.02 342.16 OFFCURVE",
"208.02 318.41 OFFCURVE",
"208.02 294.65 CURVE SMOOTH",
"208.02 277.2 OFFCURVE",
"207.99 259.68 OFFCURVE",
"205.57 242.4 CURVE SMOOTH",
"203.15 225.12 OFFCURVE",
"198.23 208.05 OFFCURVE",
"189.68 192.84 CURVE SMOOTH",
"179.55 174.82 OFFCURVE",
"164.3 159.65 OFFCURVE",
"146.01 150.01 CURVE",
"179.01 150.01 LINE",
"209.76 159.24 OFFCURVE",
"239.78 171.49 OFFCURVE",
"267.01 188.51 CURVE SMOOTH",
"289.35 202.47 OFFCURVE",
"309.72 220.61 OFFCURVE",
"322.16 243.83 CURVE SMOOTH",
"328.38 255.44 OFFCURVE",
"332.51 268.13 OFFCURVE",
"334.68 281.12 CURVE SMOOTH",
"336.85 294.11 OFFCURVE",
"337.01 307.34 OFFCURVE",
"337.01 320.51 CURVE SMOOTH",
"337.01 397.66 LINE",
"337.08 539.01 LINE SMOOTH",
"337.09 571.57 OFFCURVE",
"340.06 604.78 OFFCURVE",
"353.51 634.42 CURVE SMOOTH",
"361.93 652.98 OFFCURVE",
"374.64 669.46 OFFCURVE",
"390.06 682.78 CURVE SMOOTH",
"405.48 696.11 OFFCURVE",
"422.9 706.93 OFFCURVE",
"438.67 719.84 CURVE SMOOTH",
"453.61 732.07 OFFCURVE",
"467 746.29 OFFCURVE",
"477.5 762.48 CURVE",
"479 789 LINE",
"467.92 778.56 OFFCURVE",
"454.74 770.37 OFFCURVE",
"440.5 764.98 CURVE SMOOTH",
"420.71 757.49 OFFCURVE",
"399.08 755.58 OFFCURVE",
"378 757.5 CURVE SMOOTH",
"353.27 759.75 OFFCURVE",
"329.32 767 OFFCURVE",
"305.21 772.92 CURVE SMOOTH",
"281.09 778.84 OFFCURVE",
"256.25 783.11 OFFCURVE",
"231.5 781 CURVE SMOOTH",
"198.78 778.22 OFFCURVE",
"167.62 764.04 OFFCURVE",
"142 743.5 CURVE SMOOTH",
"107.39 715.74 OFFCURVE",
"81.28 678.07 OFFCURVE",
"64.5 637 CURVE",
"88 637 LINE",
"93.48 651.2 OFFCURVE",
"104.77 662.94 OFFCURVE",
"118.5 669.5 CURVE SMOOTH",
"130.7 675.33 OFFCURVE",
"144.48 677.22 OFFCURVE",
"158 677 CURVE SMOOTH",
"179.16 676.66 OFFCURVE",
"199.97 671.93 OFFCURVE",
"220.84 668.46 CURVE SMOOTH",
"241.72 664.98 OFFCURVE",
"262.84 662.56 OFFCURVE",
"284 663 CURVE SMOOTH",
"306.48 663.47 OFFCURVE",
"328.77 667.35 OFFCURVE",
"350.17 674.16 CURVE",
"323.75 652.73 OFFCURVE",
"297.02 631.67 OFFCURVE",
"270 611 CURVE SMOOTH",
"252.45 597.57 OFFCURVE",
"234.37 583.91 OFFCURVE",
"222.59 565.21 CURVE SMOOTH",
"216.7 555.86 OFFCURVE",
"212.55 545.43 OFFCURVE",
"210.35 534.6 CURVE SMOOTH",
"208.15 523.77 OFFCURVE",
"207.96 512.65 OFFCURVE",
"207.96 501.6 CURVE SMOOTH",
"207.97 475.23 LINE",
"184.18 471.54 OFFCURVE",
"160.07 468.23 OFFCURVE",
"138.5 457.77 CURVE SMOOTH",
"124.12 450.79 OFFCURVE",
"111.26 440.56 OFFCURVE",
"101.63 427.81 CURVE SMOOTH",
"92 415.05 OFFCURVE",
"85.58 399.96 OFFCURVE",
"82.5 384.27 CURVE SMOOTH"
);
},
{
closed = 1;
nodes = (
"124.99 -99.87 LINE",
"101.01 -97.97 OFFCURVE",
"77.67 -88.68 OFFCURVE",
"58.95 -73.58 CURVE SMOOTH",
"40.24 -58.47 OFFCURVE",
"26.22 -37.59 OFFCURVE",
"19.49 -14.5 CURVE SMOOTH",
"10.57 16.11 OFFCURVE",
"14.99 50.47 OFFCURVE",
"31.9 77.5 CURVE SMOOTH",
"48.81 104.53 OFFCURVE",
"77.72 123.26 OFFCURVE",
"108.99 129.5 CURVE SMOOTH",
"142.68 136.23 OFFCURVE",
"177.73 129.18 OFFCURVE",
"210.02 117.48 CURVE SMOOTH",
"242.31 105.77 OFFCURVE",
"273.03 90.11 OFFCURVE",
"304.99 77.5 CURVE SMOOTH",
"324.12 69.95 OFFCURVE",
"343.64 63.37 OFFCURVE",
"363.49 58 CURVE",
"374.42 63.37 OFFCURVE",
"383.11 72.97 OFFCURVE",
"387.79 84.22 CURVE SMOOTH",
"392.47 95.46 OFFCURVE",
"392.99 107.94 OFFCURVE",
"392.99 120.12 CURVE SMOOTH",
"392.99 538.5 LINE SMOOTH",
"392.99 558.57 OFFCURVE",
"393.27 578.77 OFFCURVE",
"397 598.49 CURVE SMOOTH",
"400.73 618.22 OFFCURVE",
"407.86 637.33 OFFCURVE",
"418.36 654.44 CURVE SMOOTH",
"439.36 688.66 OFFCURVE",
"473.08 712.73 OFFCURVE",
"506.49 735 CURVE SMOOTH",
"564.99 774 LINE",
"579.99 757.5 LINE",
"562.55 746.47 OFFCURVE",
"549.17 729.37 OFFCURVE",
"541.97 710.03 CURVE SMOOTH",
"534.76 690.69 OFFCURVE",
"533.99 669.64 OFFCURVE",
"533.99 649 CURVE SMOOTH",
"533.99 234.12 LINE",
"511.51 195.99 OFFCURVE",
"485.71 159.81 OFFCURVE",
"456.99 126.12 CURVE SMOOTH",
"417.72 80.06 OFFCURVE",
"372.97 38.68 OFFCURVE",
"323.99 3.12 CURVE SMOOTH",
"316.54 -2.29 OFFCURVE",
"308.86 -7.47 OFFCURVE",
"300.49 -11.3 CURVE SMOOTH",
"292.12 -15.13 OFFCURVE",
"283.14 -17.61 OFFCURVE",
"274.01 -18.76 CURVE SMOOTH",
"255.74 -21.04 OFFCURVE",
"237.26 -18.27 OFFCURVE",
"219 -15.89 CURVE SMOOTH",
"127 -3.89 LINE SMOOTH",
"120.77 -3.08 OFFCURVE",
"114.47 -2.35 OFFCURVE",
"108.22 -2.98 CURVE SMOOTH",
"101.97 -3.62 OFFCURVE",
"95.81 -5.63 OFFCURVE",
"90.63 -9.19 CURVE SMOOTH",
"85.45 -12.75 OFFCURVE",
"81.32 -17.8 OFFCURVE",
"78.82 -23.56 CURVE SMOOTH",
"76.31 -29.32 OFFCURVE",
"75.41 -35.74 OFFCURVE",
"76 -42 CURVE SMOOTH",
"77.1 -53.73 OFFCURVE",
"83.37 -64.75 OFFCURVE",
"92.4 -72.31 CURVE SMOOTH",
"101.43 -79.88 OFFCURVE",
"113.21 -84.07 OFFCURVE",
"125 -84 CURVE"
);
}
);
width = 595;
}
);
note = Idieresis;
rightKerningGroup = A;
unicode = 00CF;
},
